%TF.GenerationSoftware,KiCad,Pcbnew,8.0.5*%
%TF.CreationDate,2024-11-16T20:21:07-03:00*%
%TF.ProjectId,hal9000mainboard,68616c39-3030-4306-9d61-696e626f6172,rev?*%
%TF.SameCoordinates,Original*%
%TF.FileFunction,Legend,Top*%
%TF.FilePolarity,Positive*%
%FSLAX46Y46*%
G04 Gerber Fmt 4.6, Leading zero omitted, Abs format (unit mm)*
G04 Created by KiCad (PCBNEW 8.0.5) date 2024-11-16 20:21:07*
%MOMM*%
%LPD*%
G01*
G04 APERTURE LIST*
%ADD10C,0.101600*%
%ADD11C,0.150000*%
%ADD12C,0.127000*%
%ADD13C,0.120000*%
%ADD14C,0.254000*%
%ADD15C,0.025400*%
%ADD16C,0.200000*%
G04 APERTURE END LIST*
D10*
X19487666Y-17126985D02*
X19487666Y-17846652D01*
X19487666Y-17846652D02*
X19530000Y-17931318D01*
X19530000Y-17931318D02*
X19572333Y-17973652D01*
X19572333Y-17973652D02*
X19657000Y-18015985D01*
X19657000Y-18015985D02*
X19826333Y-18015985D01*
X19826333Y-18015985D02*
X19911000Y-17973652D01*
X19911000Y-17973652D02*
X19953333Y-17931318D01*
X19953333Y-17931318D02*
X19995666Y-17846652D01*
X19995666Y-17846652D02*
X19995666Y-17126985D01*
X20884666Y-18015985D02*
X20376666Y-18015985D01*
X20630666Y-18015985D02*
X20630666Y-17126985D01*
X20630666Y-17126985D02*
X20545999Y-17253985D01*
X20545999Y-17253985D02*
X20461333Y-17338652D01*
X20461333Y-17338652D02*
X20376666Y-17380985D01*
X21435000Y-17126985D02*
X21519666Y-17126985D01*
X21519666Y-17126985D02*
X21604333Y-17169318D01*
X21604333Y-17169318D02*
X21646666Y-17211652D01*
X21646666Y-17211652D02*
X21689000Y-17296318D01*
X21689000Y-17296318D02*
X21731333Y-17465652D01*
X21731333Y-17465652D02*
X21731333Y-17677318D01*
X21731333Y-17677318D02*
X21689000Y-17846652D01*
X21689000Y-17846652D02*
X21646666Y-17931318D01*
X21646666Y-17931318D02*
X21604333Y-17973652D01*
X21604333Y-17973652D02*
X21519666Y-18015985D01*
X21519666Y-18015985D02*
X21435000Y-18015985D01*
X21435000Y-18015985D02*
X21350333Y-17973652D01*
X21350333Y-17973652D02*
X21308000Y-17931318D01*
X21308000Y-17931318D02*
X21265666Y-17846652D01*
X21265666Y-17846652D02*
X21223333Y-17677318D01*
X21223333Y-17677318D02*
X21223333Y-17465652D01*
X21223333Y-17465652D02*
X21265666Y-17296318D01*
X21265666Y-17296318D02*
X21308000Y-17211652D01*
X21308000Y-17211652D02*
X21350333Y-17169318D01*
X21350333Y-17169318D02*
X21435000Y-17126985D01*
X22281667Y-17126985D02*
X22366333Y-17126985D01*
X22366333Y-17126985D02*
X22451000Y-17169318D01*
X22451000Y-17169318D02*
X22493333Y-17211652D01*
X22493333Y-17211652D02*
X22535667Y-17296318D01*
X22535667Y-17296318D02*
X22578000Y-17465652D01*
X22578000Y-17465652D02*
X22578000Y-17677318D01*
X22578000Y-17677318D02*
X22535667Y-17846652D01*
X22535667Y-17846652D02*
X22493333Y-17931318D01*
X22493333Y-17931318D02*
X22451000Y-17973652D01*
X22451000Y-17973652D02*
X22366333Y-18015985D01*
X22366333Y-18015985D02*
X22281667Y-18015985D01*
X22281667Y-18015985D02*
X22197000Y-17973652D01*
X22197000Y-17973652D02*
X22154667Y-17931318D01*
X22154667Y-17931318D02*
X22112333Y-17846652D01*
X22112333Y-17846652D02*
X22070000Y-17677318D01*
X22070000Y-17677318D02*
X22070000Y-17465652D01*
X22070000Y-17465652D02*
X22112333Y-17296318D01*
X22112333Y-17296318D02*
X22154667Y-17211652D01*
X22154667Y-17211652D02*
X22197000Y-17169318D01*
X22197000Y-17169318D02*
X22281667Y-17126985D01*
X22916667Y-17211652D02*
X22959000Y-17169318D01*
X22959000Y-17169318D02*
X23043667Y-17126985D01*
X23043667Y-17126985D02*
X23255334Y-17126985D01*
X23255334Y-17126985D02*
X23340000Y-17169318D01*
X23340000Y-17169318D02*
X23382334Y-17211652D01*
X23382334Y-17211652D02*
X23424667Y-17296318D01*
X23424667Y-17296318D02*
X23424667Y-17380985D01*
X23424667Y-17380985D02*
X23382334Y-17507985D01*
X23382334Y-17507985D02*
X22874334Y-18015985D01*
X22874334Y-18015985D02*
X23424667Y-18015985D01*
D11*
X16673095Y-13977200D02*
X16815952Y-14024819D01*
X16815952Y-14024819D02*
X17054047Y-14024819D01*
X17054047Y-14024819D02*
X17149285Y-13977200D01*
X17149285Y-13977200D02*
X17196904Y-13929580D01*
X17196904Y-13929580D02*
X17244523Y-13834342D01*
X17244523Y-13834342D02*
X17244523Y-13739104D01*
X17244523Y-13739104D02*
X17196904Y-13643866D01*
X17196904Y-13643866D02*
X17149285Y-13596247D01*
X17149285Y-13596247D02*
X17054047Y-13548628D01*
X17054047Y-13548628D02*
X16863571Y-13501009D01*
X16863571Y-13501009D02*
X16768333Y-13453390D01*
X16768333Y-13453390D02*
X16720714Y-13405771D01*
X16720714Y-13405771D02*
X16673095Y-13310533D01*
X16673095Y-13310533D02*
X16673095Y-13215295D01*
X16673095Y-13215295D02*
X16720714Y-13120057D01*
X16720714Y-13120057D02*
X16768333Y-13072438D01*
X16768333Y-13072438D02*
X16863571Y-13024819D01*
X16863571Y-13024819D02*
X17101666Y-13024819D01*
X17101666Y-13024819D02*
X17244523Y-13072438D01*
X18054047Y-13977200D02*
X17958809Y-14024819D01*
X17958809Y-14024819D02*
X17768333Y-14024819D01*
X17768333Y-14024819D02*
X17673095Y-13977200D01*
X17673095Y-13977200D02*
X17625476Y-13881961D01*
X17625476Y-13881961D02*
X17625476Y-13501009D01*
X17625476Y-13501009D02*
X17673095Y-13405771D01*
X17673095Y-13405771D02*
X17768333Y-13358152D01*
X17768333Y-13358152D02*
X17958809Y-13358152D01*
X17958809Y-13358152D02*
X18054047Y-13405771D01*
X18054047Y-13405771D02*
X18101666Y-13501009D01*
X18101666Y-13501009D02*
X18101666Y-13596247D01*
X18101666Y-13596247D02*
X17625476Y-13691485D01*
X18911190Y-13977200D02*
X18815952Y-14024819D01*
X18815952Y-14024819D02*
X18625476Y-14024819D01*
X18625476Y-14024819D02*
X18530238Y-13977200D01*
X18530238Y-13977200D02*
X18482619Y-13881961D01*
X18482619Y-13881961D02*
X18482619Y-13501009D01*
X18482619Y-13501009D02*
X18530238Y-13405771D01*
X18530238Y-13405771D02*
X18625476Y-13358152D01*
X18625476Y-13358152D02*
X18815952Y-13358152D01*
X18815952Y-13358152D02*
X18911190Y-13405771D01*
X18911190Y-13405771D02*
X18958809Y-13501009D01*
X18958809Y-13501009D02*
X18958809Y-13596247D01*
X18958809Y-13596247D02*
X18482619Y-13691485D01*
X19768333Y-13977200D02*
X19673095Y-14024819D01*
X19673095Y-14024819D02*
X19482619Y-14024819D01*
X19482619Y-14024819D02*
X19387381Y-13977200D01*
X19387381Y-13977200D02*
X19339762Y-13881961D01*
X19339762Y-13881961D02*
X19339762Y-13501009D01*
X19339762Y-13501009D02*
X19387381Y-13405771D01*
X19387381Y-13405771D02*
X19482619Y-13358152D01*
X19482619Y-13358152D02*
X19673095Y-13358152D01*
X19673095Y-13358152D02*
X19768333Y-13405771D01*
X19768333Y-13405771D02*
X19815952Y-13501009D01*
X19815952Y-13501009D02*
X19815952Y-13596247D01*
X19815952Y-13596247D02*
X19339762Y-13691485D01*
X20673095Y-14024819D02*
X20673095Y-13024819D01*
X20673095Y-13977200D02*
X20577857Y-14024819D01*
X20577857Y-14024819D02*
X20387381Y-14024819D01*
X20387381Y-14024819D02*
X20292143Y-13977200D01*
X20292143Y-13977200D02*
X20244524Y-13929580D01*
X20244524Y-13929580D02*
X20196905Y-13834342D01*
X20196905Y-13834342D02*
X20196905Y-13548628D01*
X20196905Y-13548628D02*
X20244524Y-13453390D01*
X20244524Y-13453390D02*
X20292143Y-13405771D01*
X20292143Y-13405771D02*
X20387381Y-13358152D01*
X20387381Y-13358152D02*
X20577857Y-13358152D01*
X20577857Y-13358152D02*
X20673095Y-13405771D01*
X21863572Y-13977200D02*
X22006429Y-14024819D01*
X22006429Y-14024819D02*
X22244524Y-14024819D01*
X22244524Y-14024819D02*
X22339762Y-13977200D01*
X22339762Y-13977200D02*
X22387381Y-13929580D01*
X22387381Y-13929580D02*
X22435000Y-13834342D01*
X22435000Y-13834342D02*
X22435000Y-13739104D01*
X22435000Y-13739104D02*
X22387381Y-13643866D01*
X22387381Y-13643866D02*
X22339762Y-13596247D01*
X22339762Y-13596247D02*
X22244524Y-13548628D01*
X22244524Y-13548628D02*
X22054048Y-13501009D01*
X22054048Y-13501009D02*
X21958810Y-13453390D01*
X21958810Y-13453390D02*
X21911191Y-13405771D01*
X21911191Y-13405771D02*
X21863572Y-13310533D01*
X21863572Y-13310533D02*
X21863572Y-13215295D01*
X21863572Y-13215295D02*
X21911191Y-13120057D01*
X21911191Y-13120057D02*
X21958810Y-13072438D01*
X21958810Y-13072438D02*
X22054048Y-13024819D01*
X22054048Y-13024819D02*
X22292143Y-13024819D01*
X22292143Y-13024819D02*
X22435000Y-13072438D01*
X22720715Y-13358152D02*
X23101667Y-13358152D01*
X22863572Y-13024819D02*
X22863572Y-13881961D01*
X22863572Y-13881961D02*
X22911191Y-13977200D01*
X22911191Y-13977200D02*
X23006429Y-14024819D01*
X23006429Y-14024819D02*
X23101667Y-14024819D01*
X23863572Y-13358152D02*
X23863572Y-14024819D01*
X23435001Y-13358152D02*
X23435001Y-13881961D01*
X23435001Y-13881961D02*
X23482620Y-13977200D01*
X23482620Y-13977200D02*
X23577858Y-14024819D01*
X23577858Y-14024819D02*
X23720715Y-14024819D01*
X23720715Y-14024819D02*
X23815953Y-13977200D01*
X23815953Y-13977200D02*
X23863572Y-13929580D01*
X24768334Y-14024819D02*
X24768334Y-13024819D01*
X24768334Y-13977200D02*
X24673096Y-14024819D01*
X24673096Y-14024819D02*
X24482620Y-14024819D01*
X24482620Y-14024819D02*
X24387382Y-13977200D01*
X24387382Y-13977200D02*
X24339763Y-13929580D01*
X24339763Y-13929580D02*
X24292144Y-13834342D01*
X24292144Y-13834342D02*
X24292144Y-13548628D01*
X24292144Y-13548628D02*
X24339763Y-13453390D01*
X24339763Y-13453390D02*
X24387382Y-13405771D01*
X24387382Y-13405771D02*
X24482620Y-13358152D01*
X24482620Y-13358152D02*
X24673096Y-13358152D01*
X24673096Y-13358152D02*
X24768334Y-13405771D01*
X25244525Y-14024819D02*
X25244525Y-13358152D01*
X25244525Y-13024819D02*
X25196906Y-13072438D01*
X25196906Y-13072438D02*
X25244525Y-13120057D01*
X25244525Y-13120057D02*
X25292144Y-13072438D01*
X25292144Y-13072438D02*
X25244525Y-13024819D01*
X25244525Y-13024819D02*
X25244525Y-13120057D01*
X25863572Y-14024819D02*
X25768334Y-13977200D01*
X25768334Y-13977200D02*
X25720715Y-13929580D01*
X25720715Y-13929580D02*
X25673096Y-13834342D01*
X25673096Y-13834342D02*
X25673096Y-13548628D01*
X25673096Y-13548628D02*
X25720715Y-13453390D01*
X25720715Y-13453390D02*
X25768334Y-13405771D01*
X25768334Y-13405771D02*
X25863572Y-13358152D01*
X25863572Y-13358152D02*
X26006429Y-13358152D01*
X26006429Y-13358152D02*
X26101667Y-13405771D01*
X26101667Y-13405771D02*
X26149286Y-13453390D01*
X26149286Y-13453390D02*
X26196905Y-13548628D01*
X26196905Y-13548628D02*
X26196905Y-13834342D01*
X26196905Y-13834342D02*
X26149286Y-13929580D01*
X26149286Y-13929580D02*
X26101667Y-13977200D01*
X26101667Y-13977200D02*
X26006429Y-14024819D01*
X26006429Y-14024819D02*
X25863572Y-14024819D01*
X19911191Y-15024819D02*
X20577857Y-16024819D01*
X20577857Y-15024819D02*
X19911191Y-16024819D01*
X20958810Y-16024819D02*
X20958810Y-15024819D01*
X21387381Y-15739104D02*
X21863571Y-15739104D01*
X21292143Y-16024819D02*
X21625476Y-15024819D01*
X21625476Y-15024819D02*
X21958809Y-16024819D01*
X22482619Y-15024819D02*
X22673095Y-15024819D01*
X22673095Y-15024819D02*
X22768333Y-15072438D01*
X22768333Y-15072438D02*
X22863571Y-15167676D01*
X22863571Y-15167676D02*
X22911190Y-15358152D01*
X22911190Y-15358152D02*
X22911190Y-15691485D01*
X22911190Y-15691485D02*
X22863571Y-15881961D01*
X22863571Y-15881961D02*
X22768333Y-15977200D01*
X22768333Y-15977200D02*
X22673095Y-16024819D01*
X22673095Y-16024819D02*
X22482619Y-16024819D01*
X22482619Y-16024819D02*
X22387381Y-15977200D01*
X22387381Y-15977200D02*
X22292143Y-15881961D01*
X22292143Y-15881961D02*
X22244524Y-15691485D01*
X22244524Y-15691485D02*
X22244524Y-15358152D01*
X22244524Y-15358152D02*
X22292143Y-15167676D01*
X22292143Y-15167676D02*
X22387381Y-15072438D01*
X22387381Y-15072438D02*
X22482619Y-15024819D01*
X8434819Y-46561904D02*
X9149104Y-46561904D01*
X9149104Y-46561904D02*
X9291961Y-46609523D01*
X9291961Y-46609523D02*
X9387200Y-46704761D01*
X9387200Y-46704761D02*
X9434819Y-46847618D01*
X9434819Y-46847618D02*
X9434819Y-46942856D01*
X9434819Y-45561904D02*
X9434819Y-46133332D01*
X9434819Y-45847618D02*
X8434819Y-45847618D01*
X8434819Y-45847618D02*
X8577676Y-45942856D01*
X8577676Y-45942856D02*
X8672914Y-46038094D01*
X8672914Y-46038094D02*
X8720533Y-46133332D01*
X8434819Y-44942856D02*
X8434819Y-44847618D01*
X8434819Y-44847618D02*
X8482438Y-44752380D01*
X8482438Y-44752380D02*
X8530057Y-44704761D01*
X8530057Y-44704761D02*
X8625295Y-44657142D01*
X8625295Y-44657142D02*
X8815771Y-44609523D01*
X8815771Y-44609523D02*
X9053866Y-44609523D01*
X9053866Y-44609523D02*
X9244342Y-44657142D01*
X9244342Y-44657142D02*
X9339580Y-44704761D01*
X9339580Y-44704761D02*
X9387200Y-44752380D01*
X9387200Y-44752380D02*
X9434819Y-44847618D01*
X9434819Y-44847618D02*
X9434819Y-44942856D01*
X9434819Y-44942856D02*
X9387200Y-45038094D01*
X9387200Y-45038094D02*
X9339580Y-45085713D01*
X9339580Y-45085713D02*
X9244342Y-45133332D01*
X9244342Y-45133332D02*
X9053866Y-45180951D01*
X9053866Y-45180951D02*
X8815771Y-45180951D01*
X8815771Y-45180951D02*
X8625295Y-45133332D01*
X8625295Y-45133332D02*
X8530057Y-45085713D01*
X8530057Y-45085713D02*
X8482438Y-45038094D01*
X8482438Y-45038094D02*
X8434819Y-44942856D01*
X8434819Y-43990475D02*
X8434819Y-43895237D01*
X8434819Y-43895237D02*
X8482438Y-43799999D01*
X8482438Y-43799999D02*
X8530057Y-43752380D01*
X8530057Y-43752380D02*
X8625295Y-43704761D01*
X8625295Y-43704761D02*
X8815771Y-43657142D01*
X8815771Y-43657142D02*
X9053866Y-43657142D01*
X9053866Y-43657142D02*
X9244342Y-43704761D01*
X9244342Y-43704761D02*
X9339580Y-43752380D01*
X9339580Y-43752380D02*
X9387200Y-43799999D01*
X9387200Y-43799999D02*
X9434819Y-43895237D01*
X9434819Y-43895237D02*
X9434819Y-43990475D01*
X9434819Y-43990475D02*
X9387200Y-44085713D01*
X9387200Y-44085713D02*
X9339580Y-44133332D01*
X9339580Y-44133332D02*
X9244342Y-44180951D01*
X9244342Y-44180951D02*
X9053866Y-44228570D01*
X9053866Y-44228570D02*
X8815771Y-44228570D01*
X8815771Y-44228570D02*
X8625295Y-44180951D01*
X8625295Y-44180951D02*
X8530057Y-44133332D01*
X8530057Y-44133332D02*
X8482438Y-44085713D01*
X8482438Y-44085713D02*
X8434819Y-43990475D01*
X8768152Y-42799999D02*
X9434819Y-42799999D01*
X8387200Y-43038094D02*
X9101485Y-43276189D01*
X9101485Y-43276189D02*
X9101485Y-42657142D01*
X40904819Y-30661904D02*
X41619104Y-30661904D01*
X41619104Y-30661904D02*
X41761961Y-30709523D01*
X41761961Y-30709523D02*
X41857200Y-30804761D01*
X41857200Y-30804761D02*
X41904819Y-30947618D01*
X41904819Y-30947618D02*
X41904819Y-31042856D01*
X41904819Y-29661904D02*
X41904819Y-30233332D01*
X41904819Y-29947618D02*
X40904819Y-29947618D01*
X40904819Y-29947618D02*
X41047676Y-30042856D01*
X41047676Y-30042856D02*
X41142914Y-30138094D01*
X41142914Y-30138094D02*
X41190533Y-30233332D01*
X40904819Y-29042856D02*
X40904819Y-28947618D01*
X40904819Y-28947618D02*
X40952438Y-28852380D01*
X40952438Y-28852380D02*
X41000057Y-28804761D01*
X41000057Y-28804761D02*
X41095295Y-28757142D01*
X41095295Y-28757142D02*
X41285771Y-28709523D01*
X41285771Y-28709523D02*
X41523866Y-28709523D01*
X41523866Y-28709523D02*
X41714342Y-28757142D01*
X41714342Y-28757142D02*
X41809580Y-28804761D01*
X41809580Y-28804761D02*
X41857200Y-28852380D01*
X41857200Y-28852380D02*
X41904819Y-28947618D01*
X41904819Y-28947618D02*
X41904819Y-29042856D01*
X41904819Y-29042856D02*
X41857200Y-29138094D01*
X41857200Y-29138094D02*
X41809580Y-29185713D01*
X41809580Y-29185713D02*
X41714342Y-29233332D01*
X41714342Y-29233332D02*
X41523866Y-29280951D01*
X41523866Y-29280951D02*
X41285771Y-29280951D01*
X41285771Y-29280951D02*
X41095295Y-29233332D01*
X41095295Y-29233332D02*
X41000057Y-29185713D01*
X41000057Y-29185713D02*
X40952438Y-29138094D01*
X40952438Y-29138094D02*
X40904819Y-29042856D01*
X40904819Y-28090475D02*
X40904819Y-27995237D01*
X40904819Y-27995237D02*
X40952438Y-27899999D01*
X40952438Y-27899999D02*
X41000057Y-27852380D01*
X41000057Y-27852380D02*
X41095295Y-27804761D01*
X41095295Y-27804761D02*
X41285771Y-27757142D01*
X41285771Y-27757142D02*
X41523866Y-27757142D01*
X41523866Y-27757142D02*
X41714342Y-27804761D01*
X41714342Y-27804761D02*
X41809580Y-27852380D01*
X41809580Y-27852380D02*
X41857200Y-27899999D01*
X41857200Y-27899999D02*
X41904819Y-27995237D01*
X41904819Y-27995237D02*
X41904819Y-28090475D01*
X41904819Y-28090475D02*
X41857200Y-28185713D01*
X41857200Y-28185713D02*
X41809580Y-28233332D01*
X41809580Y-28233332D02*
X41714342Y-28280951D01*
X41714342Y-28280951D02*
X41523866Y-28328570D01*
X41523866Y-28328570D02*
X41285771Y-28328570D01*
X41285771Y-28328570D02*
X41095295Y-28280951D01*
X41095295Y-28280951D02*
X41000057Y-28233332D01*
X41000057Y-28233332D02*
X40952438Y-28185713D01*
X40952438Y-28185713D02*
X40904819Y-28090475D01*
X41904819Y-26804761D02*
X41904819Y-27376189D01*
X41904819Y-27090475D02*
X40904819Y-27090475D01*
X40904819Y-27090475D02*
X41047676Y-27185713D01*
X41047676Y-27185713D02*
X41142914Y-27280951D01*
X41142914Y-27280951D02*
X41190533Y-27376189D01*
X35666666Y245180D02*
X35333333Y721371D01*
X35095238Y245180D02*
X35095238Y1245180D01*
X35095238Y1245180D02*
X35476190Y1245180D01*
X35476190Y1245180D02*
X35571428Y1197561D01*
X35571428Y1197561D02*
X35619047Y1149942D01*
X35619047Y1149942D02*
X35666666Y1054704D01*
X35666666Y1054704D02*
X35666666Y911847D01*
X35666666Y911847D02*
X35619047Y816609D01*
X35619047Y816609D02*
X35571428Y768990D01*
X35571428Y768990D02*
X35476190Y721371D01*
X35476190Y721371D02*
X35095238Y721371D01*
X36095238Y768990D02*
X36428571Y768990D01*
X36571428Y245180D02*
X36095238Y245180D01*
X36095238Y245180D02*
X36095238Y1245180D01*
X36095238Y1245180D02*
X36571428Y1245180D01*
X37333333Y768990D02*
X37000000Y768990D01*
X37000000Y245180D02*
X37000000Y1245180D01*
X37000000Y1245180D02*
X37476190Y1245180D01*
X38000000Y1245180D02*
X38000000Y1007085D01*
X37761905Y1102323D02*
X38000000Y1007085D01*
X38000000Y1007085D02*
X38238095Y1102323D01*
X37857143Y816609D02*
X38000000Y1007085D01*
X38000000Y1007085D02*
X38142857Y816609D01*
X38761905Y1245180D02*
X38761905Y1007085D01*
X38523810Y1102323D02*
X38761905Y1007085D01*
X38761905Y1007085D02*
X39000000Y1102323D01*
X38619048Y816609D02*
X38761905Y1007085D01*
X38761905Y1007085D02*
X38904762Y816609D01*
X39174819Y-17776666D02*
X38174819Y-17776666D01*
X38174819Y-17776666D02*
X38174819Y-17538571D01*
X38174819Y-17538571D02*
X38222438Y-17395714D01*
X38222438Y-17395714D02*
X38317676Y-17300476D01*
X38317676Y-17300476D02*
X38412914Y-17252857D01*
X38412914Y-17252857D02*
X38603390Y-17205238D01*
X38603390Y-17205238D02*
X38746247Y-17205238D01*
X38746247Y-17205238D02*
X38936723Y-17252857D01*
X38936723Y-17252857D02*
X39031961Y-17300476D01*
X39031961Y-17300476D02*
X39127200Y-17395714D01*
X39127200Y-17395714D02*
X39174819Y-17538571D01*
X39174819Y-17538571D02*
X39174819Y-17776666D01*
X39174819Y-16252857D02*
X39174819Y-16824285D01*
X39174819Y-16538571D02*
X38174819Y-16538571D01*
X38174819Y-16538571D02*
X38317676Y-16633809D01*
X38317676Y-16633809D02*
X38412914Y-16729047D01*
X38412914Y-16729047D02*
X38460533Y-16824285D01*
X38174819Y-15633809D02*
X38174819Y-15538571D01*
X38174819Y-15538571D02*
X38222438Y-15443333D01*
X38222438Y-15443333D02*
X38270057Y-15395714D01*
X38270057Y-15395714D02*
X38365295Y-15348095D01*
X38365295Y-15348095D02*
X38555771Y-15300476D01*
X38555771Y-15300476D02*
X38793866Y-15300476D01*
X38793866Y-15300476D02*
X38984342Y-15348095D01*
X38984342Y-15348095D02*
X39079580Y-15395714D01*
X39079580Y-15395714D02*
X39127200Y-15443333D01*
X39127200Y-15443333D02*
X39174819Y-15538571D01*
X39174819Y-15538571D02*
X39174819Y-15633809D01*
X39174819Y-15633809D02*
X39127200Y-15729047D01*
X39127200Y-15729047D02*
X39079580Y-15776666D01*
X39079580Y-15776666D02*
X38984342Y-15824285D01*
X38984342Y-15824285D02*
X38793866Y-15871904D01*
X38793866Y-15871904D02*
X38555771Y-15871904D01*
X38555771Y-15871904D02*
X38365295Y-15824285D01*
X38365295Y-15824285D02*
X38270057Y-15776666D01*
X38270057Y-15776666D02*
X38222438Y-15729047D01*
X38222438Y-15729047D02*
X38174819Y-15633809D01*
X38174819Y-14681428D02*
X38174819Y-14586190D01*
X38174819Y-14586190D02*
X38222438Y-14490952D01*
X38222438Y-14490952D02*
X38270057Y-14443333D01*
X38270057Y-14443333D02*
X38365295Y-14395714D01*
X38365295Y-14395714D02*
X38555771Y-14348095D01*
X38555771Y-14348095D02*
X38793866Y-14348095D01*
X38793866Y-14348095D02*
X38984342Y-14395714D01*
X38984342Y-14395714D02*
X39079580Y-14443333D01*
X39079580Y-14443333D02*
X39127200Y-14490952D01*
X39127200Y-14490952D02*
X39174819Y-14586190D01*
X39174819Y-14586190D02*
X39174819Y-14681428D01*
X39174819Y-14681428D02*
X39127200Y-14776666D01*
X39127200Y-14776666D02*
X39079580Y-14824285D01*
X39079580Y-14824285D02*
X38984342Y-14871904D01*
X38984342Y-14871904D02*
X38793866Y-14919523D01*
X38793866Y-14919523D02*
X38555771Y-14919523D01*
X38555771Y-14919523D02*
X38365295Y-14871904D01*
X38365295Y-14871904D02*
X38270057Y-14824285D01*
X38270057Y-14824285D02*
X38222438Y-14776666D01*
X38222438Y-14776666D02*
X38174819Y-14681428D01*
X39174819Y-13395714D02*
X39174819Y-13967142D01*
X39174819Y-13681428D02*
X38174819Y-13681428D01*
X38174819Y-13681428D02*
X38317676Y-13776666D01*
X38317676Y-13776666D02*
X38412914Y-13871904D01*
X38412914Y-13871904D02*
X38460533Y-13967142D01*
X38854819Y-12061904D02*
X37854819Y-12061904D01*
X38854819Y-11490476D02*
X38283390Y-11919047D01*
X37854819Y-11490476D02*
X38426247Y-12061904D01*
X10584524Y-34219819D02*
X10584524Y-35029342D01*
X10584524Y-35029342D02*
X10632143Y-35124580D01*
X10632143Y-35124580D02*
X10679762Y-35172200D01*
X10679762Y-35172200D02*
X10775000Y-35219819D01*
X10775000Y-35219819D02*
X10965476Y-35219819D01*
X10965476Y-35219819D02*
X11060714Y-35172200D01*
X11060714Y-35172200D02*
X11108333Y-35124580D01*
X11108333Y-35124580D02*
X11155952Y-35029342D01*
X11155952Y-35029342D02*
X11155952Y-34219819D01*
X12155952Y-35219819D02*
X11584524Y-35219819D01*
X11870238Y-35219819D02*
X11870238Y-34219819D01*
X11870238Y-34219819D02*
X11775000Y-34362676D01*
X11775000Y-34362676D02*
X11679762Y-34457914D01*
X11679762Y-34457914D02*
X11584524Y-34505533D01*
X12775000Y-34219819D02*
X12870238Y-34219819D01*
X12870238Y-34219819D02*
X12965476Y-34267438D01*
X12965476Y-34267438D02*
X13013095Y-34315057D01*
X13013095Y-34315057D02*
X13060714Y-34410295D01*
X13060714Y-34410295D02*
X13108333Y-34600771D01*
X13108333Y-34600771D02*
X13108333Y-34838866D01*
X13108333Y-34838866D02*
X13060714Y-35029342D01*
X13060714Y-35029342D02*
X13013095Y-35124580D01*
X13013095Y-35124580D02*
X12965476Y-35172200D01*
X12965476Y-35172200D02*
X12870238Y-35219819D01*
X12870238Y-35219819D02*
X12775000Y-35219819D01*
X12775000Y-35219819D02*
X12679762Y-35172200D01*
X12679762Y-35172200D02*
X12632143Y-35124580D01*
X12632143Y-35124580D02*
X12584524Y-35029342D01*
X12584524Y-35029342D02*
X12536905Y-34838866D01*
X12536905Y-34838866D02*
X12536905Y-34600771D01*
X12536905Y-34600771D02*
X12584524Y-34410295D01*
X12584524Y-34410295D02*
X12632143Y-34315057D01*
X12632143Y-34315057D02*
X12679762Y-34267438D01*
X12679762Y-34267438D02*
X12775000Y-34219819D01*
X13727381Y-34219819D02*
X13822619Y-34219819D01*
X13822619Y-34219819D02*
X13917857Y-34267438D01*
X13917857Y-34267438D02*
X13965476Y-34315057D01*
X13965476Y-34315057D02*
X14013095Y-34410295D01*
X14013095Y-34410295D02*
X14060714Y-34600771D01*
X14060714Y-34600771D02*
X14060714Y-34838866D01*
X14060714Y-34838866D02*
X14013095Y-35029342D01*
X14013095Y-35029342D02*
X13965476Y-35124580D01*
X13965476Y-35124580D02*
X13917857Y-35172200D01*
X13917857Y-35172200D02*
X13822619Y-35219819D01*
X13822619Y-35219819D02*
X13727381Y-35219819D01*
X13727381Y-35219819D02*
X13632143Y-35172200D01*
X13632143Y-35172200D02*
X13584524Y-35124580D01*
X13584524Y-35124580D02*
X13536905Y-35029342D01*
X13536905Y-35029342D02*
X13489286Y-34838866D01*
X13489286Y-34838866D02*
X13489286Y-34600771D01*
X13489286Y-34600771D02*
X13536905Y-34410295D01*
X13536905Y-34410295D02*
X13584524Y-34315057D01*
X13584524Y-34315057D02*
X13632143Y-34267438D01*
X13632143Y-34267438D02*
X13727381Y-34219819D01*
X15013095Y-35219819D02*
X14441667Y-35219819D01*
X14727381Y-35219819D02*
X14727381Y-34219819D01*
X14727381Y-34219819D02*
X14632143Y-34362676D01*
X14632143Y-34362676D02*
X14536905Y-34457914D01*
X14536905Y-34457914D02*
X14441667Y-34505533D01*
X-65180Y-12608166D02*
X-1065180Y-12608166D01*
X-1065180Y-12608166D02*
X-1065180Y-12370071D01*
X-1065180Y-12370071D02*
X-1017561Y-12227214D01*
X-1017561Y-12227214D02*
X-922323Y-12131976D01*
X-922323Y-12131976D02*
X-827085Y-12084357D01*
X-827085Y-12084357D02*
X-636609Y-12036738D01*
X-636609Y-12036738D02*
X-493752Y-12036738D01*
X-493752Y-12036738D02*
X-303276Y-12084357D01*
X-303276Y-12084357D02*
X-208038Y-12131976D01*
X-208038Y-12131976D02*
X-112800Y-12227214D01*
X-112800Y-12227214D02*
X-65180Y-12370071D01*
X-65180Y-12370071D02*
X-65180Y-12608166D01*
X-65180Y-11084357D02*
X-65180Y-11655785D01*
X-65180Y-11370071D02*
X-1065180Y-11370071D01*
X-1065180Y-11370071D02*
X-922323Y-11465309D01*
X-922323Y-11465309D02*
X-827085Y-11560547D01*
X-827085Y-11560547D02*
X-779466Y-11655785D01*
X-1065180Y-10465309D02*
X-1065180Y-10370071D01*
X-1065180Y-10370071D02*
X-1017561Y-10274833D01*
X-1017561Y-10274833D02*
X-969942Y-10227214D01*
X-969942Y-10227214D02*
X-874704Y-10179595D01*
X-874704Y-10179595D02*
X-684228Y-10131976D01*
X-684228Y-10131976D02*
X-446133Y-10131976D01*
X-446133Y-10131976D02*
X-255657Y-10179595D01*
X-255657Y-10179595D02*
X-160419Y-10227214D01*
X-160419Y-10227214D02*
X-112800Y-10274833D01*
X-112800Y-10274833D02*
X-65180Y-10370071D01*
X-65180Y-10370071D02*
X-65180Y-10465309D01*
X-65180Y-10465309D02*
X-112800Y-10560547D01*
X-112800Y-10560547D02*
X-160419Y-10608166D01*
X-160419Y-10608166D02*
X-255657Y-10655785D01*
X-255657Y-10655785D02*
X-446133Y-10703404D01*
X-446133Y-10703404D02*
X-684228Y-10703404D01*
X-684228Y-10703404D02*
X-874704Y-10655785D01*
X-874704Y-10655785D02*
X-969942Y-10608166D01*
X-969942Y-10608166D02*
X-1017561Y-10560547D01*
X-1017561Y-10560547D02*
X-1065180Y-10465309D01*
X-1065180Y-9512928D02*
X-1065180Y-9417690D01*
X-1065180Y-9417690D02*
X-1017561Y-9322452D01*
X-1017561Y-9322452D02*
X-969942Y-9274833D01*
X-969942Y-9274833D02*
X-874704Y-9227214D01*
X-874704Y-9227214D02*
X-684228Y-9179595D01*
X-684228Y-9179595D02*
X-446133Y-9179595D01*
X-446133Y-9179595D02*
X-255657Y-9227214D01*
X-255657Y-9227214D02*
X-160419Y-9274833D01*
X-160419Y-9274833D02*
X-112800Y-9322452D01*
X-112800Y-9322452D02*
X-65180Y-9417690D01*
X-65180Y-9417690D02*
X-65180Y-9512928D01*
X-65180Y-9512928D02*
X-112800Y-9608166D01*
X-112800Y-9608166D02*
X-160419Y-9655785D01*
X-160419Y-9655785D02*
X-255657Y-9703404D01*
X-255657Y-9703404D02*
X-446133Y-9751023D01*
X-446133Y-9751023D02*
X-684228Y-9751023D01*
X-684228Y-9751023D02*
X-874704Y-9703404D01*
X-874704Y-9703404D02*
X-969942Y-9655785D01*
X-969942Y-9655785D02*
X-1017561Y-9608166D01*
X-1017561Y-9608166D02*
X-1065180Y-9512928D01*
X-1065180Y-8846261D02*
X-1065180Y-8227214D01*
X-1065180Y-8227214D02*
X-684228Y-8560547D01*
X-684228Y-8560547D02*
X-684228Y-8417690D01*
X-684228Y-8417690D02*
X-636609Y-8322452D01*
X-636609Y-8322452D02*
X-588990Y-8274833D01*
X-588990Y-8274833D02*
X-493752Y-8227214D01*
X-493752Y-8227214D02*
X-255657Y-8227214D01*
X-255657Y-8227214D02*
X-160419Y-8274833D01*
X-160419Y-8274833D02*
X-112800Y-8322452D01*
X-112800Y-8322452D02*
X-65180Y-8417690D01*
X-65180Y-8417690D02*
X-65180Y-8703404D01*
X-65180Y-8703404D02*
X-112800Y-8798642D01*
X-112800Y-8798642D02*
X-160419Y-8846261D01*
X1666666Y245180D02*
X1333333Y721371D01*
X1095238Y245180D02*
X1095238Y1245180D01*
X1095238Y1245180D02*
X1476190Y1245180D01*
X1476190Y1245180D02*
X1571428Y1197561D01*
X1571428Y1197561D02*
X1619047Y1149942D01*
X1619047Y1149942D02*
X1666666Y1054704D01*
X1666666Y1054704D02*
X1666666Y911847D01*
X1666666Y911847D02*
X1619047Y816609D01*
X1619047Y816609D02*
X1571428Y768990D01*
X1571428Y768990D02*
X1476190Y721371D01*
X1476190Y721371D02*
X1095238Y721371D01*
X2095238Y768990D02*
X2428571Y768990D01*
X2571428Y245180D02*
X2095238Y245180D01*
X2095238Y245180D02*
X2095238Y1245180D01*
X2095238Y1245180D02*
X2571428Y1245180D01*
X3333333Y768990D02*
X3000000Y768990D01*
X3000000Y245180D02*
X3000000Y1245180D01*
X3000000Y1245180D02*
X3476190Y1245180D01*
X4000000Y1245180D02*
X4000000Y1007085D01*
X3761905Y1102323D02*
X4000000Y1007085D01*
X4000000Y1007085D02*
X4238095Y1102323D01*
X3857143Y816609D02*
X4000000Y1007085D01*
X4000000Y1007085D02*
X4142857Y816609D01*
X4761905Y1245180D02*
X4761905Y1007085D01*
X4523810Y1102323D02*
X4761905Y1007085D01*
X4761905Y1007085D02*
X5000000Y1102323D01*
X4619048Y816609D02*
X4761905Y1007085D01*
X4761905Y1007085D02*
X4904762Y816609D01*
X1666666Y-53754819D02*
X1333333Y-53278628D01*
X1095238Y-53754819D02*
X1095238Y-52754819D01*
X1095238Y-52754819D02*
X1476190Y-52754819D01*
X1476190Y-52754819D02*
X1571428Y-52802438D01*
X1571428Y-52802438D02*
X1619047Y-52850057D01*
X1619047Y-52850057D02*
X1666666Y-52945295D01*
X1666666Y-52945295D02*
X1666666Y-53088152D01*
X1666666Y-53088152D02*
X1619047Y-53183390D01*
X1619047Y-53183390D02*
X1571428Y-53231009D01*
X1571428Y-53231009D02*
X1476190Y-53278628D01*
X1476190Y-53278628D02*
X1095238Y-53278628D01*
X2095238Y-53231009D02*
X2428571Y-53231009D01*
X2571428Y-53754819D02*
X2095238Y-53754819D01*
X2095238Y-53754819D02*
X2095238Y-52754819D01*
X2095238Y-52754819D02*
X2571428Y-52754819D01*
X3333333Y-53231009D02*
X3000000Y-53231009D01*
X3000000Y-53754819D02*
X3000000Y-52754819D01*
X3000000Y-52754819D02*
X3476190Y-52754819D01*
X4000000Y-52754819D02*
X4000000Y-52992914D01*
X3761905Y-52897676D02*
X4000000Y-52992914D01*
X4000000Y-52992914D02*
X4238095Y-52897676D01*
X3857143Y-53183390D02*
X4000000Y-52992914D01*
X4000000Y-52992914D02*
X4142857Y-53183390D01*
X4761905Y-52754819D02*
X4761905Y-52992914D01*
X4523810Y-52897676D02*
X4761905Y-52992914D01*
X4761905Y-52992914D02*
X5000000Y-52897676D01*
X4619048Y-53183390D02*
X4761905Y-52992914D01*
X4761905Y-52992914D02*
X4904762Y-53183390D01*
X8054761Y-32959580D02*
X8007142Y-33007200D01*
X8007142Y-33007200D02*
X7864285Y-33054819D01*
X7864285Y-33054819D02*
X7769047Y-33054819D01*
X7769047Y-33054819D02*
X7626190Y-33007200D01*
X7626190Y-33007200D02*
X7530952Y-32911961D01*
X7530952Y-32911961D02*
X7483333Y-32816723D01*
X7483333Y-32816723D02*
X7435714Y-32626247D01*
X7435714Y-32626247D02*
X7435714Y-32483390D01*
X7435714Y-32483390D02*
X7483333Y-32292914D01*
X7483333Y-32292914D02*
X7530952Y-32197676D01*
X7530952Y-32197676D02*
X7626190Y-32102438D01*
X7626190Y-32102438D02*
X7769047Y-32054819D01*
X7769047Y-32054819D02*
X7864285Y-32054819D01*
X7864285Y-32054819D02*
X8007142Y-32102438D01*
X8007142Y-32102438D02*
X8054761Y-32150057D01*
X9007142Y-33054819D02*
X8435714Y-33054819D01*
X8721428Y-33054819D02*
X8721428Y-32054819D01*
X8721428Y-32054819D02*
X8626190Y-32197676D01*
X8626190Y-32197676D02*
X8530952Y-32292914D01*
X8530952Y-32292914D02*
X8435714Y-32340533D01*
X9626190Y-32054819D02*
X9721428Y-32054819D01*
X9721428Y-32054819D02*
X9816666Y-32102438D01*
X9816666Y-32102438D02*
X9864285Y-32150057D01*
X9864285Y-32150057D02*
X9911904Y-32245295D01*
X9911904Y-32245295D02*
X9959523Y-32435771D01*
X9959523Y-32435771D02*
X9959523Y-32673866D01*
X9959523Y-32673866D02*
X9911904Y-32864342D01*
X9911904Y-32864342D02*
X9864285Y-32959580D01*
X9864285Y-32959580D02*
X9816666Y-33007200D01*
X9816666Y-33007200D02*
X9721428Y-33054819D01*
X9721428Y-33054819D02*
X9626190Y-33054819D01*
X9626190Y-33054819D02*
X9530952Y-33007200D01*
X9530952Y-33007200D02*
X9483333Y-32959580D01*
X9483333Y-32959580D02*
X9435714Y-32864342D01*
X9435714Y-32864342D02*
X9388095Y-32673866D01*
X9388095Y-32673866D02*
X9388095Y-32435771D01*
X9388095Y-32435771D02*
X9435714Y-32245295D01*
X9435714Y-32245295D02*
X9483333Y-32150057D01*
X9483333Y-32150057D02*
X9530952Y-32102438D01*
X9530952Y-32102438D02*
X9626190Y-32054819D01*
X10578571Y-32054819D02*
X10673809Y-32054819D01*
X10673809Y-32054819D02*
X10769047Y-32102438D01*
X10769047Y-32102438D02*
X10816666Y-32150057D01*
X10816666Y-32150057D02*
X10864285Y-32245295D01*
X10864285Y-32245295D02*
X10911904Y-32435771D01*
X10911904Y-32435771D02*
X10911904Y-32673866D01*
X10911904Y-32673866D02*
X10864285Y-32864342D01*
X10864285Y-32864342D02*
X10816666Y-32959580D01*
X10816666Y-32959580D02*
X10769047Y-33007200D01*
X10769047Y-33007200D02*
X10673809Y-33054819D01*
X10673809Y-33054819D02*
X10578571Y-33054819D01*
X10578571Y-33054819D02*
X10483333Y-33007200D01*
X10483333Y-33007200D02*
X10435714Y-32959580D01*
X10435714Y-32959580D02*
X10388095Y-32864342D01*
X10388095Y-32864342D02*
X10340476Y-32673866D01*
X10340476Y-32673866D02*
X10340476Y-32435771D01*
X10340476Y-32435771D02*
X10388095Y-32245295D01*
X10388095Y-32245295D02*
X10435714Y-32150057D01*
X10435714Y-32150057D02*
X10483333Y-32102438D01*
X10483333Y-32102438D02*
X10578571Y-32054819D01*
X11864285Y-33054819D02*
X11292857Y-33054819D01*
X11578571Y-33054819D02*
X11578571Y-32054819D01*
X11578571Y-32054819D02*
X11483333Y-32197676D01*
X11483333Y-32197676D02*
X11388095Y-32292914D01*
X11388095Y-32292914D02*
X11292857Y-32340533D01*
X35666666Y-53754819D02*
X35333333Y-53278628D01*
X35095238Y-53754819D02*
X35095238Y-52754819D01*
X35095238Y-52754819D02*
X35476190Y-52754819D01*
X35476190Y-52754819D02*
X35571428Y-52802438D01*
X35571428Y-52802438D02*
X35619047Y-52850057D01*
X35619047Y-52850057D02*
X35666666Y-52945295D01*
X35666666Y-52945295D02*
X35666666Y-53088152D01*
X35666666Y-53088152D02*
X35619047Y-53183390D01*
X35619047Y-53183390D02*
X35571428Y-53231009D01*
X35571428Y-53231009D02*
X35476190Y-53278628D01*
X35476190Y-53278628D02*
X35095238Y-53278628D01*
X36095238Y-53231009D02*
X36428571Y-53231009D01*
X36571428Y-53754819D02*
X36095238Y-53754819D01*
X36095238Y-53754819D02*
X36095238Y-52754819D01*
X36095238Y-52754819D02*
X36571428Y-52754819D01*
X37333333Y-53231009D02*
X37000000Y-53231009D01*
X37000000Y-53754819D02*
X37000000Y-52754819D01*
X37000000Y-52754819D02*
X37476190Y-52754819D01*
X38000000Y-52754819D02*
X38000000Y-52992914D01*
X37761905Y-52897676D02*
X38000000Y-52992914D01*
X38000000Y-52992914D02*
X38238095Y-52897676D01*
X37857143Y-53183390D02*
X38000000Y-52992914D01*
X38000000Y-52992914D02*
X38142857Y-53183390D01*
X38761905Y-52754819D02*
X38761905Y-52992914D01*
X38523810Y-52897676D02*
X38761905Y-52992914D01*
X38761905Y-52992914D02*
X39000000Y-52897676D01*
X38619048Y-53183390D02*
X38761905Y-52992914D01*
X38761905Y-52992914D02*
X38904762Y-53183390D01*
X30474819Y-46561904D02*
X31189104Y-46561904D01*
X31189104Y-46561904D02*
X31331961Y-46609523D01*
X31331961Y-46609523D02*
X31427200Y-46704761D01*
X31427200Y-46704761D02*
X31474819Y-46847618D01*
X31474819Y-46847618D02*
X31474819Y-46942856D01*
X31474819Y-45561904D02*
X31474819Y-46133332D01*
X31474819Y-45847618D02*
X30474819Y-45847618D01*
X30474819Y-45847618D02*
X30617676Y-45942856D01*
X30617676Y-45942856D02*
X30712914Y-46038094D01*
X30712914Y-46038094D02*
X30760533Y-46133332D01*
X30474819Y-44942856D02*
X30474819Y-44847618D01*
X30474819Y-44847618D02*
X30522438Y-44752380D01*
X30522438Y-44752380D02*
X30570057Y-44704761D01*
X30570057Y-44704761D02*
X30665295Y-44657142D01*
X30665295Y-44657142D02*
X30855771Y-44609523D01*
X30855771Y-44609523D02*
X31093866Y-44609523D01*
X31093866Y-44609523D02*
X31284342Y-44657142D01*
X31284342Y-44657142D02*
X31379580Y-44704761D01*
X31379580Y-44704761D02*
X31427200Y-44752380D01*
X31427200Y-44752380D02*
X31474819Y-44847618D01*
X31474819Y-44847618D02*
X31474819Y-44942856D01*
X31474819Y-44942856D02*
X31427200Y-45038094D01*
X31427200Y-45038094D02*
X31379580Y-45085713D01*
X31379580Y-45085713D02*
X31284342Y-45133332D01*
X31284342Y-45133332D02*
X31093866Y-45180951D01*
X31093866Y-45180951D02*
X30855771Y-45180951D01*
X30855771Y-45180951D02*
X30665295Y-45133332D01*
X30665295Y-45133332D02*
X30570057Y-45085713D01*
X30570057Y-45085713D02*
X30522438Y-45038094D01*
X30522438Y-45038094D02*
X30474819Y-44942856D01*
X30474819Y-43990475D02*
X30474819Y-43895237D01*
X30474819Y-43895237D02*
X30522438Y-43799999D01*
X30522438Y-43799999D02*
X30570057Y-43752380D01*
X30570057Y-43752380D02*
X30665295Y-43704761D01*
X30665295Y-43704761D02*
X30855771Y-43657142D01*
X30855771Y-43657142D02*
X31093866Y-43657142D01*
X31093866Y-43657142D02*
X31284342Y-43704761D01*
X31284342Y-43704761D02*
X31379580Y-43752380D01*
X31379580Y-43752380D02*
X31427200Y-43799999D01*
X31427200Y-43799999D02*
X31474819Y-43895237D01*
X31474819Y-43895237D02*
X31474819Y-43990475D01*
X31474819Y-43990475D02*
X31427200Y-44085713D01*
X31427200Y-44085713D02*
X31379580Y-44133332D01*
X31379580Y-44133332D02*
X31284342Y-44180951D01*
X31284342Y-44180951D02*
X31093866Y-44228570D01*
X31093866Y-44228570D02*
X30855771Y-44228570D01*
X30855771Y-44228570D02*
X30665295Y-44180951D01*
X30665295Y-44180951D02*
X30570057Y-44133332D01*
X30570057Y-44133332D02*
X30522438Y-44085713D01*
X30522438Y-44085713D02*
X30474819Y-43990475D01*
X30474819Y-43323808D02*
X30474819Y-42704761D01*
X30474819Y-42704761D02*
X30855771Y-43038094D01*
X30855771Y-43038094D02*
X30855771Y-42895237D01*
X30855771Y-42895237D02*
X30903390Y-42799999D01*
X30903390Y-42799999D02*
X30951009Y-42752380D01*
X30951009Y-42752380D02*
X31046247Y-42704761D01*
X31046247Y-42704761D02*
X31284342Y-42704761D01*
X31284342Y-42704761D02*
X31379580Y-42752380D01*
X31379580Y-42752380D02*
X31427200Y-42799999D01*
X31427200Y-42799999D02*
X31474819Y-42895237D01*
X31474819Y-42895237D02*
X31474819Y-43180951D01*
X31474819Y-43180951D02*
X31427200Y-43276189D01*
X31427200Y-43276189D02*
X31379580Y-43323808D01*
X35183333Y-6059580D02*
X35135714Y-6107200D01*
X35135714Y-6107200D02*
X34992857Y-6154819D01*
X34992857Y-6154819D02*
X34897619Y-6154819D01*
X34897619Y-6154819D02*
X34754762Y-6107200D01*
X34754762Y-6107200D02*
X34659524Y-6011961D01*
X34659524Y-6011961D02*
X34611905Y-5916723D01*
X34611905Y-5916723D02*
X34564286Y-5726247D01*
X34564286Y-5726247D02*
X34564286Y-5583390D01*
X34564286Y-5583390D02*
X34611905Y-5392914D01*
X34611905Y-5392914D02*
X34659524Y-5297676D01*
X34659524Y-5297676D02*
X34754762Y-5202438D01*
X34754762Y-5202438D02*
X34897619Y-5154819D01*
X34897619Y-5154819D02*
X34992857Y-5154819D01*
X34992857Y-5154819D02*
X35135714Y-5202438D01*
X35135714Y-5202438D02*
X35183333Y-5250057D01*
X36135714Y-6154819D02*
X35564286Y-6154819D01*
X35850000Y-6154819D02*
X35850000Y-5154819D01*
X35850000Y-5154819D02*
X35754762Y-5297676D01*
X35754762Y-5297676D02*
X35659524Y-5392914D01*
X35659524Y-5392914D02*
X35564286Y-5440533D01*
X3638095Y-14724819D02*
X3638095Y-15439104D01*
X3638095Y-15439104D02*
X3590476Y-15581961D01*
X3590476Y-15581961D02*
X3495238Y-15677200D01*
X3495238Y-15677200D02*
X3352381Y-15724819D01*
X3352381Y-15724819D02*
X3257143Y-15724819D01*
X4638095Y-15724819D02*
X4066667Y-15724819D01*
X4352381Y-15724819D02*
X4352381Y-14724819D01*
X4352381Y-14724819D02*
X4257143Y-14867676D01*
X4257143Y-14867676D02*
X4161905Y-14962914D01*
X4161905Y-14962914D02*
X4066667Y-15010533D01*
X5257143Y-14724819D02*
X5352381Y-14724819D01*
X5352381Y-14724819D02*
X5447619Y-14772438D01*
X5447619Y-14772438D02*
X5495238Y-14820057D01*
X5495238Y-14820057D02*
X5542857Y-14915295D01*
X5542857Y-14915295D02*
X5590476Y-15105771D01*
X5590476Y-15105771D02*
X5590476Y-15343866D01*
X5590476Y-15343866D02*
X5542857Y-15534342D01*
X5542857Y-15534342D02*
X5495238Y-15629580D01*
X5495238Y-15629580D02*
X5447619Y-15677200D01*
X5447619Y-15677200D02*
X5352381Y-15724819D01*
X5352381Y-15724819D02*
X5257143Y-15724819D01*
X5257143Y-15724819D02*
X5161905Y-15677200D01*
X5161905Y-15677200D02*
X5114286Y-15629580D01*
X5114286Y-15629580D02*
X5066667Y-15534342D01*
X5066667Y-15534342D02*
X5019048Y-15343866D01*
X5019048Y-15343866D02*
X5019048Y-15105771D01*
X5019048Y-15105771D02*
X5066667Y-14915295D01*
X5066667Y-14915295D02*
X5114286Y-14820057D01*
X5114286Y-14820057D02*
X5161905Y-14772438D01*
X5161905Y-14772438D02*
X5257143Y-14724819D01*
X6209524Y-14724819D02*
X6304762Y-14724819D01*
X6304762Y-14724819D02*
X6400000Y-14772438D01*
X6400000Y-14772438D02*
X6447619Y-14820057D01*
X6447619Y-14820057D02*
X6495238Y-14915295D01*
X6495238Y-14915295D02*
X6542857Y-15105771D01*
X6542857Y-15105771D02*
X6542857Y-15343866D01*
X6542857Y-15343866D02*
X6495238Y-15534342D01*
X6495238Y-15534342D02*
X6447619Y-15629580D01*
X6447619Y-15629580D02*
X6400000Y-15677200D01*
X6400000Y-15677200D02*
X6304762Y-15724819D01*
X6304762Y-15724819D02*
X6209524Y-15724819D01*
X6209524Y-15724819D02*
X6114286Y-15677200D01*
X6114286Y-15677200D02*
X6066667Y-15629580D01*
X6066667Y-15629580D02*
X6019048Y-15534342D01*
X6019048Y-15534342D02*
X5971429Y-15343866D01*
X5971429Y-15343866D02*
X5971429Y-15105771D01*
X5971429Y-15105771D02*
X6019048Y-14915295D01*
X6019048Y-14915295D02*
X6066667Y-14820057D01*
X6066667Y-14820057D02*
X6114286Y-14772438D01*
X6114286Y-14772438D02*
X6209524Y-14724819D01*
X6923810Y-14820057D02*
X6971429Y-14772438D01*
X6971429Y-14772438D02*
X7066667Y-14724819D01*
X7066667Y-14724819D02*
X7304762Y-14724819D01*
X7304762Y-14724819D02*
X7400000Y-14772438D01*
X7400000Y-14772438D02*
X7447619Y-14820057D01*
X7447619Y-14820057D02*
X7495238Y-14915295D01*
X7495238Y-14915295D02*
X7495238Y-15010533D01*
X7495238Y-15010533D02*
X7447619Y-15153390D01*
X7447619Y-15153390D02*
X6876191Y-15724819D01*
X6876191Y-15724819D02*
X7495238Y-15724819D01*
X238095Y-37139819D02*
X238095Y-37854104D01*
X238095Y-37854104D02*
X190476Y-37996961D01*
X190476Y-37996961D02*
X95238Y-38092200D01*
X95238Y-38092200D02*
X-47618Y-38139819D01*
X-47618Y-38139819D02*
X-142856Y-38139819D01*
X1238095Y-38139819D02*
X666667Y-38139819D01*
X952381Y-38139819D02*
X952381Y-37139819D01*
X952381Y-37139819D02*
X857143Y-37282676D01*
X857143Y-37282676D02*
X761905Y-37377914D01*
X761905Y-37377914D02*
X666667Y-37425533D01*
X1857143Y-37139819D02*
X1952381Y-37139819D01*
X1952381Y-37139819D02*
X2047619Y-37187438D01*
X2047619Y-37187438D02*
X2095238Y-37235057D01*
X2095238Y-37235057D02*
X2142857Y-37330295D01*
X2142857Y-37330295D02*
X2190476Y-37520771D01*
X2190476Y-37520771D02*
X2190476Y-37758866D01*
X2190476Y-37758866D02*
X2142857Y-37949342D01*
X2142857Y-37949342D02*
X2095238Y-38044580D01*
X2095238Y-38044580D02*
X2047619Y-38092200D01*
X2047619Y-38092200D02*
X1952381Y-38139819D01*
X1952381Y-38139819D02*
X1857143Y-38139819D01*
X1857143Y-38139819D02*
X1761905Y-38092200D01*
X1761905Y-38092200D02*
X1714286Y-38044580D01*
X1714286Y-38044580D02*
X1666667Y-37949342D01*
X1666667Y-37949342D02*
X1619048Y-37758866D01*
X1619048Y-37758866D02*
X1619048Y-37520771D01*
X1619048Y-37520771D02*
X1666667Y-37330295D01*
X1666667Y-37330295D02*
X1714286Y-37235057D01*
X1714286Y-37235057D02*
X1761905Y-37187438D01*
X1761905Y-37187438D02*
X1857143Y-37139819D01*
X2809524Y-37139819D02*
X2904762Y-37139819D01*
X2904762Y-37139819D02*
X3000000Y-37187438D01*
X3000000Y-37187438D02*
X3047619Y-37235057D01*
X3047619Y-37235057D02*
X3095238Y-37330295D01*
X3095238Y-37330295D02*
X3142857Y-37520771D01*
X3142857Y-37520771D02*
X3142857Y-37758866D01*
X3142857Y-37758866D02*
X3095238Y-37949342D01*
X3095238Y-37949342D02*
X3047619Y-38044580D01*
X3047619Y-38044580D02*
X3000000Y-38092200D01*
X3000000Y-38092200D02*
X2904762Y-38139819D01*
X2904762Y-38139819D02*
X2809524Y-38139819D01*
X2809524Y-38139819D02*
X2714286Y-38092200D01*
X2714286Y-38092200D02*
X2666667Y-38044580D01*
X2666667Y-38044580D02*
X2619048Y-37949342D01*
X2619048Y-37949342D02*
X2571429Y-37758866D01*
X2571429Y-37758866D02*
X2571429Y-37520771D01*
X2571429Y-37520771D02*
X2619048Y-37330295D01*
X2619048Y-37330295D02*
X2666667Y-37235057D01*
X2666667Y-37235057D02*
X2714286Y-37187438D01*
X2714286Y-37187438D02*
X2809524Y-37139819D01*
X4000000Y-37139819D02*
X3809524Y-37139819D01*
X3809524Y-37139819D02*
X3714286Y-37187438D01*
X3714286Y-37187438D02*
X3666667Y-37235057D01*
X3666667Y-37235057D02*
X3571429Y-37377914D01*
X3571429Y-37377914D02*
X3523810Y-37568390D01*
X3523810Y-37568390D02*
X3523810Y-37949342D01*
X3523810Y-37949342D02*
X3571429Y-38044580D01*
X3571429Y-38044580D02*
X3619048Y-38092200D01*
X3619048Y-38092200D02*
X3714286Y-38139819D01*
X3714286Y-38139819D02*
X3904762Y-38139819D01*
X3904762Y-38139819D02*
X4000000Y-38092200D01*
X4000000Y-38092200D02*
X4047619Y-38044580D01*
X4047619Y-38044580D02*
X4095238Y-37949342D01*
X4095238Y-37949342D02*
X4095238Y-37711247D01*
X4095238Y-37711247D02*
X4047619Y-37616009D01*
X4047619Y-37616009D02*
X4000000Y-37568390D01*
X4000000Y-37568390D02*
X3904762Y-37520771D01*
X3904762Y-37520771D02*
X3714286Y-37520771D01*
X3714286Y-37520771D02*
X3619048Y-37568390D01*
X3619048Y-37568390D02*
X3571429Y-37616009D01*
X3571429Y-37616009D02*
X3523810Y-37711247D01*
X39464819Y-37761904D02*
X40179104Y-37761904D01*
X40179104Y-37761904D02*
X40321961Y-37809523D01*
X40321961Y-37809523D02*
X40417200Y-37904761D01*
X40417200Y-37904761D02*
X40464819Y-38047618D01*
X40464819Y-38047618D02*
X40464819Y-38142856D01*
X40464819Y-36761904D02*
X40464819Y-37333332D01*
X40464819Y-37047618D02*
X39464819Y-37047618D01*
X39464819Y-37047618D02*
X39607676Y-37142856D01*
X39607676Y-37142856D02*
X39702914Y-37238094D01*
X39702914Y-37238094D02*
X39750533Y-37333332D01*
X39464819Y-36142856D02*
X39464819Y-36047618D01*
X39464819Y-36047618D02*
X39512438Y-35952380D01*
X39512438Y-35952380D02*
X39560057Y-35904761D01*
X39560057Y-35904761D02*
X39655295Y-35857142D01*
X39655295Y-35857142D02*
X39845771Y-35809523D01*
X39845771Y-35809523D02*
X40083866Y-35809523D01*
X40083866Y-35809523D02*
X40274342Y-35857142D01*
X40274342Y-35857142D02*
X40369580Y-35904761D01*
X40369580Y-35904761D02*
X40417200Y-35952380D01*
X40417200Y-35952380D02*
X40464819Y-36047618D01*
X40464819Y-36047618D02*
X40464819Y-36142856D01*
X40464819Y-36142856D02*
X40417200Y-36238094D01*
X40417200Y-36238094D02*
X40369580Y-36285713D01*
X40369580Y-36285713D02*
X40274342Y-36333332D01*
X40274342Y-36333332D02*
X40083866Y-36380951D01*
X40083866Y-36380951D02*
X39845771Y-36380951D01*
X39845771Y-36380951D02*
X39655295Y-36333332D01*
X39655295Y-36333332D02*
X39560057Y-36285713D01*
X39560057Y-36285713D02*
X39512438Y-36238094D01*
X39512438Y-36238094D02*
X39464819Y-36142856D01*
X39464819Y-35190475D02*
X39464819Y-35095237D01*
X39464819Y-35095237D02*
X39512438Y-34999999D01*
X39512438Y-34999999D02*
X39560057Y-34952380D01*
X39560057Y-34952380D02*
X39655295Y-34904761D01*
X39655295Y-34904761D02*
X39845771Y-34857142D01*
X39845771Y-34857142D02*
X40083866Y-34857142D01*
X40083866Y-34857142D02*
X40274342Y-34904761D01*
X40274342Y-34904761D02*
X40369580Y-34952380D01*
X40369580Y-34952380D02*
X40417200Y-34999999D01*
X40417200Y-34999999D02*
X40464819Y-35095237D01*
X40464819Y-35095237D02*
X40464819Y-35190475D01*
X40464819Y-35190475D02*
X40417200Y-35285713D01*
X40417200Y-35285713D02*
X40369580Y-35333332D01*
X40369580Y-35333332D02*
X40274342Y-35380951D01*
X40274342Y-35380951D02*
X40083866Y-35428570D01*
X40083866Y-35428570D02*
X39845771Y-35428570D01*
X39845771Y-35428570D02*
X39655295Y-35380951D01*
X39655295Y-35380951D02*
X39560057Y-35333332D01*
X39560057Y-35333332D02*
X39512438Y-35285713D01*
X39512438Y-35285713D02*
X39464819Y-35190475D01*
X39464819Y-33952380D02*
X39464819Y-34428570D01*
X39464819Y-34428570D02*
X39941009Y-34476189D01*
X39941009Y-34476189D02*
X39893390Y-34428570D01*
X39893390Y-34428570D02*
X39845771Y-34333332D01*
X39845771Y-34333332D02*
X39845771Y-34095237D01*
X39845771Y-34095237D02*
X39893390Y-33999999D01*
X39893390Y-33999999D02*
X39941009Y-33952380D01*
X39941009Y-33952380D02*
X40036247Y-33904761D01*
X40036247Y-33904761D02*
X40274342Y-33904761D01*
X40274342Y-33904761D02*
X40369580Y-33952380D01*
X40369580Y-33952380D02*
X40417200Y-33999999D01*
X40417200Y-33999999D02*
X40464819Y-34095237D01*
X40464819Y-34095237D02*
X40464819Y-34333332D01*
X40464819Y-34333332D02*
X40417200Y-34428570D01*
X40417200Y-34428570D02*
X40369580Y-34476189D01*
D12*
%TO.C,U1002*%
X12535000Y-6570000D02*
X12535000Y-23570000D01*
X14535000Y-25570000D02*
X28335000Y-25570000D01*
X16935000Y-3145970D02*
X25935000Y-3145970D01*
X16935000Y-10499270D02*
X16935000Y-3145970D01*
X25935000Y-3145970D02*
X25935000Y-10499270D01*
X25935000Y-10499270D02*
X16935000Y-10499270D01*
X28335000Y-4570910D02*
X14535000Y-4570910D01*
X30335000Y-23570000D02*
X30335000Y-6570000D01*
D13*
X12535000Y-6570000D02*
G75*
G02*
X14535000Y-4570000I2044612J-44612D01*
G01*
X14535000Y-25570000D02*
G75*
G02*
X12535000Y-23570000I44857J2044857D01*
G01*
X28335000Y-4570000D02*
G75*
G02*
X30335000Y-6570000I-44600J-2044600D01*
G01*
X30335000Y-23570000D02*
G75*
G02*
X28335000Y-25570000I-2000000J0D01*
G01*
D14*
X10562000Y-6270000D02*
G75*
G02*
X10308000Y-6270000I-127000J0D01*
G01*
X10308000Y-6270000D02*
G75*
G02*
X10562000Y-6270000I127000J0D01*
G01*
D15*
X12547285Y-6508295D02*
X12550333Y-6459527D01*
X12554397Y-6410506D01*
X12547285Y-6508295D01*
X30322713Y-23640850D02*
X30319665Y-23689618D01*
X30315601Y-23738639D01*
X30310268Y-23787407D01*
X30303664Y-23836175D01*
X30296044Y-23884690D01*
X30287153Y-23932950D01*
X30277248Y-23980955D01*
X30324492Y-23591574D01*
X30322713Y-23640850D01*
D13*
%TO.C,J1004*%
X90000Y-39720000D02*
X90000Y-49880000D01*
X90000Y-49880000D02*
X7710000Y-49880000D01*
X1360000Y-49880000D02*
X1360000Y-39720000D01*
X7710000Y-39720000D02*
X90000Y-39720000D01*
X7710000Y-49880000D02*
X7710000Y-39720000D01*
%TO.C,J1001*%
X32890000Y-24290000D02*
X32890000Y-33520000D01*
X32890000Y-33520000D02*
X40360000Y-33520000D01*
X33750000Y-25500000D02*
X38050000Y-25500000D01*
X33750000Y-26250000D02*
X33750000Y-25500000D01*
X33750000Y-28500000D02*
X33750000Y-27750000D01*
X33750000Y-29310000D02*
X38050000Y-29310000D01*
X33750000Y-30060000D02*
X33750000Y-29310000D01*
X33750000Y-32310000D02*
X33750000Y-31560000D01*
X38050000Y-25500000D02*
X38050000Y-26250000D01*
X38050000Y-26250000D02*
X38400000Y-26250000D01*
X38050000Y-27750000D02*
X38050000Y-28500000D01*
X38050000Y-28500000D02*
X33750000Y-28500000D01*
X38050000Y-29310000D02*
X38050000Y-30060000D01*
X38050000Y-30060000D02*
X38400000Y-30060000D01*
X38050000Y-31560000D02*
X38050000Y-32310000D01*
X38050000Y-32310000D02*
X33750000Y-32310000D01*
X38400000Y-25750000D02*
X39400000Y-25500000D01*
X38400000Y-26250000D02*
X38400000Y-25750000D01*
X38400000Y-27750000D02*
X38050000Y-27750000D01*
X38400000Y-28250000D02*
X38400000Y-27750000D01*
X38400000Y-29560000D02*
X39400000Y-29310000D01*
X38400000Y-30060000D02*
X38400000Y-29560000D01*
X38400000Y-31560000D02*
X38050000Y-31560000D01*
X38400000Y-32060000D02*
X38400000Y-31560000D01*
X39400000Y-25500000D02*
X39400000Y-28500000D01*
X39400000Y-28500000D02*
X38400000Y-28250000D01*
X39400000Y-29310000D02*
X39400000Y-32310000D01*
X39400000Y-32310000D02*
X38400000Y-32060000D01*
X39500000Y-23900000D02*
X40750000Y-23900000D01*
X40360000Y-24290000D02*
X32890000Y-24290000D01*
X40360000Y-33520000D02*
X40360000Y-24290000D01*
X40750000Y-23900000D02*
X40750000Y-25900000D01*
X33750000Y-26250000D02*
G75*
G02*
X33750156Y-27749647I-1700000J-750000D01*
G01*
X33750000Y-30060000D02*
G75*
G02*
X33750156Y-31559647I-1700000J-750000D01*
G01*
%TO.C,D1001*%
X35480000Y-13490000D02*
X35480000Y-17730000D01*
X35480000Y-17730000D02*
X37720000Y-17730000D01*
X36600000Y-12840000D02*
X36600000Y-13490000D01*
X36600000Y-18380000D02*
X36600000Y-17730000D01*
X37720000Y-13490000D02*
X35480000Y-13490000D01*
X37720000Y-14090000D02*
X35480000Y-14090000D01*
X37720000Y-14210000D02*
X35480000Y-14210000D01*
X37720000Y-14330000D02*
X35480000Y-14330000D01*
X37720000Y-17730000D02*
X37720000Y-13490000D01*
D12*
%TO.C,U1001*%
X9840000Y-35840000D02*
X30160000Y-35840000D01*
X9840000Y-56160000D02*
X9840000Y-35840000D01*
X30160000Y-35840000D02*
X30160000Y-56160000D01*
X30160000Y-56160000D02*
X9840000Y-56160000D01*
D16*
X9300000Y-37110000D02*
G75*
G02*
X9100000Y-37110000I-100000J0D01*
G01*
X9100000Y-37110000D02*
G75*
G02*
X9300000Y-37110000I100000J0D01*
G01*
D13*
%TO.C,D1003*%
X1895000Y-13001500D02*
X2360000Y-13001500D01*
X4520000Y-13001500D02*
X4985000Y-13001500D01*
X1895170Y-13001500D02*
G75*
G02*
X2359173Y-7653685I1544830J2560000D01*
G01*
X2360000Y-12696184D02*
G75*
G02*
X2359571Y-8187021I1080000J2254684D01*
G01*
X4520429Y-8187021D02*
G75*
G02*
X4520000Y-12696184I-1080429J-2254479D01*
G01*
X4520827Y-7653685D02*
G75*
G02*
X4984830Y-13001500I-1080827J-2787815D01*
G01*
%TO.C,C1001*%
X7530000Y-29435000D02*
X7530000Y-28730000D01*
X7530000Y-31470000D02*
X7530000Y-30765000D01*
X11770000Y-28730000D02*
X7530000Y-28730000D01*
X11770000Y-29435000D02*
X11770000Y-28730000D01*
X11770000Y-31470000D02*
X7530000Y-31470000D01*
X11770000Y-31470000D02*
X11770000Y-30765000D01*
%TO.C,J1003*%
X32290000Y-39720000D02*
X32290000Y-49880000D01*
X32290000Y-49880000D02*
X39910000Y-49880000D01*
X38640000Y-39720000D02*
X38640000Y-49880000D01*
X39910000Y-39720000D02*
X32290000Y-39720000D01*
X39910000Y-49880000D02*
X39910000Y-39720000D01*
%TO.C,C1*%
X33230000Y-6830000D02*
X33230000Y-7535000D01*
X33230000Y-6830000D02*
X37470000Y-6830000D01*
X33230000Y-8865000D02*
X33230000Y-9570000D01*
X33230000Y-9570000D02*
X37470000Y-9570000D01*
X37470000Y-6830000D02*
X37470000Y-7535000D01*
X37470000Y-8865000D02*
X37470000Y-9570000D01*
%TO.C,J1002*%
X4070000Y-16270000D02*
X5400000Y-16270000D01*
X4070000Y-17600000D02*
X4070000Y-16270000D01*
X4070000Y-18870000D02*
X4070000Y-26550000D01*
X4070000Y-18870000D02*
X6730000Y-18870000D01*
X4070000Y-26550000D02*
X6730000Y-26550000D01*
X6730000Y-18870000D02*
X6730000Y-26550000D01*
%TO.C,J1006*%
X670000Y-34085000D02*
X670000Y-16245000D01*
X3330000Y-16245000D02*
X670000Y-16245000D01*
X3330000Y-34085000D02*
X670000Y-34085000D01*
X3330000Y-34085000D02*
X3330000Y-16245000D01*
X3330000Y-35355000D02*
X3330000Y-36685000D01*
X3330000Y-36685000D02*
X2000000Y-36685000D01*
%TO.C,J1005*%
X31270000Y-34670000D02*
X31270000Y-37330000D01*
X36410000Y-34670000D02*
X31270000Y-34670000D01*
X36410000Y-34670000D02*
X36410000Y-37330000D01*
X36410000Y-37330000D02*
X31270000Y-37330000D01*
X37680000Y-34670000D02*
X39010000Y-34670000D01*
X39010000Y-34670000D02*
X39010000Y-36000000D01*
%TD*%
M02*
