%TF.GenerationSoftware,KiCad,Pcbnew,8.0.5*%
%TF.CreationDate,2024-11-16T20:21:07-03:00*%
%TF.ProjectId,hal9000mainboard,68616c39-3030-4306-9d61-696e626f6172,rev?*%
%TF.SameCoordinates,Original*%
%TF.FileFunction,Copper,L2,Bot*%
%TF.FilePolarity,Positive*%
%FSLAX46Y46*%
G04 Gerber Fmt 4.6, Leading zero omitted, Abs format (unit mm)*
G04 Created by KiCad (PCBNEW 8.0.5) date 2024-11-16 20:21:07*
%MOMM*%
%LPD*%
G01*
G04 APERTURE LIST*
G04 Aperture macros list*
%AMRoundRect*
0 Rectangle with rounded corners*
0 $1 Rounding radius*
0 $2 $3 $4 $5 $6 $7 $8 $9 X,Y pos of 4 corners*
0 Add a 4 corners polygon primitive as box body*
4,1,4,$2,$3,$4,$5,$6,$7,$8,$9,$2,$3,0*
0 Add four circle primitives for the rounded corners*
1,1,$1+$1,$2,$3*
1,1,$1+$1,$4,$5*
1,1,$1+$1,$6,$7*
1,1,$1+$1,$8,$9*
0 Add four rect primitives between the rounded corners*
20,1,$1+$1,$2,$3,$4,$5,0*
20,1,$1+$1,$4,$5,$6,$7,0*
20,1,$1+$1,$6,$7,$8,$9,0*
20,1,$1+$1,$8,$9,$2,$3,0*%
G04 Aperture macros list end*
%TA.AperFunction,ComponentPad*%
%ADD10R,3.500000X1.700000*%
%TD*%
%TA.AperFunction,ComponentPad*%
%ADD11O,3.600000X1.700000*%
%TD*%
%TA.AperFunction,ComponentPad*%
%ADD12O,3.700000X1.700000*%
%TD*%
%TA.AperFunction,ComponentPad*%
%ADD13R,3.000000X3.000000*%
%TD*%
%TA.AperFunction,ComponentPad*%
%ADD14C,3.000000*%
%TD*%
%TA.AperFunction,ComponentPad*%
%ADD15RoundRect,0.250000X-1.550000X0.650000X-1.550000X-0.650000X1.550000X-0.650000X1.550000X0.650000X0*%
%TD*%
%TA.AperFunction,ComponentPad*%
%ADD16O,3.600000X1.800000*%
%TD*%
%TA.AperFunction,ComponentPad*%
%ADD17C,5.400000*%
%TD*%
%TA.AperFunction,ComponentPad*%
%ADD18R,1.600000X1.600000*%
%TD*%
%TA.AperFunction,ComponentPad*%
%ADD19O,1.600000X1.600000*%
%TD*%
%TA.AperFunction,ComponentPad*%
%ADD20R,1.308000X1.308000*%
%TD*%
%TA.AperFunction,ComponentPad*%
%ADD21C,1.308000*%
%TD*%
%TA.AperFunction,ComponentPad*%
%ADD22R,1.800000X1.800000*%
%TD*%
%TA.AperFunction,ComponentPad*%
%ADD23C,1.800000*%
%TD*%
%TA.AperFunction,ComponentPad*%
%ADD24C,1.600000*%
%TD*%
%TA.AperFunction,ComponentPad*%
%ADD25R,1.700000X1.700000*%
%TD*%
%TA.AperFunction,ComponentPad*%
%ADD26O,1.700000X1.700000*%
%TD*%
%TA.AperFunction,SMDPad,CuDef*%
%ADD27R,3.000000X3.000000*%
%TD*%
%TA.AperFunction,SMDPad,CuDef*%
%ADD28RoundRect,0.200000X0.200000X0.275000X-0.200000X0.275000X-0.200000X-0.275000X0.200000X-0.275000X0*%
%TD*%
%TA.AperFunction,ViaPad*%
%ADD29C,1.500000*%
%TD*%
%TA.AperFunction,Conductor*%
%ADD30C,1.000000*%
%TD*%
%TA.AperFunction,Conductor*%
%ADD31C,0.750000*%
%TD*%
%TA.AperFunction,Conductor*%
%ADD32C,0.500000*%
%TD*%
G04 APERTURE END LIST*
D10*
%TO.P,U1002,1,PA02_A0_D0*%
%TO.N,Net-(U1002-PA02_A0_D0)*%
X12810000Y-7450000D03*
D11*
%TO.P,U1002,2,PA4_A1_D1*%
%TO.N,BUSY*%
X12810000Y-9990000D03*
%TO.P,U1002,3,PA10_A2_D2*%
%TO.N,LED1*%
X12810000Y-12530000D03*
%TO.P,U1002,4,PA11_A3_D3*%
%TO.N,LED2*%
X12810000Y-15070000D03*
%TO.P,U1002,5,PA8_A4_D4_SDA*%
%TO.N,/scl*%
X12810000Y-17610000D03*
%TO.P,U1002,6,PA9_A5_D5_SCL*%
%TO.N,/sda*%
X12810000Y-20150000D03*
%TO.P,U1002,7,PB08_A6_D6_TX*%
%TO.N,UC_TX*%
X12810000Y-22690000D03*
%TO.P,U1002,8,PB09_A7_D7_RX*%
%TO.N,UC_RX*%
X30060000Y-22690000D03*
%TO.P,U1002,9,PA7_A8_D8_SCK*%
%TO.N,Net-(U1002-PA7_A8_D8_SCK)*%
X30060000Y-20150000D03*
%TO.P,U1002,10,PA5_A9_D9_MISO*%
%TO.N,Net-(U1002-PA5_A9_D9_MISO)*%
X30060000Y-17610000D03*
D12*
%TO.P,U1002,11,PA6_A10_D10_MOSI*%
%TO.N,LED3*%
X30060000Y-15070000D03*
%TO.P,U1002,12,3V3*%
%TO.N,Net-(U1002-3V3)*%
X30060000Y-12530000D03*
%TO.P,U1002,13,GND*%
%TO.N,GND*%
X30060000Y-9990000D03*
%TO.P,U1002,14,5V*%
%TO.N,Net-(D1001-K)*%
X30060000Y-7450000D03*
%TD*%
D13*
%TO.P,J1004,1,Pin_1*%
%TO.N,Net-(J1004-Pin_1)*%
X3900000Y-42260000D03*
D14*
%TO.P,J1004,2,Pin_2*%
%TO.N,Net-(J1004-Pin_2)*%
X3900000Y-47340000D03*
%TD*%
D15*
%TO.P,J1001,1,Pin_1*%
%TO.N,+5V*%
X36000000Y-27000000D03*
D16*
%TO.P,J1001,2,Pin_2*%
%TO.N,GND*%
X36000000Y-30810000D03*
%TD*%
D17*
%TO.P,REF\u002A\u002A,1*%
%TO.N,N/C*%
X37000000Y-3000000D03*
%TD*%
D18*
%TO.P,D1001,1,K*%
%TO.N,Net-(D1001-K)*%
X36600000Y-11800000D03*
D19*
%TO.P,D1001,2,A*%
%TO.N,+5V*%
X36600000Y-19420000D03*
%TD*%
D20*
%TO.P,U1001,1,VCC*%
%TO.N,+5V*%
X10983000Y-37110000D03*
D21*
%TO.P,U1001,2,RX*%
%TO.N,UC_TX*%
X10983000Y-39650000D03*
%TO.P,U1001,3,TX*%
%TO.N,UC_RX*%
X10983000Y-42190000D03*
%TO.P,U1001,4,DAC_R*%
%TO.N,Net-(J1004-Pin_1)*%
X10983000Y-44730000D03*
%TO.P,U1001,5,DAC_L*%
%TO.N,Net-(J1004-Pin_2)*%
X10983000Y-47270000D03*
%TO.P,U1001,6,SPK1*%
%TO.N,Net-(J1003-Pin_2)*%
X10983000Y-49810000D03*
%TO.P,U1001,7,GND*%
%TO.N,GND*%
X10983000Y-52350000D03*
%TO.P,U1001,8,SPK2*%
%TO.N,Net-(J1003-Pin_1)*%
X10983000Y-54890000D03*
%TO.P,U1001,9,IO1*%
%TO.N,unconnected-(U1001-IO1-Pad9)*%
X29017000Y-54890000D03*
%TO.P,U1001,10,GND*%
%TO.N,GND*%
X29017000Y-52350000D03*
%TO.P,U1001,11,IO2*%
%TO.N,unconnected-(U1001-IO2-Pad11)*%
X29017000Y-49810000D03*
%TO.P,U1001,12,ADKEY1*%
%TO.N,unconnected-(U1001-ADKEY1-Pad12)*%
X29017000Y-47270000D03*
%TO.P,U1001,13,ADKEY2*%
%TO.N,unconnected-(U1001-ADKEY2-Pad13)*%
X29017000Y-44730000D03*
%TO.P,U1001,14,USB+*%
%TO.N,unconnected-(U1001-USB+-Pad14)*%
X29017000Y-42190000D03*
%TO.P,U1001,15,USB-*%
%TO.N,unconnected-(U1001-USB--Pad15)*%
X29017000Y-39650000D03*
%TO.P,U1001,16,BUSY*%
%TO.N,BUSY*%
X29017000Y-37110000D03*
%TD*%
D22*
%TO.P,D1003,1,GA*%
%TO.N,Net-(D1003-GA)*%
X3440000Y-13680000D03*
D23*
%TO.P,D1003,2,K*%
%TO.N,GND*%
X3440000Y-11521000D03*
%TO.P,D1003,3,BA*%
%TO.N,Net-(D1003-BA)*%
X3440000Y-9362000D03*
%TO.P,D1003,4,RA*%
%TO.N,Net-(D1003-RA)*%
X3440000Y-7203000D03*
%TD*%
D17*
%TO.P,REF\u002A\u002A,1*%
%TO.N,N/C*%
X3000000Y-3000000D03*
%TD*%
%TO.P,REF\u002A\u002A,1*%
%TO.N,N/C*%
X3000000Y-57000000D03*
%TD*%
D24*
%TO.P,C1001,1*%
%TO.N,+5V*%
X10900000Y-30100000D03*
%TO.P,C1001,2*%
%TO.N,GND*%
X8400000Y-30100000D03*
%TD*%
D17*
%TO.P,REF\u002A\u002A,1*%
%TO.N,N/C*%
X37000000Y-57000000D03*
%TD*%
D13*
%TO.P,J1003,1,Pin_1*%
%TO.N,Net-(J1003-Pin_1)*%
X36100000Y-47340000D03*
D14*
%TO.P,J1003,2,Pin_2*%
%TO.N,Net-(J1003-Pin_2)*%
X36100000Y-42260000D03*
%TD*%
D24*
%TO.P,C1,1*%
%TO.N,Net-(D1001-K)*%
X34100000Y-8200000D03*
%TO.P,C1,2*%
%TO.N,GND*%
X36600000Y-8200000D03*
%TD*%
D25*
%TO.P,J1002,1,Pin_1*%
%TO.N,/scl*%
X5400000Y-17600000D03*
D26*
%TO.P,J1002,2,Pin_2*%
%TO.N,/sda*%
X5400000Y-20140000D03*
%TO.P,J1002,3,Pin_3*%
%TO.N,+5V*%
X5400000Y-22680000D03*
%TO.P,J1002,4,Pin_4*%
%TO.N,GND*%
X5400000Y-25220000D03*
%TD*%
D25*
%TO.P,J1006,1,Pin_1*%
%TO.N,GND*%
X2000000Y-35355000D03*
D26*
%TO.P,J1006,2,Pin_2*%
%TO.N,+5V*%
X2000000Y-32815000D03*
%TO.P,J1006,3,Pin_3*%
%TO.N,unconnected-(J1006-Pin_3-Pad3)*%
X2000000Y-30275000D03*
%TO.P,J1006,4,Pin_4*%
%TO.N,unconnected-(J1006-Pin_4-Pad4)*%
X2000000Y-27735000D03*
%TO.P,J1006,5,Pin_5*%
%TO.N,unconnected-(J1006-Pin_5-Pad5)*%
X2000000Y-25195000D03*
%TO.P,J1006,6,Pin_6*%
%TO.N,unconnected-(J1006-Pin_6-Pad6)*%
X2000000Y-22655000D03*
%TO.P,J1006,7,Pin_7*%
%TO.N,/sda*%
X2000000Y-20115000D03*
%TO.P,J1006,8,Pin_8*%
%TO.N,/scl*%
X2000000Y-17575000D03*
%TD*%
D25*
%TO.P,J1005,1,Pin_1*%
%TO.N,GND*%
X37680000Y-36000000D03*
D26*
%TO.P,J1005,2,Pin_2*%
%TO.N,+5V*%
X35140000Y-36000000D03*
%TO.P,J1005,3,Pin_3*%
%TO.N,LED3*%
X32600000Y-36000000D03*
%TD*%
D27*
%TO.P,TP1004,1,1*%
%TO.N,Net-(U1002-3V3)*%
X16700000Y-27600000D03*
%TD*%
D28*
%TO.P,R1003,1*%
%TO.N,LED3*%
X27125000Y-15100000D03*
%TO.P,R1003,2*%
%TO.N,Net-(D1003-BA)*%
X25475000Y-15100000D03*
%TD*%
D27*
%TO.P,TP1003,1,1*%
%TO.N,Net-(U1002-PA7_A8_D8_SCK)*%
X25380000Y-27610000D03*
%TD*%
%TO.P,TP1002,1,1*%
%TO.N,Net-(U1002-PA5_A9_D9_MISO)*%
X21140000Y-27600000D03*
%TD*%
%TO.P,TP1001,1,1*%
%TO.N,Net-(U1002-PA02_A0_D0)*%
X12900000Y-2700000D03*
%TD*%
D28*
%TO.P,R1001,1*%
%TO.N,LED1*%
X8425000Y-7200000D03*
%TO.P,R1001,2*%
%TO.N,Net-(D1003-RA)*%
X6775000Y-7200000D03*
%TD*%
%TO.P,R1002,1*%
%TO.N,LED2*%
X8425000Y-13700000D03*
%TO.P,R1002,2*%
%TO.N,Net-(D1003-GA)*%
X6775000Y-13700000D03*
%TD*%
D29*
%TO.N,GND*%
X5500000Y-30100000D03*
X20700000Y-46600000D03*
X1800000Y-52400000D03*
X7600000Y-11600000D03*
X29300000Y-1400000D03*
X19600000Y-7500000D03*
%TO.N,+5V*%
X36600000Y-23000000D03*
X36600000Y-21500000D03*
X10900000Y-32600000D03*
X10900000Y-34100000D03*
%TO.N,Net-(D1003-BA)*%
X6400000Y-9300000D03*
X23700000Y-15100000D03*
%TO.N,BUSY*%
X17100000Y-10000000D03*
X20800000Y-36900000D03*
%TD*%
D30*
%TO.N,+5V*%
X10900000Y-33683000D02*
X10900000Y-32600000D01*
X6880000Y-22680000D02*
X10900000Y-26700000D01*
D31*
X33200000Y-32600000D02*
X33200000Y-28000000D01*
D30*
X10900000Y-32600000D02*
X10900000Y-30100000D01*
X6955000Y-35355000D02*
X10900000Y-35355000D01*
X2000000Y-32815000D02*
X4415000Y-32815000D01*
D31*
X35140000Y-34540000D02*
X33200000Y-32600000D01*
X35140000Y-36000000D02*
X35140000Y-34540000D01*
D30*
X4415000Y-32815000D02*
X6955000Y-35355000D01*
X10900000Y-33683000D02*
X10900000Y-37027000D01*
D31*
X34200000Y-27000000D02*
X36000000Y-27000000D01*
X36000000Y-27000000D02*
X36600000Y-26400000D01*
X10900000Y-35355000D02*
X10900000Y-33683000D01*
X10900000Y-37027000D02*
X10983000Y-37110000D01*
D30*
X36600000Y-26400000D02*
X36600000Y-23000000D01*
X5400000Y-22680000D02*
X6880000Y-22680000D01*
X10900000Y-26700000D02*
X10900000Y-30100000D01*
X36600000Y-21500000D02*
X36600000Y-19420000D01*
D31*
X33200000Y-28000000D02*
X34200000Y-27000000D01*
D30*
X36600000Y-21500000D02*
X36600000Y-23000000D01*
D31*
%TO.N,Net-(D1001-K)*%
X34100000Y-8200000D02*
X33390000Y-7490000D01*
X33390000Y-7490000D02*
X29100000Y-7490000D01*
X34100000Y-9300000D02*
X34100000Y-8200000D01*
X36600000Y-11800000D02*
X34100000Y-9300000D01*
X29100000Y-7490000D02*
X29060000Y-7450000D01*
%TO.N,Net-(D1003-RA)*%
X6772000Y-7203000D02*
X6775000Y-7200000D01*
X3440000Y-7203000D02*
X6772000Y-7203000D01*
%TO.N,Net-(D1003-GA)*%
X6775000Y-13700000D02*
X3460000Y-13700000D01*
X3460000Y-13700000D02*
X3440000Y-13680000D01*
%TO.N,Net-(D1003-BA)*%
X6400000Y-9300000D02*
X3502000Y-9300000D01*
X25475000Y-15100000D02*
X23700000Y-15100000D01*
X3502000Y-9300000D02*
X3440000Y-9362000D01*
%TO.N,/scl*%
X5400000Y-17600000D02*
X13800000Y-17600000D01*
X5375000Y-17575000D02*
X5400000Y-17600000D01*
X2000000Y-17575000D02*
X5375000Y-17575000D01*
X13800000Y-17600000D02*
X13810000Y-17610000D01*
%TO.N,/sda*%
X5375000Y-20115000D02*
X5400000Y-20140000D01*
X5400000Y-20140000D02*
X13800000Y-20140000D01*
X13800000Y-20140000D02*
X13810000Y-20150000D01*
X2000000Y-20115000D02*
X5375000Y-20115000D01*
%TO.N,Net-(J1003-Pin_2)*%
X31800000Y-55200000D02*
X31800000Y-46560000D01*
X31800000Y-46560000D02*
X36100000Y-42260000D01*
X12210000Y-49810000D02*
X19800000Y-57400000D01*
X19800000Y-57400000D02*
X29600000Y-57400000D01*
X29600000Y-57400000D02*
X31800000Y-55200000D01*
X10983000Y-49810000D02*
X12210000Y-49810000D01*
%TO.N,Net-(J1003-Pin_1)*%
X36100000Y-53000000D02*
X36100000Y-47340000D01*
X14993000Y-58900000D02*
X30200000Y-58900000D01*
X30200000Y-58900000D02*
X36100000Y-53000000D01*
X10983000Y-54890000D02*
X14993000Y-58900000D01*
D32*
%TO.N,Net-(J1004-Pin_2)*%
X10913000Y-47340000D02*
X10983000Y-47270000D01*
D31*
X3900000Y-47340000D02*
X10913000Y-47340000D01*
%TO.N,Net-(J1004-Pin_1)*%
X6460000Y-42260000D02*
X8930000Y-44730000D01*
X3900000Y-42260000D02*
X6460000Y-42260000D01*
X8930000Y-44730000D02*
X10983000Y-44730000D01*
%TO.N,LED1*%
X8425000Y-7200000D02*
X8425000Y-9825000D01*
X8425000Y-9825000D02*
X11130000Y-12530000D01*
X11130000Y-12530000D02*
X13810000Y-12530000D01*
%TO.N,LED2*%
X13810000Y-15070000D02*
X9795000Y-15070000D01*
X9795000Y-15070000D02*
X8425000Y-13700000D01*
%TO.N,LED3*%
X27155000Y-15070000D02*
X27125000Y-15100000D01*
X30200000Y-32400000D02*
X32600000Y-34800000D01*
X29060000Y-15070000D02*
X32070000Y-15070000D01*
X33600000Y-16600000D02*
X33600000Y-23000000D01*
X29060000Y-15070000D02*
X27155000Y-15070000D01*
X30200000Y-26400000D02*
X30200000Y-32400000D01*
X32600000Y-34800000D02*
X32600000Y-36000000D01*
X33600000Y-23000000D02*
X30200000Y-26400000D01*
X32070000Y-15070000D02*
X33600000Y-16600000D01*
%TO.N,BUSY*%
X20900000Y-36800000D02*
X28707000Y-36800000D01*
X17100000Y-10000000D02*
X13820000Y-10000000D01*
X13820000Y-10000000D02*
X13810000Y-9990000D01*
X28707000Y-36800000D02*
X29017000Y-37110000D01*
X20800000Y-36900000D02*
X20900000Y-36800000D01*
%TO.N,UC_TX*%
X10983000Y-39650000D02*
X12650000Y-39650000D01*
X12650000Y-39650000D02*
X13810000Y-38490000D01*
X13810000Y-38490000D02*
X13810000Y-22690000D01*
%TO.N,UC_RX*%
X29060000Y-23640000D02*
X29060000Y-22690000D01*
X16000000Y-32700000D02*
X17900000Y-30800000D01*
X16000000Y-39500000D02*
X16000000Y-32700000D01*
X28200000Y-24500000D02*
X29060000Y-23640000D01*
X28200000Y-29300000D02*
X28200000Y-24500000D01*
X17900000Y-30800000D02*
X26700000Y-30800000D01*
X10983000Y-42190000D02*
X13310000Y-42190000D01*
X13310000Y-42190000D02*
X16000000Y-39500000D01*
X26700000Y-30800000D02*
X28200000Y-29300000D01*
%TO.N,Net-(U1002-PA02_A0_D0)*%
X13750000Y-7450000D02*
X12900000Y-6600000D01*
X13810000Y-7450000D02*
X13750000Y-7450000D01*
X12900000Y-6600000D02*
X12900000Y-2700000D01*
%TO.N,Net-(U1002-PA5_A9_D9_MISO)*%
X29060000Y-17610000D02*
X24690000Y-17610000D01*
X21140000Y-21160000D02*
X21140000Y-27600000D01*
X24690000Y-17610000D02*
X21140000Y-21160000D01*
%TO.N,Net-(U1002-3V3)*%
X16700000Y-18900000D02*
X23070000Y-12530000D01*
X23070000Y-12530000D02*
X29060000Y-12530000D01*
X16700000Y-27600000D02*
X16700000Y-18900000D01*
%TO.N,Net-(U1002-PA7_A8_D8_SCK)*%
X27250000Y-20150000D02*
X25380000Y-22020000D01*
X29060000Y-20150000D02*
X27250000Y-20150000D01*
X25380000Y-22020000D02*
X25380000Y-27610000D01*
%TD*%
%TA.AperFunction,Conductor*%
%TO.N,GND*%
G36*
X705703Y-33260483D02*
G01*
X736881Y-33301790D01*
X788670Y-33412850D01*
X825965Y-33492830D01*
X825967Y-33492834D01*
X934281Y-33647521D01*
X961505Y-33686401D01*
X1128599Y-33853495D01*
X1169343Y-33882024D01*
X1322165Y-33989032D01*
X1322167Y-33989033D01*
X1322170Y-33989035D01*
X1536337Y-34088903D01*
X1536343Y-34088904D01*
X1536344Y-34088905D01*
X1591285Y-34103626D01*
X1764592Y-34150063D01*
X1952918Y-34166539D01*
X1999999Y-34170659D01*
X2000000Y-34170659D01*
X2000001Y-34170659D01*
X2039234Y-34167226D01*
X2235408Y-34150063D01*
X2463663Y-34088903D01*
X2677830Y-33989035D01*
X2871401Y-33853495D01*
X2873077Y-33851819D01*
X2873995Y-33851317D01*
X2875544Y-33850018D01*
X2875805Y-33850329D01*
X2934400Y-33818334D01*
X2960758Y-33815500D01*
X3949218Y-33815500D01*
X4016257Y-33835185D01*
X4036898Y-33851818D01*
X6177860Y-35992781D01*
X6177861Y-35992782D01*
X6317218Y-36132139D01*
X6481086Y-36241632D01*
X6587745Y-36285811D01*
X6663164Y-36317051D01*
X6856454Y-36355499D01*
X6856457Y-36355500D01*
X6856459Y-36355500D01*
X7053540Y-36355500D01*
X9704500Y-36355500D01*
X9771539Y-36375185D01*
X9817294Y-36427989D01*
X9828500Y-36479500D01*
X9828500Y-37811870D01*
X9828501Y-37811876D01*
X9834908Y-37871483D01*
X9885202Y-38006328D01*
X9885206Y-38006335D01*
X9971452Y-38121544D01*
X9971455Y-38121547D01*
X10086664Y-38207793D01*
X10086671Y-38207797D01*
X10221517Y-38258091D01*
X10221516Y-38258091D01*
X10228444Y-38258835D01*
X10281127Y-38264500D01*
X10773592Y-38264499D01*
X10840629Y-38284183D01*
X10886384Y-38336987D01*
X10896328Y-38406146D01*
X10867303Y-38469702D01*
X10808525Y-38507476D01*
X10796375Y-38510388D01*
X10665703Y-38534815D01*
X10558796Y-38576231D01*
X10466192Y-38612106D01*
X10466186Y-38612108D01*
X10284286Y-38724736D01*
X10284283Y-38724738D01*
X10284279Y-38724740D01*
X10284278Y-38724742D01*
X10232805Y-38771666D01*
X10126158Y-38868887D01*
X9997219Y-39039629D01*
X9901849Y-39231158D01*
X9901846Y-39231164D01*
X9843296Y-39436949D01*
X9843295Y-39436952D01*
X9823554Y-39649999D01*
X9823554Y-39650000D01*
X9843295Y-39863047D01*
X9843296Y-39863050D01*
X9901846Y-40068835D01*
X9901849Y-40068840D01*
X9997219Y-40260370D01*
X10126159Y-40431114D01*
X10284278Y-40575258D01*
X10284283Y-40575261D01*
X10284286Y-40575263D01*
X10466186Y-40687891D01*
X10466187Y-40687891D01*
X10466190Y-40687893D01*
X10665703Y-40765185D01*
X10841845Y-40798111D01*
X10904125Y-40829779D01*
X10939398Y-40890092D01*
X10936464Y-40959900D01*
X10896255Y-41017040D01*
X10841845Y-41041888D01*
X10665703Y-41074815D01*
X10539533Y-41123693D01*
X10466192Y-41152106D01*
X10466186Y-41152108D01*
X10284286Y-41264736D01*
X10284283Y-41264738D01*
X10284279Y-41264740D01*
X10284278Y-41264742D01*
X10229696Y-41314500D01*
X10126158Y-41408887D01*
X9997219Y-41579629D01*
X9901849Y-41771158D01*
X9901846Y-41771164D01*
X9843296Y-41976949D01*
X9843295Y-41976952D01*
X9823554Y-42189999D01*
X9823554Y-42190000D01*
X9843295Y-42403047D01*
X9843296Y-42403050D01*
X9901846Y-42608835D01*
X9901849Y-42608840D01*
X9997219Y-42800370D01*
X10126159Y-42971114D01*
X10284278Y-43115258D01*
X10284283Y-43115261D01*
X10284286Y-43115263D01*
X10466186Y-43227891D01*
X10466187Y-43227891D01*
X10466190Y-43227893D01*
X10665703Y-43305185D01*
X10841845Y-43338111D01*
X10904125Y-43369779D01*
X10939398Y-43430092D01*
X10936464Y-43499900D01*
X10896255Y-43557040D01*
X10841845Y-43581888D01*
X10665703Y-43614815D01*
X10539533Y-43663693D01*
X10466192Y-43692106D01*
X10466186Y-43692108D01*
X10284279Y-43804740D01*
X10284276Y-43804742D01*
X10265196Y-43822137D01*
X10202392Y-43852754D01*
X10181658Y-43854500D01*
X9344006Y-43854500D01*
X9276967Y-43834815D01*
X9256325Y-43818181D01*
X7018102Y-41579957D01*
X7018098Y-41579954D01*
X6874711Y-41484145D01*
X6874698Y-41484138D01*
X6715378Y-41418146D01*
X6715366Y-41418143D01*
X6546232Y-41384500D01*
X6546229Y-41384500D01*
X6024499Y-41384500D01*
X5957460Y-41364815D01*
X5911705Y-41312011D01*
X5900499Y-41260500D01*
X5900499Y-40712129D01*
X5900498Y-40712123D01*
X5900497Y-40712116D01*
X5894091Y-40652517D01*
X5865276Y-40575261D01*
X5843797Y-40517671D01*
X5843793Y-40517664D01*
X5757547Y-40402455D01*
X5757544Y-40402452D01*
X5642335Y-40316206D01*
X5642328Y-40316202D01*
X5507482Y-40265908D01*
X5507483Y-40265908D01*
X5447883Y-40259501D01*
X5447881Y-40259500D01*
X5447873Y-40259500D01*
X5447864Y-40259500D01*
X2352129Y-40259500D01*
X2352123Y-40259501D01*
X2292516Y-40265908D01*
X2157671Y-40316202D01*
X2157664Y-40316206D01*
X2042455Y-40402452D01*
X2042452Y-40402455D01*
X1956206Y-40517664D01*
X1956202Y-40517671D01*
X1905908Y-40652517D01*
X1899501Y-40712116D01*
X1899501Y-40712123D01*
X1899500Y-40712135D01*
X1899500Y-43807870D01*
X1899501Y-43807876D01*
X1905908Y-43867483D01*
X1956202Y-44002328D01*
X1956206Y-44002335D01*
X2042452Y-44117544D01*
X2042455Y-44117547D01*
X2157664Y-44203793D01*
X2157671Y-44203797D01*
X2292517Y-44254091D01*
X2292516Y-44254091D01*
X2299444Y-44254835D01*
X2352127Y-44260500D01*
X5447872Y-44260499D01*
X5507483Y-44254091D01*
X5642331Y-44203796D01*
X5757546Y-44117546D01*
X5843796Y-44002331D01*
X5894091Y-43867483D01*
X5900500Y-43807873D01*
X5900500Y-43259500D01*
X5920185Y-43192461D01*
X5972989Y-43146706D01*
X6024500Y-43135500D01*
X6045994Y-43135500D01*
X6113033Y-43155185D01*
X6133675Y-43171819D01*
X8249955Y-45288099D01*
X8316660Y-45354804D01*
X8371902Y-45410046D01*
X8515288Y-45505854D01*
X8515301Y-45505861D01*
X8674621Y-45571853D01*
X8674626Y-45571855D01*
X8804377Y-45597664D01*
X8843766Y-45605499D01*
X8843769Y-45605500D01*
X8843771Y-45605500D01*
X10181658Y-45605500D01*
X10248697Y-45625185D01*
X10265196Y-45637863D01*
X10284276Y-45655257D01*
X10284279Y-45655259D01*
X10466186Y-45767891D01*
X10466187Y-45767891D01*
X10466190Y-45767893D01*
X10665703Y-45845185D01*
X10841845Y-45878111D01*
X10904125Y-45909779D01*
X10939398Y-45970092D01*
X10936464Y-46039900D01*
X10896255Y-46097040D01*
X10841845Y-46121888D01*
X10665703Y-46154815D01*
X10539533Y-46203693D01*
X10466192Y-46232106D01*
X10466186Y-46232108D01*
X10284286Y-46344736D01*
X10284276Y-46344743D01*
X10188410Y-46432137D01*
X10125606Y-46462754D01*
X10104872Y-46464500D01*
X5774820Y-46464500D01*
X5707781Y-46444815D01*
X5665988Y-46399927D01*
X5587229Y-46255689D01*
X5587224Y-46255682D01*
X5415745Y-46026612D01*
X5415729Y-46026594D01*
X5213405Y-45824270D01*
X5213387Y-45824254D01*
X4984317Y-45652775D01*
X4984309Y-45652770D01*
X4733166Y-45515635D01*
X4733167Y-45515635D01*
X4625915Y-45475632D01*
X4465046Y-45415631D01*
X4465043Y-45415630D01*
X4465037Y-45415628D01*
X4185433Y-45354804D01*
X3900001Y-45334390D01*
X3899999Y-45334390D01*
X3614566Y-45354804D01*
X3334962Y-45415628D01*
X3066833Y-45515635D01*
X2815690Y-45652770D01*
X2815682Y-45652775D01*
X2586612Y-45824254D01*
X2586594Y-45824270D01*
X2384270Y-46026594D01*
X2384254Y-46026612D01*
X2212775Y-46255682D01*
X2212770Y-46255690D01*
X2075635Y-46506833D01*
X1975628Y-46774962D01*
X1914804Y-47054566D01*
X1894390Y-47339998D01*
X1894390Y-47340001D01*
X1914804Y-47625433D01*
X1975628Y-47905037D01*
X2075635Y-48173166D01*
X2212770Y-48424309D01*
X2212775Y-48424317D01*
X2384254Y-48653387D01*
X2384270Y-48653405D01*
X2586594Y-48855729D01*
X2586612Y-48855745D01*
X2815682Y-49027224D01*
X2815690Y-49027229D01*
X3066833Y-49164364D01*
X3066832Y-49164364D01*
X3066836Y-49164365D01*
X3066839Y-49164367D01*
X3334954Y-49264369D01*
X3334960Y-49264370D01*
X3334962Y-49264371D01*
X3614566Y-49325195D01*
X3614568Y-49325195D01*
X3614572Y-49325196D01*
X3868220Y-49343337D01*
X3899999Y-49345610D01*
X3900000Y-49345610D01*
X3900001Y-49345610D01*
X3928595Y-49343564D01*
X4185428Y-49325196D01*
X4375742Y-49283796D01*
X4465037Y-49264371D01*
X4465037Y-49264370D01*
X4465046Y-49264369D01*
X4733161Y-49164367D01*
X4984315Y-49027226D01*
X5213395Y-48855739D01*
X5415739Y-48653395D01*
X5587226Y-48424315D01*
X5587230Y-48424309D01*
X5650797Y-48307893D01*
X5665988Y-48280072D01*
X5715393Y-48230668D01*
X5774820Y-48215500D01*
X10281689Y-48215500D01*
X10346966Y-48234073D01*
X10466186Y-48307891D01*
X10466187Y-48307891D01*
X10466190Y-48307893D01*
X10665703Y-48385185D01*
X10841845Y-48418111D01*
X10904125Y-48449779D01*
X10939398Y-48510092D01*
X10936464Y-48579900D01*
X10896255Y-48637040D01*
X10841845Y-48661888D01*
X10665703Y-48694815D01*
X10539533Y-48743693D01*
X10466192Y-48772106D01*
X10466186Y-48772108D01*
X10284286Y-48884736D01*
X10284283Y-48884738D01*
X10284279Y-48884740D01*
X10284278Y-48884742D01*
X10192791Y-48968143D01*
X10126158Y-49028887D01*
X9997219Y-49199629D01*
X9901849Y-49391158D01*
X9901846Y-49391164D01*
X9843296Y-49596949D01*
X9843295Y-49596952D01*
X9823554Y-49809999D01*
X9823554Y-49810000D01*
X9843295Y-50023047D01*
X9843296Y-50023050D01*
X9901846Y-50228835D01*
X9901849Y-50228840D01*
X9997219Y-50420370D01*
X10126159Y-50591114D01*
X10284278Y-50735258D01*
X10284283Y-50735261D01*
X10284286Y-50735263D01*
X10466186Y-50847891D01*
X10466187Y-50847891D01*
X10466190Y-50847893D01*
X10665703Y-50925185D01*
X10876020Y-50964500D01*
X10876022Y-50964500D01*
X11089978Y-50964500D01*
X11089980Y-50964500D01*
X11300297Y-50925185D01*
X11499810Y-50847893D01*
X11681722Y-50735258D01*
X11696464Y-50721819D01*
X11700804Y-50717863D01*
X11763608Y-50687246D01*
X11784342Y-50685500D01*
X11795994Y-50685500D01*
X11863033Y-50705185D01*
X11883675Y-50721819D01*
X18974675Y-57812819D01*
X19008160Y-57874142D01*
X19003176Y-57943834D01*
X18961304Y-57999767D01*
X18895840Y-58024184D01*
X18886994Y-58024500D01*
X15407006Y-58024500D01*
X15339967Y-58004815D01*
X15319325Y-57988181D01*
X12166067Y-54834923D01*
X12132582Y-54773600D01*
X12130277Y-54758683D01*
X12129361Y-54748797D01*
X12122704Y-54676952D01*
X12103186Y-54608354D01*
X12064153Y-54471164D01*
X12064150Y-54471158D01*
X11971848Y-54285790D01*
X11968781Y-54279630D01*
X11839841Y-54108886D01*
X11681722Y-53964742D01*
X11681716Y-53964738D01*
X11681713Y-53964736D01*
X11499813Y-53852108D01*
X11499807Y-53852106D01*
X11300297Y-53774815D01*
X11089980Y-53735500D01*
X10876020Y-53735500D01*
X10665703Y-53774815D01*
X10562973Y-53814613D01*
X10466192Y-53852106D01*
X10466186Y-53852108D01*
X10284286Y-53964736D01*
X10284283Y-53964738D01*
X10284279Y-53964740D01*
X10284278Y-53964742D01*
X10126159Y-54108886D01*
X10126158Y-54108887D01*
X9997219Y-54279629D01*
X9901849Y-54471158D01*
X9901846Y-54471164D01*
X9843296Y-54676949D01*
X9843295Y-54676952D01*
X9823554Y-54889999D01*
X9823554Y-54890000D01*
X9843295Y-55103047D01*
X9843296Y-55103050D01*
X9901846Y-55308835D01*
X9901849Y-55308841D01*
X9946897Y-55399310D01*
X9997219Y-55500370D01*
X10126159Y-55671114D01*
X10284278Y-55815258D01*
X10284283Y-55815261D01*
X10284286Y-55815263D01*
X10466186Y-55927891D01*
X10466187Y-55927891D01*
X10466190Y-55927893D01*
X10665703Y-56005185D01*
X10866978Y-56042809D01*
X10929258Y-56074477D01*
X10931873Y-56077017D01*
X14142675Y-59287819D01*
X14176160Y-59349142D01*
X14171176Y-59418834D01*
X14129304Y-59474767D01*
X14063840Y-59499184D01*
X14054994Y-59499500D01*
X5330959Y-59499500D01*
X5263920Y-59479815D01*
X5218165Y-59427011D01*
X5208221Y-59357853D01*
X5237246Y-59294297D01*
X5248332Y-59283041D01*
X5253941Y-59278027D01*
X5266661Y-59266661D01*
X5506194Y-58998623D01*
X5714211Y-58705452D01*
X5888094Y-58390833D01*
X6025659Y-58058724D01*
X6125173Y-57713300D01*
X6185387Y-57358907D01*
X6205543Y-57000000D01*
X6185387Y-56641093D01*
X6125173Y-56286700D01*
X6025659Y-55941276D01*
X5888094Y-55609167D01*
X5714211Y-55294548D01*
X5506194Y-55001377D01*
X5266661Y-54733339D01*
X4998623Y-54493806D01*
X4998622Y-54493805D01*
X4705454Y-54285790D01*
X4390831Y-54111905D01*
X4304086Y-54075974D01*
X4058724Y-53974341D01*
X4058720Y-53974339D01*
X4058718Y-53974339D01*
X3713305Y-53874828D01*
X3713296Y-53874826D01*
X3358914Y-53814614D01*
X3358902Y-53814612D01*
X3000000Y-53794457D01*
X2641097Y-53814612D01*
X2641085Y-53814614D01*
X2286703Y-53874826D01*
X2286694Y-53874828D01*
X1941281Y-53974339D01*
X1609168Y-54111905D01*
X1294545Y-54285790D01*
X1001377Y-54493805D01*
X733337Y-54733340D01*
X716958Y-54751669D01*
X657607Y-54788539D01*
X587746Y-54787468D01*
X529554Y-54748797D01*
X501506Y-54684804D01*
X500500Y-54669040D01*
X500500Y-33354196D01*
X520185Y-33287157D01*
X572989Y-33241402D01*
X642147Y-33231458D01*
X705703Y-33260483D01*
G37*
%TD.AperFunction*%
%TA.AperFunction,Conductor*%
G36*
X34736080Y-520185D02*
G01*
X34781835Y-572989D01*
X34791779Y-642147D01*
X34762754Y-705703D01*
X34751668Y-716959D01*
X34733343Y-733334D01*
X34493805Y-1001377D01*
X34285790Y-1294545D01*
X34111905Y-1609168D01*
X33974339Y-1941281D01*
X33874828Y-2286694D01*
X33874826Y-2286703D01*
X33814614Y-2641085D01*
X33814612Y-2641097D01*
X33794457Y-3000000D01*
X33814612Y-3358902D01*
X33814614Y-3358914D01*
X33874826Y-3713296D01*
X33874828Y-3713305D01*
X33974339Y-4058718D01*
X34111905Y-4390831D01*
X34285790Y-4705454D01*
X34493805Y-4998622D01*
X34493806Y-4998623D01*
X34733339Y-5266661D01*
X35001377Y-5506194D01*
X35294548Y-5714211D01*
X35609167Y-5888094D01*
X35941276Y-6025659D01*
X36286700Y-6125173D01*
X36641093Y-6185387D01*
X37000000Y-6205543D01*
X37358907Y-6185387D01*
X37713300Y-6125173D01*
X38058724Y-6025659D01*
X38390833Y-5888094D01*
X38705452Y-5714211D01*
X38998623Y-5506194D01*
X39266661Y-5266661D01*
X39283040Y-5248331D01*
X39342387Y-5211461D01*
X39412248Y-5212528D01*
X39470443Y-5251196D01*
X39498493Y-5315188D01*
X39499500Y-5330958D01*
X39499500Y-54669040D01*
X39479815Y-54736079D01*
X39427011Y-54781834D01*
X39357853Y-54791778D01*
X39294297Y-54762753D01*
X39283042Y-54751669D01*
X39266662Y-54733340D01*
X38998622Y-54493805D01*
X38705454Y-54285790D01*
X38390831Y-54111905D01*
X38304086Y-54075974D01*
X38058724Y-53974341D01*
X38058720Y-53974339D01*
X38058718Y-53974339D01*
X37713305Y-53874828D01*
X37713296Y-53874826D01*
X37358914Y-53814614D01*
X37358902Y-53814612D01*
X37025994Y-53795916D01*
X37000000Y-53794457D01*
X36999999Y-53794457D01*
X36840870Y-53803393D01*
X36772833Y-53787498D01*
X36724189Y-53737342D01*
X36710384Y-53668850D01*
X36735800Y-53603767D01*
X36746238Y-53591906D01*
X36780042Y-53558102D01*
X36780042Y-53558101D01*
X36780045Y-53558099D01*
X36875858Y-53414705D01*
X36941855Y-53255374D01*
X36975500Y-53086229D01*
X36975500Y-52913771D01*
X36975500Y-49464499D01*
X36995185Y-49397460D01*
X37047989Y-49351705D01*
X37099500Y-49340499D01*
X37647871Y-49340499D01*
X37647872Y-49340499D01*
X37707483Y-49334091D01*
X37842331Y-49283796D01*
X37957546Y-49197546D01*
X38043796Y-49082331D01*
X38094091Y-48947483D01*
X38100500Y-48887873D01*
X38100499Y-45792128D01*
X38094091Y-45732517D01*
X38075183Y-45681823D01*
X38043797Y-45597671D01*
X38043793Y-45597664D01*
X37957547Y-45482455D01*
X37957544Y-45482452D01*
X37842335Y-45396206D01*
X37842328Y-45396202D01*
X37707482Y-45345908D01*
X37707483Y-45345908D01*
X37647883Y-45339501D01*
X37647881Y-45339500D01*
X37647873Y-45339500D01*
X37647865Y-45339500D01*
X34558004Y-45339500D01*
X34490965Y-45319815D01*
X34445210Y-45267011D01*
X34435266Y-45197853D01*
X34464291Y-45134297D01*
X34470304Y-45127838D01*
X35390346Y-44207796D01*
X35451667Y-44174313D01*
X35521354Y-44179296D01*
X35534954Y-44184369D01*
X35534957Y-44184369D01*
X35534958Y-44184370D01*
X35814566Y-44245195D01*
X35814568Y-44245195D01*
X35814572Y-44245196D01*
X36068220Y-44263337D01*
X36099999Y-44265610D01*
X36100000Y-44265610D01*
X36100001Y-44265610D01*
X36128595Y-44263564D01*
X36385428Y-44245196D01*
X36557345Y-44207798D01*
X36665037Y-44184371D01*
X36665037Y-44184370D01*
X36665046Y-44184369D01*
X36933161Y-44084367D01*
X37184315Y-43947226D01*
X37413395Y-43775739D01*
X37615739Y-43573395D01*
X37787226Y-43344315D01*
X37924367Y-43093161D01*
X38024369Y-42825046D01*
X38085196Y-42545428D01*
X38105610Y-42260000D01*
X38085196Y-41974572D01*
X38040947Y-41771164D01*
X38024371Y-41694962D01*
X38024370Y-41694960D01*
X38024369Y-41694954D01*
X37924367Y-41426839D01*
X37919620Y-41418146D01*
X37787229Y-41175690D01*
X37787224Y-41175682D01*
X37615745Y-40946612D01*
X37615729Y-40946594D01*
X37413405Y-40744270D01*
X37413387Y-40744254D01*
X37184317Y-40572775D01*
X37184309Y-40572770D01*
X36933166Y-40435635D01*
X36933167Y-40435635D01*
X36825915Y-40395632D01*
X36665046Y-40335631D01*
X36665043Y-40335630D01*
X36665037Y-40335628D01*
X36385433Y-40274804D01*
X36100001Y-40254390D01*
X36099999Y-40254390D01*
X35814566Y-40274804D01*
X35534962Y-40335628D01*
X35266833Y-40435635D01*
X35015690Y-40572770D01*
X35015682Y-40572775D01*
X34786612Y-40744254D01*
X34786594Y-40744270D01*
X34584270Y-40946594D01*
X34584254Y-40946612D01*
X34412775Y-41175682D01*
X34412770Y-41175690D01*
X34275635Y-41426833D01*
X34175628Y-41694962D01*
X34114804Y-41974566D01*
X34094390Y-42259998D01*
X34094390Y-42260001D01*
X34114804Y-42545433D01*
X34175629Y-42825040D01*
X34175631Y-42825047D01*
X34180702Y-42838644D01*
X34185684Y-42908336D01*
X34152200Y-42969654D01*
X31924003Y-45197853D01*
X31241901Y-45879955D01*
X31180927Y-45940929D01*
X31119953Y-46001902D01*
X31024145Y-46145288D01*
X31024138Y-46145301D01*
X30958146Y-46304621D01*
X30958143Y-46304633D01*
X30924500Y-46473766D01*
X30924500Y-54785994D01*
X30904815Y-54853033D01*
X30888181Y-54873675D01*
X30283710Y-55478145D01*
X30222387Y-55511630D01*
X30152695Y-55506646D01*
X30096762Y-55464774D01*
X30072345Y-55399310D01*
X30085030Y-55335190D01*
X30098151Y-55308840D01*
X30098153Y-55308835D01*
X30156703Y-55103050D01*
X30156704Y-55103047D01*
X30176446Y-54890000D01*
X30176446Y-54889999D01*
X30156704Y-54676952D01*
X30156703Y-54676949D01*
X30098153Y-54471164D01*
X30098150Y-54471158D01*
X30005848Y-54285790D01*
X30002781Y-54279630D01*
X29873841Y-54108886D01*
X29715722Y-53964742D01*
X29715716Y-53964738D01*
X29715713Y-53964736D01*
X29533813Y-53852108D01*
X29533807Y-53852106D01*
X29334297Y-53774815D01*
X29123980Y-53735500D01*
X28910020Y-53735500D01*
X28699703Y-53774815D01*
X28596973Y-53814613D01*
X28500192Y-53852106D01*
X28500186Y-53852108D01*
X28318286Y-53964736D01*
X28318283Y-53964738D01*
X28318279Y-53964740D01*
X28318278Y-53964742D01*
X28160159Y-54108886D01*
X28160158Y-54108887D01*
X28031219Y-54279629D01*
X27935849Y-54471158D01*
X27935846Y-54471164D01*
X27877296Y-54676949D01*
X27877295Y-54676952D01*
X27857554Y-54889999D01*
X27857554Y-54890000D01*
X27877295Y-55103047D01*
X27877296Y-55103050D01*
X27935846Y-55308835D01*
X27935849Y-55308841D01*
X27980897Y-55399310D01*
X28031219Y-55500370D01*
X28160159Y-55671114D01*
X28318278Y-55815258D01*
X28318283Y-55815261D01*
X28318286Y-55815263D01*
X28500186Y-55927891D01*
X28500187Y-55927891D01*
X28500190Y-55927893D01*
X28699703Y-56005185D01*
X28910020Y-56044500D01*
X28910022Y-56044500D01*
X29123978Y-56044500D01*
X29123980Y-56044500D01*
X29334297Y-56005185D01*
X29475648Y-55950424D01*
X29545271Y-55944562D01*
X29607011Y-55977272D01*
X29641266Y-56038168D01*
X29637161Y-56107917D01*
X29608123Y-56153732D01*
X29273675Y-56488181D01*
X29212352Y-56521666D01*
X29185994Y-56524500D01*
X20214006Y-56524500D01*
X20146967Y-56504815D01*
X20126325Y-56488181D01*
X12768102Y-49129957D01*
X12768098Y-49129954D01*
X12624711Y-49034145D01*
X12624698Y-49034138D01*
X12465378Y-48968146D01*
X12465366Y-48968143D01*
X12296232Y-48934500D01*
X12296229Y-48934500D01*
X11784342Y-48934500D01*
X11717303Y-48914815D01*
X11700804Y-48902137D01*
X11681723Y-48884742D01*
X11681720Y-48884740D01*
X11499813Y-48772108D01*
X11499807Y-48772106D01*
X11300297Y-48694815D01*
X11124153Y-48661888D01*
X11061874Y-48630221D01*
X11026601Y-48569908D01*
X11029535Y-48500100D01*
X11069744Y-48442960D01*
X11124152Y-48418112D01*
X11300297Y-48385185D01*
X11499810Y-48307893D01*
X11681722Y-48195258D01*
X11839841Y-48051114D01*
X11968781Y-47880370D01*
X12064151Y-47688840D01*
X12064151Y-47688837D01*
X12064153Y-47688835D01*
X12122703Y-47483050D01*
X12122704Y-47483047D01*
X12142446Y-47270000D01*
X12142446Y-47269999D01*
X12122704Y-47056952D01*
X12122703Y-47056949D01*
X12064153Y-46851164D01*
X12064150Y-46851158D01*
X12026205Y-46774954D01*
X11968781Y-46659630D01*
X11839841Y-46488886D01*
X11681722Y-46344742D01*
X11681716Y-46344738D01*
X11681713Y-46344736D01*
X11499813Y-46232108D01*
X11499807Y-46232106D01*
X11300297Y-46154815D01*
X11124153Y-46121888D01*
X11061874Y-46090221D01*
X11026601Y-46029908D01*
X11029535Y-45960100D01*
X11069744Y-45902960D01*
X11124152Y-45878112D01*
X11300297Y-45845185D01*
X11499810Y-45767893D01*
X11681722Y-45655258D01*
X11839841Y-45511114D01*
X11968781Y-45340370D01*
X12064151Y-45148840D01*
X12064151Y-45148837D01*
X12064153Y-45148835D01*
X12122703Y-44943050D01*
X12122704Y-44943047D01*
X12142446Y-44730000D01*
X12142446Y-44729999D01*
X12122704Y-44516952D01*
X12122703Y-44516949D01*
X12064153Y-44311164D01*
X12064150Y-44311158D01*
X12031305Y-44245196D01*
X11968781Y-44119630D01*
X11839841Y-43948886D01*
X11681722Y-43804742D01*
X11681716Y-43804738D01*
X11681713Y-43804736D01*
X11499813Y-43692108D01*
X11499807Y-43692106D01*
X11300297Y-43614815D01*
X11124153Y-43581888D01*
X11061874Y-43550221D01*
X11026601Y-43489908D01*
X11029535Y-43420100D01*
X11069744Y-43362960D01*
X11124152Y-43338112D01*
X11300297Y-43305185D01*
X11499810Y-43227893D01*
X11681722Y-43115258D01*
X11684504Y-43112721D01*
X11700804Y-43097863D01*
X11763608Y-43067246D01*
X11784342Y-43065500D01*
X13396231Y-43065500D01*
X13396232Y-43065499D01*
X13565374Y-43031855D01*
X13724705Y-42965858D01*
X13868099Y-42870045D01*
X16680045Y-40058099D01*
X16775858Y-39914705D01*
X16841855Y-39755374D01*
X16875500Y-39586229D01*
X16875500Y-39413771D01*
X16875500Y-36899997D01*
X19544723Y-36899997D01*
X19544723Y-36900002D01*
X19563793Y-37117975D01*
X19563793Y-37117979D01*
X19620422Y-37329322D01*
X19620424Y-37329326D01*
X19620425Y-37329330D01*
X19666661Y-37428484D01*
X19712897Y-37527638D01*
X19737998Y-37563486D01*
X19838402Y-37706877D01*
X19993123Y-37861598D01*
X20172361Y-37987102D01*
X20370670Y-38079575D01*
X20582023Y-38136207D01*
X20764926Y-38152208D01*
X20799998Y-38155277D01*
X20800000Y-38155277D01*
X20800002Y-38155277D01*
X20828254Y-38152805D01*
X21017977Y-38136207D01*
X21229330Y-38079575D01*
X21427639Y-37987102D01*
X21606877Y-37861598D01*
X21756657Y-37711818D01*
X21817980Y-37678334D01*
X21844338Y-37675500D01*
X27935590Y-37675500D01*
X28002629Y-37695185D01*
X28034543Y-37724772D01*
X28160159Y-37891114D01*
X28318278Y-38035258D01*
X28318283Y-38035261D01*
X28318286Y-38035263D01*
X28500186Y-38147891D01*
X28500187Y-38147891D01*
X28500190Y-38147893D01*
X28699703Y-38225185D01*
X28875845Y-38258111D01*
X28938125Y-38289779D01*
X28973398Y-38350092D01*
X28970464Y-38419900D01*
X28930255Y-38477040D01*
X28875845Y-38501888D01*
X28699703Y-38534815D01*
X28592796Y-38576231D01*
X28500192Y-38612106D01*
X28500186Y-38612108D01*
X28318286Y-38724736D01*
X28318283Y-38724738D01*
X28318279Y-38724740D01*
X28318278Y-38724742D01*
X28266805Y-38771666D01*
X28160158Y-38868887D01*
X28031219Y-39039629D01*
X27935849Y-39231158D01*
X27935846Y-39231164D01*
X27877296Y-39436949D01*
X27877295Y-39436952D01*
X27857554Y-39649999D01*
X27857554Y-39650000D01*
X27877295Y-39863047D01*
X27877296Y-39863050D01*
X27935846Y-40068835D01*
X27935849Y-40068840D01*
X28031219Y-40260370D01*
X28160159Y-40431114D01*
X28318278Y-40575258D01*
X28318283Y-40575261D01*
X28318286Y-40575263D01*
X28500186Y-40687891D01*
X28500187Y-40687891D01*
X28500190Y-40687893D01*
X28699703Y-40765185D01*
X28875845Y-40798111D01*
X28938125Y-40829779D01*
X28973398Y-40890092D01*
X28970464Y-40959900D01*
X28930255Y-41017040D01*
X28875845Y-41041888D01*
X28699703Y-41074815D01*
X28573533Y-41123693D01*
X28500192Y-41152106D01*
X28500186Y-41152108D01*
X28318286Y-41264736D01*
X28318283Y-41264738D01*
X28318279Y-41264740D01*
X28318278Y-41264742D01*
X28263696Y-41314500D01*
X28160158Y-41408887D01*
X28031219Y-41579629D01*
X27935849Y-41771158D01*
X27935846Y-41771164D01*
X27877296Y-41976949D01*
X27877295Y-41976952D01*
X27857554Y-42189999D01*
X27857554Y-42190000D01*
X27877295Y-42403047D01*
X27877296Y-42403050D01*
X27935846Y-42608835D01*
X27935849Y-42608840D01*
X28031219Y-42800370D01*
X28160159Y-42971114D01*
X28318278Y-43115258D01*
X28318283Y-43115261D01*
X28318286Y-43115263D01*
X28500186Y-43227891D01*
X28500187Y-43227891D01*
X28500190Y-43227893D01*
X28699703Y-43305185D01*
X28875845Y-43338111D01*
X28938125Y-43369779D01*
X28973398Y-43430092D01*
X28970464Y-43499900D01*
X28930255Y-43557040D01*
X28875845Y-43581888D01*
X28699703Y-43614815D01*
X28573533Y-43663693D01*
X28500192Y-43692106D01*
X28500186Y-43692108D01*
X28318286Y-43804736D01*
X28318283Y-43804738D01*
X28318279Y-43804740D01*
X28318278Y-43804742D01*
X28161982Y-43947224D01*
X28160158Y-43948887D01*
X28031219Y-44119629D01*
X27935849Y-44311158D01*
X27935846Y-44311164D01*
X27877296Y-44516949D01*
X27877295Y-44516952D01*
X27857554Y-44729999D01*
X27857554Y-44730000D01*
X27877295Y-44943047D01*
X27877296Y-44943050D01*
X27935846Y-45148835D01*
X27935849Y-45148840D01*
X28031219Y-45340370D01*
X28160159Y-45511114D01*
X28318278Y-45655258D01*
X28318283Y-45655261D01*
X28318286Y-45655263D01*
X28500186Y-45767891D01*
X28500187Y-45767891D01*
X28500190Y-45767893D01*
X28699703Y-45845185D01*
X28875845Y-45878111D01*
X28938125Y-45909779D01*
X28973398Y-45970092D01*
X28970464Y-46039900D01*
X28930255Y-46097040D01*
X28875845Y-46121888D01*
X28699703Y-46154815D01*
X28573533Y-46203693D01*
X28500192Y-46232106D01*
X28500186Y-46232108D01*
X28318286Y-46344736D01*
X28318283Y-46344738D01*
X28318279Y-46344740D01*
X28318278Y-46344742D01*
X28160159Y-46488886D01*
X28160158Y-46488887D01*
X28031219Y-46659629D01*
X27935849Y-46851158D01*
X27935846Y-46851164D01*
X27877296Y-47056949D01*
X27877295Y-47056952D01*
X27857554Y-47269999D01*
X27857554Y-47270000D01*
X27877295Y-47483047D01*
X27877296Y-47483050D01*
X27935846Y-47688835D01*
X27935849Y-47688840D01*
X28031219Y-47880370D01*
X28160159Y-48051114D01*
X28318278Y-48195258D01*
X28318283Y-48195261D01*
X28318286Y-48195263D01*
X28500186Y-48307891D01*
X28500187Y-48307891D01*
X28500190Y-48307893D01*
X28699703Y-48385185D01*
X28875845Y-48418111D01*
X28938125Y-48449779D01*
X28973398Y-48510092D01*
X28970464Y-48579900D01*
X28930255Y-48637040D01*
X28875845Y-48661888D01*
X28699703Y-48694815D01*
X28573533Y-48743693D01*
X28500192Y-48772106D01*
X28500186Y-48772108D01*
X28318286Y-48884736D01*
X28318283Y-48884738D01*
X28318279Y-48884740D01*
X28318278Y-48884742D01*
X28226791Y-48968143D01*
X28160158Y-49028887D01*
X28031219Y-49199629D01*
X27935849Y-49391158D01*
X27935846Y-49391164D01*
X27877296Y-49596949D01*
X27877295Y-49596952D01*
X27857554Y-49809999D01*
X27857554Y-49810000D01*
X27877295Y-50023047D01*
X27877296Y-50023050D01*
X27935846Y-50228835D01*
X27935849Y-50228840D01*
X28031219Y-50420370D01*
X28160159Y-50591114D01*
X28318278Y-50735258D01*
X28318283Y-50735261D01*
X28318286Y-50735263D01*
X28500186Y-50847891D01*
X28500187Y-50847891D01*
X28500190Y-50847893D01*
X28699703Y-50925185D01*
X28910020Y-50964500D01*
X28910022Y-50964500D01*
X29123978Y-50964500D01*
X29123980Y-50964500D01*
X29334297Y-50925185D01*
X29533810Y-50847893D01*
X29715722Y-50735258D01*
X29873841Y-50591114D01*
X30002781Y-50420370D01*
X30098151Y-50228840D01*
X30098151Y-50228837D01*
X30098153Y-50228835D01*
X30156703Y-50023050D01*
X30156704Y-50023047D01*
X30176446Y-49810000D01*
X30176446Y-49809999D01*
X30156704Y-49596952D01*
X30156703Y-49596949D01*
X30098153Y-49391164D01*
X30098150Y-49391158D01*
X30065305Y-49325196D01*
X30002781Y-49199630D01*
X29873841Y-49028886D01*
X29715722Y-48884742D01*
X29715716Y-48884738D01*
X29715713Y-48884736D01*
X29533813Y-48772108D01*
X29533807Y-48772106D01*
X29334297Y-48694815D01*
X29158153Y-48661888D01*
X29095874Y-48630221D01*
X29060601Y-48569908D01*
X29063535Y-48500100D01*
X29103744Y-48442960D01*
X29158152Y-48418112D01*
X29334297Y-48385185D01*
X29533810Y-48307893D01*
X29715722Y-48195258D01*
X29873841Y-48051114D01*
X30002781Y-47880370D01*
X30098151Y-47688840D01*
X30098151Y-47688837D01*
X30098153Y-47688835D01*
X30156703Y-47483050D01*
X30156704Y-47483047D01*
X30176446Y-47270000D01*
X30176446Y-47269999D01*
X30156704Y-47056952D01*
X30156703Y-47056949D01*
X30098153Y-46851164D01*
X30098150Y-46851158D01*
X30060205Y-46774954D01*
X30002781Y-46659630D01*
X29873841Y-46488886D01*
X29715722Y-46344742D01*
X29715716Y-46344738D01*
X29715713Y-46344736D01*
X29533813Y-46232108D01*
X29533807Y-46232106D01*
X29334297Y-46154815D01*
X29158153Y-46121888D01*
X29095874Y-46090221D01*
X29060601Y-46029908D01*
X29063535Y-45960100D01*
X29103744Y-45902960D01*
X29158152Y-45878112D01*
X29334297Y-45845185D01*
X29533810Y-45767893D01*
X29715722Y-45655258D01*
X29873841Y-45511114D01*
X30002781Y-45340370D01*
X30098151Y-45148840D01*
X30098151Y-45148837D01*
X30098153Y-45148835D01*
X30156703Y-44943050D01*
X30156704Y-44943047D01*
X30176446Y-44730000D01*
X30176446Y-44729999D01*
X30156704Y-44516952D01*
X30156703Y-44516949D01*
X30098153Y-44311164D01*
X30098150Y-44311158D01*
X30065305Y-44245196D01*
X30002781Y-44119630D01*
X29873841Y-43948886D01*
X29715722Y-43804742D01*
X29715716Y-43804738D01*
X29715713Y-43804736D01*
X29533813Y-43692108D01*
X29533807Y-43692106D01*
X29334297Y-43614815D01*
X29158153Y-43581888D01*
X29095874Y-43550221D01*
X29060601Y-43489908D01*
X29063535Y-43420100D01*
X29103744Y-43362960D01*
X29158152Y-43338112D01*
X29334297Y-43305185D01*
X29533810Y-43227893D01*
X29715722Y-43115258D01*
X29873841Y-42971114D01*
X30002781Y-42800370D01*
X30098151Y-42608840D01*
X30098151Y-42608837D01*
X30098153Y-42608835D01*
X30156703Y-42403050D01*
X30156704Y-42403047D01*
X30176446Y-42190000D01*
X30176446Y-42189999D01*
X30156704Y-41976952D01*
X30156703Y-41976949D01*
X30098153Y-41771164D01*
X30098150Y-41771158D01*
X30060205Y-41694954D01*
X30002781Y-41579630D01*
X29873841Y-41408886D01*
X29715722Y-41264742D01*
X29715716Y-41264738D01*
X29715713Y-41264736D01*
X29533813Y-41152108D01*
X29533807Y-41152106D01*
X29334297Y-41074815D01*
X29158153Y-41041888D01*
X29095874Y-41010221D01*
X29060601Y-40949908D01*
X29063535Y-40880100D01*
X29103744Y-40822960D01*
X29158152Y-40798112D01*
X29334297Y-40765185D01*
X29533810Y-40687893D01*
X29715722Y-40575258D01*
X29873841Y-40431114D01*
X30002781Y-40260370D01*
X30098151Y-40068840D01*
X30098151Y-40068837D01*
X30098153Y-40068835D01*
X30131679Y-39951000D01*
X30156704Y-39863048D01*
X30176446Y-39650000D01*
X30156704Y-39436952D01*
X30148200Y-39407065D01*
X30098153Y-39231164D01*
X30098150Y-39231158D01*
X30069527Y-39173675D01*
X30002781Y-39039630D01*
X29873841Y-38868886D01*
X29715722Y-38724742D01*
X29715716Y-38724738D01*
X29715713Y-38724736D01*
X29533813Y-38612108D01*
X29533807Y-38612106D01*
X29334297Y-38534815D01*
X29158153Y-38501888D01*
X29095874Y-38470221D01*
X29060601Y-38409908D01*
X29063535Y-38340100D01*
X29103744Y-38282960D01*
X29158152Y-38258112D01*
X29334297Y-38225185D01*
X29533810Y-38147893D01*
X29715722Y-38035258D01*
X29873841Y-37891114D01*
X30002781Y-37720370D01*
X30098151Y-37528840D01*
X30098151Y-37528837D01*
X30098153Y-37528835D01*
X30154916Y-37329331D01*
X30156704Y-37323048D01*
X30176446Y-37110000D01*
X30156704Y-36896952D01*
X30148200Y-36867065D01*
X30098153Y-36691164D01*
X30098150Y-36691158D01*
X30070198Y-36635023D01*
X30002781Y-36499630D01*
X29873841Y-36328886D01*
X29715722Y-36184742D01*
X29715716Y-36184738D01*
X29715713Y-36184736D01*
X29533813Y-36072108D01*
X29533807Y-36072106D01*
X29516102Y-36065247D01*
X29334297Y-35994815D01*
X29123980Y-35955500D01*
X29123978Y-35955500D01*
X28961288Y-35955500D01*
X28937097Y-35953117D01*
X28793232Y-35924500D01*
X28793229Y-35924500D01*
X21626121Y-35924500D01*
X21559082Y-35904815D01*
X21554998Y-35902075D01*
X21427643Y-35812900D01*
X21427639Y-35812898D01*
X21229330Y-35720425D01*
X21229326Y-35720424D01*
X21229322Y-35720422D01*
X21017977Y-35663793D01*
X20800002Y-35644723D01*
X20799998Y-35644723D01*
X20654682Y-35657436D01*
X20582023Y-35663793D01*
X20582020Y-35663793D01*
X20370677Y-35720422D01*
X20370668Y-35720426D01*
X20172361Y-35812898D01*
X20172357Y-35812900D01*
X19993121Y-35938402D01*
X19838402Y-36093121D01*
X19712900Y-36272357D01*
X19712898Y-36272361D01*
X19620426Y-36470668D01*
X19620422Y-36470677D01*
X19563793Y-36682020D01*
X19563793Y-36682024D01*
X19544723Y-36899997D01*
X16875500Y-36899997D01*
X16875500Y-33114006D01*
X16895185Y-33046967D01*
X16911819Y-33026325D01*
X18226325Y-31711819D01*
X18287648Y-31678334D01*
X18314006Y-31675500D01*
X26786231Y-31675500D01*
X26786232Y-31675499D01*
X26955374Y-31641855D01*
X27114705Y-31575858D01*
X27258099Y-31480045D01*
X28880045Y-29858099D01*
X28975858Y-29714705D01*
X29041855Y-29555374D01*
X29075500Y-29386229D01*
X29075500Y-29213771D01*
X29075500Y-24914006D01*
X29095185Y-24846967D01*
X29111819Y-24826325D01*
X29740042Y-24198102D01*
X29740045Y-24198099D01*
X29767837Y-24156505D01*
X29808527Y-24095608D01*
X29862137Y-24050804D01*
X29911628Y-24040500D01*
X31021993Y-24040500D01*
X31089032Y-24060185D01*
X31134787Y-24112989D01*
X31144731Y-24182147D01*
X31115706Y-24245703D01*
X31109674Y-24252181D01*
X30166857Y-25194999D01*
X29641901Y-25719955D01*
X29609404Y-25752452D01*
X29519953Y-25841902D01*
X29424145Y-25985288D01*
X29424138Y-25985301D01*
X29358146Y-26144621D01*
X29358143Y-26144633D01*
X29324500Y-26313766D01*
X29324500Y-32486233D01*
X29358143Y-32655366D01*
X29358146Y-32655378D01*
X29424138Y-32814698D01*
X29424145Y-32814711D01*
X29519954Y-32958098D01*
X29519957Y-32958102D01*
X31541037Y-34979181D01*
X31574522Y-35040504D01*
X31569538Y-35110196D01*
X31554931Y-35137985D01*
X31425965Y-35322169D01*
X31425964Y-35322171D01*
X31326098Y-35536335D01*
X31326094Y-35536344D01*
X31264938Y-35764586D01*
X31264936Y-35764596D01*
X31244341Y-35999999D01*
X31244341Y-36000000D01*
X31264936Y-36235403D01*
X31264938Y-36235413D01*
X31326094Y-36463655D01*
X31326096Y-36463659D01*
X31326097Y-36463663D01*
X31342869Y-36499630D01*
X31425965Y-36677830D01*
X31425967Y-36677834D01*
X31534281Y-36832521D01*
X31561505Y-36871401D01*
X31728599Y-37038495D01*
X31825384Y-37106265D01*
X31922165Y-37174032D01*
X31922167Y-37174033D01*
X31922170Y-37174035D01*
X32136337Y-37273903D01*
X32364592Y-37335063D01*
X32552918Y-37351539D01*
X32599999Y-37355659D01*
X32600000Y-37355659D01*
X32600001Y-37355659D01*
X32639234Y-37352226D01*
X32835408Y-37335063D01*
X33063663Y-37273903D01*
X33277830Y-37174035D01*
X33471401Y-37038495D01*
X33638495Y-36871401D01*
X33768425Y-36685842D01*
X33823002Y-36642217D01*
X33892500Y-36635023D01*
X33954855Y-36666546D01*
X33971575Y-36685842D01*
X34101500Y-36871395D01*
X34101505Y-36871401D01*
X34268599Y-37038495D01*
X34365384Y-37106265D01*
X34462165Y-37174032D01*
X34462167Y-37174033D01*
X34462170Y-37174035D01*
X34676337Y-37273903D01*
X34904592Y-37335063D01*
X35092918Y-37351539D01*
X35139999Y-37355659D01*
X35140000Y-37355659D01*
X35140001Y-37355659D01*
X35179234Y-37352226D01*
X35375408Y-37335063D01*
X35603663Y-37273903D01*
X35817830Y-37174035D01*
X36011401Y-37038495D01*
X36178495Y-36871401D01*
X36314035Y-36677830D01*
X36413903Y-36463663D01*
X36475063Y-36235408D01*
X36495659Y-36000000D01*
X36495027Y-35992782D01*
X36475063Y-35764596D01*
X36475063Y-35764592D01*
X36413903Y-35536337D01*
X36314035Y-35322171D01*
X36308425Y-35314158D01*
X36178494Y-35128597D01*
X36051819Y-35001922D01*
X36018334Y-34940599D01*
X36015500Y-34914241D01*
X36015500Y-34453768D01*
X36015499Y-34453766D01*
X35988489Y-34317977D01*
X35981855Y-34284626D01*
X35964158Y-34241901D01*
X35915861Y-34125301D01*
X35915854Y-34125288D01*
X35820046Y-33981902D01*
X35820045Y-33981901D01*
X35698099Y-33859955D01*
X34111819Y-32273675D01*
X34078334Y-32212352D01*
X34075500Y-32185994D01*
X34075500Y-28488253D01*
X34095185Y-28421214D01*
X34147989Y-28375459D01*
X34217147Y-28365515D01*
X34238490Y-28370543D01*
X34297203Y-28389999D01*
X34399991Y-28400500D01*
X37600008Y-28400499D01*
X37702797Y-28389999D01*
X37869334Y-28334814D01*
X38018656Y-28242712D01*
X38142712Y-28118656D01*
X38234814Y-27969334D01*
X38289999Y-27802797D01*
X38300500Y-27700009D01*
X38300499Y-26299992D01*
X38289999Y-26197203D01*
X38234814Y-26030666D01*
X38142712Y-25881344D01*
X38018656Y-25757288D01*
X37925888Y-25700069D01*
X37869336Y-25665187D01*
X37869331Y-25665185D01*
X37702795Y-25610000D01*
X37698533Y-25609088D01*
X37637102Y-25575801D01*
X37603419Y-25514586D01*
X37600500Y-25487837D01*
X37600500Y-23790416D01*
X37620185Y-23723377D01*
X37622910Y-23719313D01*
X37687102Y-23627639D01*
X37779575Y-23429330D01*
X37836207Y-23217977D01*
X37855277Y-23000000D01*
X37836207Y-22782023D01*
X37779575Y-22570670D01*
X37687102Y-22372362D01*
X37651223Y-22321122D01*
X37628897Y-22254918D01*
X37645907Y-22187150D01*
X37651216Y-22178888D01*
X37687102Y-22127639D01*
X37779575Y-21929330D01*
X37836207Y-21717977D01*
X37854264Y-21511575D01*
X37855277Y-21500002D01*
X37855277Y-21499997D01*
X37851515Y-21456998D01*
X37836207Y-21282023D01*
X37779575Y-21070670D01*
X37687102Y-20872362D01*
X37687100Y-20872359D01*
X37687099Y-20872357D01*
X37622925Y-20780707D01*
X37600598Y-20714501D01*
X37600500Y-20709584D01*
X37600500Y-20297588D01*
X37620185Y-20230549D01*
X37622925Y-20226465D01*
X37730568Y-20072734D01*
X37826739Y-19866496D01*
X37885635Y-19646692D01*
X37905468Y-19420000D01*
X37885635Y-19193308D01*
X37826739Y-18973504D01*
X37730568Y-18767266D01*
X37600047Y-18580861D01*
X37600045Y-18580858D01*
X37439141Y-18419954D01*
X37252734Y-18289432D01*
X37252732Y-18289431D01*
X37046497Y-18193261D01*
X37046488Y-18193258D01*
X36826697Y-18134366D01*
X36826693Y-18134365D01*
X36826692Y-18134365D01*
X36826691Y-18134364D01*
X36826686Y-18134364D01*
X36600002Y-18114532D01*
X36599998Y-18114532D01*
X36373313Y-18134364D01*
X36373302Y-18134366D01*
X36153511Y-18193258D01*
X36153502Y-18193261D01*
X35947267Y-18289431D01*
X35947265Y-18289432D01*
X35760858Y-18419954D01*
X35599954Y-18580858D01*
X35469432Y-18767265D01*
X35469431Y-18767267D01*
X35373261Y-18973502D01*
X35373258Y-18973511D01*
X35314366Y-19193302D01*
X35314364Y-19193313D01*
X35294532Y-19419998D01*
X35294532Y-19420001D01*
X35314364Y-19646686D01*
X35314366Y-19646697D01*
X35373258Y-19866488D01*
X35373261Y-19866497D01*
X35469431Y-20072732D01*
X35469432Y-20072734D01*
X35577075Y-20226465D01*
X35599402Y-20292671D01*
X35599500Y-20297588D01*
X35599500Y-20709584D01*
X35579815Y-20776623D01*
X35577075Y-20780707D01*
X35512900Y-20872357D01*
X35512898Y-20872361D01*
X35420426Y-21070668D01*
X35420422Y-21070677D01*
X35363793Y-21282020D01*
X35363793Y-21282023D01*
X35361778Y-21305051D01*
X35344723Y-21499997D01*
X35344723Y-21500002D01*
X35353934Y-21605288D01*
X35363790Y-21717948D01*
X35363793Y-21717975D01*
X35363793Y-21717979D01*
X35420422Y-21929322D01*
X35420424Y-21929326D01*
X35420425Y-21929330D01*
X35512898Y-22127639D01*
X35548775Y-22178877D01*
X35571102Y-22245083D01*
X35554092Y-22312850D01*
X35548776Y-22321122D01*
X35512897Y-22372363D01*
X35420426Y-22570668D01*
X35420422Y-22570677D01*
X35363793Y-22782020D01*
X35363793Y-22782023D01*
X35344723Y-23000000D01*
X35362956Y-23208414D01*
X35363793Y-23217975D01*
X35363793Y-23217979D01*
X35420422Y-23429322D01*
X35420424Y-23429326D01*
X35420425Y-23429330D01*
X35435193Y-23461000D01*
X35512897Y-23627638D01*
X35512898Y-23627639D01*
X35577075Y-23719293D01*
X35599402Y-23785498D01*
X35599500Y-23790416D01*
X35599500Y-25475500D01*
X35579815Y-25542539D01*
X35527011Y-25588294D01*
X35475500Y-25599500D01*
X34399998Y-25599500D01*
X34399981Y-25599501D01*
X34297203Y-25610000D01*
X34297200Y-25610001D01*
X34130668Y-25665185D01*
X34130663Y-25665187D01*
X33981342Y-25757289D01*
X33857289Y-25881342D01*
X33765187Y-26030663D01*
X33765185Y-26030668D01*
X33710000Y-26197207D01*
X33709999Y-26197211D01*
X33707461Y-26222046D01*
X33681063Y-26286737D01*
X33652999Y-26312539D01*
X33641898Y-26319956D01*
X33641897Y-26319957D01*
X32883755Y-27078101D01*
X32641901Y-27319955D01*
X32580927Y-27380929D01*
X32519953Y-27441902D01*
X32424145Y-27585288D01*
X32424138Y-27585301D01*
X32358146Y-27744621D01*
X32358143Y-27744633D01*
X32324500Y-27913766D01*
X32324500Y-32686233D01*
X32358143Y-32855366D01*
X32358146Y-32855378D01*
X32424138Y-33014698D01*
X32424145Y-33014711D01*
X32472344Y-33086845D01*
X32493222Y-33153522D01*
X32474738Y-33220903D01*
X32422759Y-33267593D01*
X32353789Y-33278769D01*
X32289725Y-33250884D01*
X32281561Y-33243417D01*
X31111819Y-32073675D01*
X31078334Y-32012352D01*
X31075500Y-31985994D01*
X31075500Y-26814006D01*
X31095185Y-26746967D01*
X31111819Y-26726325D01*
X34280042Y-23558102D01*
X34280045Y-23558099D01*
X34375858Y-23414705D01*
X34441855Y-23255374D01*
X34475500Y-23086229D01*
X34475500Y-22913771D01*
X34475500Y-16513771D01*
X34475500Y-16513768D01*
X34475499Y-16513766D01*
X34463800Y-16454951D01*
X34441855Y-16344626D01*
X34423825Y-16301097D01*
X34375861Y-16185301D01*
X34375854Y-16185288D01*
X34280046Y-16041902D01*
X34219963Y-15981819D01*
X34158099Y-15919955D01*
X33414430Y-15176286D01*
X32628102Y-14389957D01*
X32628098Y-14389954D01*
X32484711Y-14294145D01*
X32484698Y-14294138D01*
X32325378Y-14228146D01*
X32325366Y-14228143D01*
X32156232Y-14194500D01*
X32156229Y-14194500D01*
X32145758Y-14194500D01*
X32078719Y-14174815D01*
X32058077Y-14158181D01*
X31939786Y-14039890D01*
X31767820Y-13914951D01*
X31765133Y-13913582D01*
X31759054Y-13910485D01*
X31708259Y-13862512D01*
X31691463Y-13794692D01*
X31713999Y-13728556D01*
X31759054Y-13689515D01*
X31767816Y-13685051D01*
X31789789Y-13669086D01*
X31939786Y-13560109D01*
X31939788Y-13560106D01*
X31939792Y-13560104D01*
X32090104Y-13409792D01*
X32090106Y-13409788D01*
X32090109Y-13409786D01*
X32215048Y-13237820D01*
X32215047Y-13237820D01*
X32215051Y-13237816D01*
X32311557Y-13048412D01*
X32377246Y-12846243D01*
X32410500Y-12636287D01*
X32410500Y-12423713D01*
X32377246Y-12213757D01*
X32311557Y-12011588D01*
X32215051Y-11822184D01*
X32215049Y-11822181D01*
X32215048Y-11822179D01*
X32090109Y-11650213D01*
X31939786Y-11499890D01*
X31767820Y-11374951D01*
X31578414Y-11278444D01*
X31578413Y-11278443D01*
X31578412Y-11278443D01*
X31376243Y-11212754D01*
X31376241Y-11212753D01*
X31376240Y-11212753D01*
X31214957Y-11187208D01*
X31166287Y-11179500D01*
X28953713Y-11179500D01*
X28905042Y-11187208D01*
X28743760Y-11212753D01*
X28541585Y-11278444D01*
X28352179Y-11374951D01*
X28180213Y-11499890D01*
X28180209Y-11499894D01*
X28061923Y-11618181D01*
X28000600Y-11651666D01*
X27974242Y-11654500D01*
X22983768Y-11654500D01*
X22814633Y-11688143D01*
X22814621Y-11688146D01*
X22655301Y-11754138D01*
X22655288Y-11754145D01*
X22511901Y-11849954D01*
X22511897Y-11849957D01*
X17719339Y-16642517D01*
X16141901Y-18219955D01*
X16109026Y-18252830D01*
X16019953Y-18341902D01*
X15924145Y-18485288D01*
X15924138Y-18485301D01*
X15858146Y-18644621D01*
X15858143Y-18644633D01*
X15824500Y-18813766D01*
X15824500Y-25475500D01*
X15804815Y-25542539D01*
X15752011Y-25588294D01*
X15700500Y-25599500D01*
X15152129Y-25599500D01*
X15152123Y-25599501D01*
X15092516Y-25605908D01*
X14957671Y-25656202D01*
X14957669Y-25656204D01*
X14883811Y-25711494D01*
X14818347Y-25735911D01*
X14750074Y-25721059D01*
X14700668Y-25671654D01*
X14685500Y-25612227D01*
X14685500Y-23725758D01*
X14705185Y-23658719D01*
X14721819Y-23638077D01*
X14732258Y-23627638D01*
X14790104Y-23569792D01*
X14790106Y-23569788D01*
X14790109Y-23569786D01*
X14902776Y-23414711D01*
X14915051Y-23397816D01*
X15011557Y-23208412D01*
X15077246Y-23006243D01*
X15110500Y-22796287D01*
X15110500Y-22583713D01*
X15077246Y-22373757D01*
X15011557Y-22171588D01*
X14915051Y-21982184D01*
X14915049Y-21982181D01*
X14915048Y-21982179D01*
X14790109Y-21810213D01*
X14639786Y-21659890D01*
X14467820Y-21534951D01*
X14467115Y-21534591D01*
X14459054Y-21530485D01*
X14408259Y-21482512D01*
X14391463Y-21414692D01*
X14413999Y-21348556D01*
X14459054Y-21309515D01*
X14467816Y-21305051D01*
X14499516Y-21282020D01*
X14639786Y-21180109D01*
X14639788Y-21180106D01*
X14639792Y-21180104D01*
X14790104Y-21029792D01*
X14790106Y-21029788D01*
X14790109Y-21029786D01*
X14904483Y-20872362D01*
X14915051Y-20857816D01*
X15011557Y-20668412D01*
X15077246Y-20466243D01*
X15110500Y-20256287D01*
X15110500Y-20043713D01*
X15077246Y-19833757D01*
X15011557Y-19631588D01*
X14915051Y-19442184D01*
X14915049Y-19442181D01*
X14915048Y-19442179D01*
X14790109Y-19270213D01*
X14639786Y-19119890D01*
X14467820Y-18994951D01*
X14467115Y-18994591D01*
X14459054Y-18990485D01*
X14408259Y-18942512D01*
X14391463Y-18874692D01*
X14413999Y-18808556D01*
X14459054Y-18769515D01*
X14467816Y-18765051D01*
X14567902Y-18692335D01*
X14639786Y-18640109D01*
X14639788Y-18640106D01*
X14639792Y-18640104D01*
X14790104Y-18489792D01*
X14790106Y-18489788D01*
X14790109Y-18489786D01*
X14915048Y-18317820D01*
X14915047Y-18317820D01*
X14915051Y-18317816D01*
X15011557Y-18128412D01*
X15077246Y-17926243D01*
X15110500Y-17716287D01*
X15110500Y-17503713D01*
X15077246Y-17293757D01*
X15011557Y-17091588D01*
X14915051Y-16902184D01*
X14915049Y-16902181D01*
X14915048Y-16902179D01*
X14790109Y-16730213D01*
X14639786Y-16579890D01*
X14467820Y-16454951D01*
X14467115Y-16454591D01*
X14459054Y-16450485D01*
X14408259Y-16402512D01*
X14391463Y-16334692D01*
X14413999Y-16268556D01*
X14459054Y-16229515D01*
X14467816Y-16225051D01*
X14522536Y-16185295D01*
X14639786Y-16100109D01*
X14639788Y-16100106D01*
X14639792Y-16100104D01*
X14790104Y-15949792D01*
X14790106Y-15949788D01*
X14790109Y-15949786D01*
X14915048Y-15777820D01*
X14915047Y-15777820D01*
X14915051Y-15777816D01*
X15011557Y-15588412D01*
X15077246Y-15386243D01*
X15110500Y-15176287D01*
X15110500Y-14963713D01*
X15077246Y-14753757D01*
X15011557Y-14551588D01*
X14915051Y-14362184D01*
X14915049Y-14362181D01*
X14915048Y-14362179D01*
X14790109Y-14190213D01*
X14639786Y-14039890D01*
X14467820Y-13914951D01*
X14465133Y-13913582D01*
X14459054Y-13910485D01*
X14408259Y-13862512D01*
X14391463Y-13794692D01*
X14413999Y-13728556D01*
X14459054Y-13689515D01*
X14467816Y-13685051D01*
X14489789Y-13669086D01*
X14639786Y-13560109D01*
X14639788Y-13560106D01*
X14639792Y-13560104D01*
X14790104Y-13409792D01*
X14790106Y-13409788D01*
X14790109Y-13409786D01*
X14915048Y-13237820D01*
X14915047Y-13237820D01*
X14915051Y-13237816D01*
X15011557Y-13048412D01*
X15077246Y-12846243D01*
X15110500Y-12636287D01*
X15110500Y-12423713D01*
X15077246Y-12213757D01*
X15011557Y-12011588D01*
X14915051Y-11822184D01*
X14915049Y-11822181D01*
X14915048Y-11822179D01*
X14790109Y-11650213D01*
X14639786Y-11499890D01*
X14467820Y-11374951D01*
X14467115Y-11374591D01*
X14459054Y-11370485D01*
X14408259Y-11322512D01*
X14391463Y-11254692D01*
X14413999Y-11188556D01*
X14459054Y-11149515D01*
X14467816Y-11145051D01*
X14547577Y-11087102D01*
X14639786Y-11020109D01*
X14639788Y-11020106D01*
X14639792Y-11020104D01*
X14748077Y-10911819D01*
X14809400Y-10878334D01*
X14835758Y-10875500D01*
X16155663Y-10875500D01*
X16222702Y-10895185D01*
X16243344Y-10911819D01*
X16293123Y-10961598D01*
X16472361Y-11087102D01*
X16670670Y-11179575D01*
X16882023Y-11236207D01*
X17064926Y-11252208D01*
X17099998Y-11255277D01*
X17100000Y-11255277D01*
X17100002Y-11255277D01*
X17128254Y-11252805D01*
X17317977Y-11236207D01*
X17529330Y-11179575D01*
X17727639Y-11087102D01*
X17906877Y-10961598D01*
X18061598Y-10806877D01*
X18187102Y-10627639D01*
X18279575Y-10429330D01*
X18336207Y-10217977D01*
X18355277Y-10000000D01*
X18336207Y-9782023D01*
X18279575Y-9570670D01*
X18187102Y-9372362D01*
X18187100Y-9372359D01*
X18187099Y-9372357D01*
X18061599Y-9193124D01*
X17990141Y-9121666D01*
X17906877Y-9038402D01*
X17768978Y-8941844D01*
X17727638Y-8912897D01*
X17598617Y-8852734D01*
X17529330Y-8820425D01*
X17529326Y-8820424D01*
X17529322Y-8820422D01*
X17317977Y-8763793D01*
X17100002Y-8744723D01*
X17099998Y-8744723D01*
X16954682Y-8757436D01*
X16882023Y-8763793D01*
X16882020Y-8763793D01*
X16670677Y-8820422D01*
X16670668Y-8820426D01*
X16472361Y-8912898D01*
X16472357Y-8912900D01*
X16293121Y-9038402D01*
X16243345Y-9088180D01*
X16182022Y-9121666D01*
X16155663Y-9124500D01*
X14855758Y-9124500D01*
X14788719Y-9104815D01*
X14768077Y-9088181D01*
X14662986Y-8983090D01*
X14629501Y-8921767D01*
X14634485Y-8852075D01*
X14676357Y-8796142D01*
X14707335Y-8779227D01*
X14802326Y-8743798D01*
X14802326Y-8743797D01*
X14802331Y-8743796D01*
X14917546Y-8657546D01*
X15003796Y-8542331D01*
X15054091Y-8407483D01*
X15060500Y-8347873D01*
X15060499Y-7343713D01*
X27709500Y-7343713D01*
X27709500Y-7556287D01*
X27742754Y-7766243D01*
X27779296Y-7878708D01*
X27808444Y-7968414D01*
X27904951Y-8157820D01*
X28029890Y-8329786D01*
X28180213Y-8480109D01*
X28352179Y-8605048D01*
X28352181Y-8605049D01*
X28352184Y-8605051D01*
X28541588Y-8701557D01*
X28743757Y-8767246D01*
X28953713Y-8800500D01*
X28953714Y-8800500D01*
X31166286Y-8800500D01*
X31166287Y-8800500D01*
X31376243Y-8767246D01*
X31578412Y-8701557D01*
X31767816Y-8605051D01*
X31854138Y-8542335D01*
X31939786Y-8480109D01*
X31939788Y-8480106D01*
X31939792Y-8480104D01*
X32018077Y-8401819D01*
X32079400Y-8368334D01*
X32105758Y-8365500D01*
X32702820Y-8365500D01*
X32769859Y-8385185D01*
X32815614Y-8437989D01*
X32822595Y-8457407D01*
X32873258Y-8646488D01*
X32873261Y-8646497D01*
X32969431Y-8852732D01*
X32969432Y-8852734D01*
X33099951Y-9039137D01*
X33099952Y-9039138D01*
X33099953Y-9039139D01*
X33188182Y-9127368D01*
X33221666Y-9188689D01*
X33224500Y-9215048D01*
X33224500Y-9386233D01*
X33258143Y-9555366D01*
X33258146Y-9555378D01*
X33324138Y-9714698D01*
X33324145Y-9714711D01*
X33419954Y-9858098D01*
X33419957Y-9858102D01*
X35263181Y-11701325D01*
X35296666Y-11762648D01*
X35299500Y-11789006D01*
X35299500Y-12647870D01*
X35299501Y-12647876D01*
X35305908Y-12707483D01*
X35356202Y-12842328D01*
X35356206Y-12842335D01*
X35442452Y-12957544D01*
X35442455Y-12957547D01*
X35557664Y-13043793D01*
X35557671Y-13043797D01*
X35692517Y-13094091D01*
X35692516Y-13094091D01*
X35699444Y-13094835D01*
X35752127Y-13100500D01*
X37447872Y-13100499D01*
X37507483Y-13094091D01*
X37642331Y-13043796D01*
X37757546Y-12957546D01*
X37843796Y-12842331D01*
X37894091Y-12707483D01*
X37900500Y-12647873D01*
X37900499Y-10952128D01*
X37894091Y-10892517D01*
X37862149Y-10806877D01*
X37843797Y-10757671D01*
X37843793Y-10757664D01*
X37757547Y-10642455D01*
X37757544Y-10642452D01*
X37642335Y-10556206D01*
X37642328Y-10556202D01*
X37507482Y-10505908D01*
X37507483Y-10505908D01*
X37447883Y-10499501D01*
X37447881Y-10499500D01*
X37447873Y-10499500D01*
X37447865Y-10499500D01*
X36589006Y-10499500D01*
X36521967Y-10479815D01*
X36501325Y-10463181D01*
X35164244Y-9126100D01*
X35130759Y-9064777D01*
X35135743Y-8995085D01*
X35150343Y-8967307D01*
X35230568Y-8852734D01*
X35326739Y-8646496D01*
X35385635Y-8426692D01*
X35405468Y-8200000D01*
X35405338Y-8198518D01*
X35393758Y-8066153D01*
X35385635Y-7973308D01*
X35326739Y-7753504D01*
X35230568Y-7547266D01*
X35100047Y-7360861D01*
X35100045Y-7360858D01*
X34939141Y-7199954D01*
X34752734Y-7069432D01*
X34752732Y-7069431D01*
X34546497Y-6973261D01*
X34546488Y-6973258D01*
X34326697Y-6914366D01*
X34326693Y-6914365D01*
X34326692Y-6914365D01*
X34326691Y-6914364D01*
X34326686Y-6914364D01*
X34100002Y-6894532D01*
X34099997Y-6894532D01*
X34095685Y-6894909D01*
X34027186Y-6881138D01*
X33997204Y-6859060D01*
X33948102Y-6809957D01*
X33948098Y-6809954D01*
X33804711Y-6714145D01*
X33804698Y-6714138D01*
X33645378Y-6648146D01*
X33645366Y-6648143D01*
X33476232Y-6614500D01*
X33476229Y-6614500D01*
X32185097Y-6614500D01*
X32118058Y-6594815D01*
X32093671Y-6573530D01*
X32093549Y-6573653D01*
X32091747Y-6571851D01*
X32090804Y-6571028D01*
X32090101Y-6570205D01*
X31939786Y-6419890D01*
X31767820Y-6294951D01*
X31578414Y-6198444D01*
X31578413Y-6198443D01*
X31578412Y-6198443D01*
X31376243Y-6132754D01*
X31376241Y-6132753D01*
X31376240Y-6132753D01*
X31214957Y-6107208D01*
X31166287Y-6099500D01*
X28953713Y-6099500D01*
X28905042Y-6107208D01*
X28743760Y-6132753D01*
X28541585Y-6198444D01*
X28352179Y-6294951D01*
X28180213Y-6419890D01*
X28029890Y-6570213D01*
X27904951Y-6742179D01*
X27808444Y-6931585D01*
X27742753Y-7133760D01*
X27732269Y-7199954D01*
X27709500Y-7343713D01*
X15060499Y-7343713D01*
X15060499Y-6552128D01*
X15054091Y-6492517D01*
X15053083Y-6489815D01*
X15003797Y-6357671D01*
X15003793Y-6357664D01*
X14917547Y-6242455D01*
X14917544Y-6242452D01*
X14802335Y-6156206D01*
X14802328Y-6156202D01*
X14667482Y-6105908D01*
X14667483Y-6105908D01*
X14607883Y-6099501D01*
X14607881Y-6099500D01*
X14607873Y-6099500D01*
X14607865Y-6099500D01*
X13899500Y-6099500D01*
X13832461Y-6079815D01*
X13786706Y-6027011D01*
X13775500Y-5975500D01*
X13775500Y-4824499D01*
X13795185Y-4757460D01*
X13847989Y-4711705D01*
X13899500Y-4700499D01*
X14447871Y-4700499D01*
X14447872Y-4700499D01*
X14507483Y-4694091D01*
X14642331Y-4643796D01*
X14757546Y-4557546D01*
X14843796Y-4442331D01*
X14894091Y-4307483D01*
X14900500Y-4247873D01*
X14900499Y-1152128D01*
X14894091Y-1092517D01*
X14843796Y-957669D01*
X14843795Y-957668D01*
X14843793Y-957664D01*
X14757547Y-842455D01*
X14757544Y-842452D01*
X14642335Y-756206D01*
X14642328Y-756202D01*
X14600715Y-740682D01*
X14544781Y-698811D01*
X14520364Y-633347D01*
X14535215Y-565074D01*
X14584620Y-515668D01*
X14644048Y-500500D01*
X34669041Y-500500D01*
X34736080Y-520185D01*
G37*
%TD.AperFunction*%
%TA.AperFunction,Conductor*%
G36*
X4356280Y-21010185D02*
G01*
X4376922Y-21026818D01*
X4528599Y-21178495D01*
X4528602Y-21178497D01*
X4528603Y-21178498D01*
X4714158Y-21308425D01*
X4757783Y-21363002D01*
X4764977Y-21432500D01*
X4733454Y-21494855D01*
X4714158Y-21511575D01*
X4528597Y-21641505D01*
X4361505Y-21808597D01*
X4225965Y-22002169D01*
X4225964Y-22002171D01*
X4126098Y-22216335D01*
X4126094Y-22216344D01*
X4064938Y-22444586D01*
X4064936Y-22444596D01*
X4044341Y-22679999D01*
X4044341Y-22680000D01*
X4064936Y-22915403D01*
X4064938Y-22915413D01*
X4126094Y-23143655D01*
X4126096Y-23143659D01*
X4126097Y-23143663D01*
X4178185Y-23255366D01*
X4225965Y-23357830D01*
X4225967Y-23357834D01*
X4298205Y-23461000D01*
X4361505Y-23551401D01*
X4528599Y-23718495D01*
X4624289Y-23785498D01*
X4722165Y-23854032D01*
X4722167Y-23854033D01*
X4722170Y-23854035D01*
X4936337Y-23953903D01*
X5164592Y-24015063D01*
X5352918Y-24031539D01*
X5399999Y-24035659D01*
X5400000Y-24035659D01*
X5400001Y-24035659D01*
X5439234Y-24032226D01*
X5635408Y-24015063D01*
X5863663Y-23953903D01*
X6077830Y-23854035D01*
X6271401Y-23718495D01*
X6273077Y-23716819D01*
X6273995Y-23716317D01*
X6275544Y-23715018D01*
X6275805Y-23715329D01*
X6334400Y-23683334D01*
X6360758Y-23680500D01*
X6414218Y-23680500D01*
X6481257Y-23700185D01*
X6501899Y-23716819D01*
X9863181Y-27078101D01*
X9896666Y-27139424D01*
X9899500Y-27165782D01*
X9899500Y-29222410D01*
X9879815Y-29289449D01*
X9877076Y-29293532D01*
X9769431Y-29447267D01*
X9673261Y-29653502D01*
X9673258Y-29653511D01*
X9614366Y-29873302D01*
X9614364Y-29873313D01*
X9594532Y-30099998D01*
X9594532Y-30100001D01*
X9614364Y-30326686D01*
X9614366Y-30326697D01*
X9673258Y-30546488D01*
X9673261Y-30546497D01*
X9769431Y-30752732D01*
X9769432Y-30752734D01*
X9877075Y-30906465D01*
X9899402Y-30972671D01*
X9899500Y-30977588D01*
X9899500Y-31809584D01*
X9879815Y-31876623D01*
X9877075Y-31880707D01*
X9812900Y-31972357D01*
X9812898Y-31972361D01*
X9720426Y-32170668D01*
X9720422Y-32170677D01*
X9663793Y-32382020D01*
X9663793Y-32382024D01*
X9644723Y-32599997D01*
X9644723Y-32600002D01*
X9663793Y-32817975D01*
X9663793Y-32817979D01*
X9720422Y-33029322D01*
X9720424Y-33029326D01*
X9720425Y-33029330D01*
X9812898Y-33227639D01*
X9848775Y-33278877D01*
X9871102Y-33345083D01*
X9854092Y-33412850D01*
X9848776Y-33421122D01*
X9812897Y-33472363D01*
X9720426Y-33670668D01*
X9720422Y-33670677D01*
X9663793Y-33882020D01*
X9663793Y-33882024D01*
X9645694Y-34088905D01*
X9644723Y-34100000D01*
X9655194Y-34219694D01*
X9641429Y-34288192D01*
X9592813Y-34338375D01*
X9531667Y-34354500D01*
X7420783Y-34354500D01*
X7353744Y-34334815D01*
X7333102Y-34318181D01*
X5199209Y-32184289D01*
X5199206Y-32184285D01*
X5199206Y-32184286D01*
X5192139Y-32177219D01*
X5192139Y-32177218D01*
X5052782Y-32037861D01*
X5052781Y-32037860D01*
X5052780Y-32037859D01*
X4888920Y-31928371D01*
X4888911Y-31928366D01*
X4816315Y-31898296D01*
X4760165Y-31875038D01*
X4706836Y-31852949D01*
X4706832Y-31852948D01*
X4706828Y-31852946D01*
X4610188Y-31833724D01*
X4513544Y-31814500D01*
X4513541Y-31814500D01*
X2960758Y-31814500D01*
X2893719Y-31794815D01*
X2873077Y-31778181D01*
X2871402Y-31776506D01*
X2871396Y-31776501D01*
X2685842Y-31646575D01*
X2642217Y-31591998D01*
X2635023Y-31522500D01*
X2666546Y-31460145D01*
X2685842Y-31443425D01*
X2708026Y-31427891D01*
X2871401Y-31313495D01*
X3038495Y-31146401D01*
X3174035Y-30952830D01*
X3273903Y-30738663D01*
X3335063Y-30510408D01*
X3355659Y-30275000D01*
X3335063Y-30039592D01*
X3286888Y-29859799D01*
X3273905Y-29811344D01*
X3273904Y-29811343D01*
X3273903Y-29811337D01*
X3174035Y-29597171D01*
X3171879Y-29594091D01*
X3038494Y-29403597D01*
X2871402Y-29236506D01*
X2871396Y-29236501D01*
X2685842Y-29106575D01*
X2642217Y-29051998D01*
X2635023Y-28982500D01*
X2666546Y-28920145D01*
X2685842Y-28903425D01*
X2708026Y-28887891D01*
X2871401Y-28773495D01*
X3038495Y-28606401D01*
X3174035Y-28412830D01*
X3273903Y-28198663D01*
X3335063Y-27970408D01*
X3355659Y-27735000D01*
X3335063Y-27499592D01*
X3286888Y-27319799D01*
X3273905Y-27271344D01*
X3273904Y-27271343D01*
X3273903Y-27271337D01*
X3174035Y-27057171D01*
X3038495Y-26863599D01*
X3038494Y-26863597D01*
X2871402Y-26696506D01*
X2871396Y-26696501D01*
X2685842Y-26566575D01*
X2642217Y-26511998D01*
X2635023Y-26442500D01*
X2666546Y-26380145D01*
X2685842Y-26363425D01*
X2708026Y-26347891D01*
X2871401Y-26233495D01*
X3038495Y-26066401D01*
X3174035Y-25872830D01*
X3273903Y-25658663D01*
X3335063Y-25430408D01*
X3355659Y-25195000D01*
X3335063Y-24959592D01*
X3286888Y-24779799D01*
X3273905Y-24731344D01*
X3273904Y-24731343D01*
X3273903Y-24731337D01*
X3174035Y-24517171D01*
X3101631Y-24413766D01*
X3038494Y-24323597D01*
X2871402Y-24156506D01*
X2871396Y-24156501D01*
X2685842Y-24026575D01*
X2642217Y-23971998D01*
X2635023Y-23902500D01*
X2666546Y-23840145D01*
X2685842Y-23823425D01*
X2708026Y-23807891D01*
X2871401Y-23693495D01*
X3038495Y-23526401D01*
X3174035Y-23332830D01*
X3273903Y-23118663D01*
X3335063Y-22890408D01*
X3355659Y-22655000D01*
X3335063Y-22419592D01*
X3286888Y-22239799D01*
X3273905Y-22191344D01*
X3273904Y-22191343D01*
X3273903Y-22191337D01*
X3174035Y-21977171D01*
X3143647Y-21933771D01*
X3038494Y-21783597D01*
X2871402Y-21616506D01*
X2871396Y-21616501D01*
X2685842Y-21486575D01*
X2642217Y-21431998D01*
X2635023Y-21362500D01*
X2666546Y-21300145D01*
X2685842Y-21283425D01*
X2833399Y-21180104D01*
X2871401Y-21153495D01*
X2998077Y-21026819D01*
X3059400Y-20993334D01*
X3085758Y-20990500D01*
X4289241Y-20990500D01*
X4356280Y-21010185D01*
G37*
%TD.AperFunction*%
%TA.AperFunction,Conductor*%
G36*
X705703Y-5237245D02*
G01*
X716954Y-5248326D01*
X733339Y-5266661D01*
X1001377Y-5506194D01*
X1294548Y-5714211D01*
X1609167Y-5888094D01*
X1941276Y-6025659D01*
X2285151Y-6124726D01*
X2344120Y-6162200D01*
X2373469Y-6225607D01*
X2363879Y-6294815D01*
X2342056Y-6327859D01*
X2331019Y-6339849D01*
X2204075Y-6534151D01*
X2110842Y-6746699D01*
X2053866Y-6971691D01*
X2053864Y-6971702D01*
X2034700Y-7202993D01*
X2034700Y-7203006D01*
X2053864Y-7434297D01*
X2053866Y-7434308D01*
X2110842Y-7659300D01*
X2204075Y-7871848D01*
X2307709Y-8030472D01*
X2331021Y-8066153D01*
X2379189Y-8118478D01*
X2452870Y-8198518D01*
X2483792Y-8261173D01*
X2475931Y-8330599D01*
X2452870Y-8366482D01*
X2331019Y-8498849D01*
X2204075Y-8693151D01*
X2110842Y-8905699D01*
X2053866Y-9130691D01*
X2053864Y-9130702D01*
X2034700Y-9361993D01*
X2034700Y-9362006D01*
X2053864Y-9593297D01*
X2053866Y-9593308D01*
X2110842Y-9818300D01*
X2204075Y-10030848D01*
X2331016Y-10225147D01*
X2331018Y-10225149D01*
X2331021Y-10225153D01*
X2488216Y-10395913D01*
X2488219Y-10395915D01*
X2488222Y-10395918D01*
X2671365Y-10538464D01*
X2671371Y-10538468D01*
X2671374Y-10538470D01*
X2875497Y-10648936D01*
X2989487Y-10688068D01*
X3095015Y-10724297D01*
X3095017Y-10724297D01*
X3095019Y-10724298D01*
X3323951Y-10762500D01*
X3323952Y-10762500D01*
X3556048Y-10762500D01*
X3556049Y-10762500D01*
X3784981Y-10724298D01*
X4004503Y-10648936D01*
X4208626Y-10538470D01*
X4213338Y-10534803D01*
X4348848Y-10429331D01*
X4391784Y-10395913D01*
X4548979Y-10225153D01*
X4548984Y-10225144D01*
X4550395Y-10223333D01*
X4551159Y-10222782D01*
X4552452Y-10221379D01*
X4552740Y-10221644D01*
X4607107Y-10182523D01*
X4648245Y-10175500D01*
X5455663Y-10175500D01*
X5522702Y-10195185D01*
X5543344Y-10211819D01*
X5593123Y-10261598D01*
X5772361Y-10387102D01*
X5970670Y-10479575D01*
X5970676Y-10479576D01*
X5970677Y-10479577D01*
X6001364Y-10487799D01*
X6182023Y-10536207D01*
X6364926Y-10552208D01*
X6399998Y-10555277D01*
X6400000Y-10555277D01*
X6400002Y-10555277D01*
X6428254Y-10552805D01*
X6617977Y-10536207D01*
X6829330Y-10479575D01*
X7027639Y-10387102D01*
X7206877Y-10261598D01*
X7361598Y-10106877D01*
X7378057Y-10083369D01*
X7432630Y-10039748D01*
X7502128Y-10032553D01*
X7564483Y-10064074D01*
X7594191Y-10107042D01*
X7649140Y-10239702D01*
X7649145Y-10239711D01*
X7744954Y-10383098D01*
X7744957Y-10383102D01*
X10449955Y-13088099D01*
X10571901Y-13210045D01*
X10571902Y-13210046D01*
X10715288Y-13305854D01*
X10715295Y-13305858D01*
X10738901Y-13315635D01*
X10791767Y-13357312D01*
X10829893Y-13409788D01*
X10829898Y-13409794D01*
X10980213Y-13560109D01*
X11152182Y-13685050D01*
X11160946Y-13689516D01*
X11211742Y-13737491D01*
X11228536Y-13805312D01*
X11205998Y-13871447D01*
X11160946Y-13910484D01*
X11152182Y-13914949D01*
X10980213Y-14039890D01*
X10980209Y-14039894D01*
X10861923Y-14158181D01*
X10800600Y-14191666D01*
X10774242Y-14194500D01*
X10209006Y-14194500D01*
X10141967Y-14174815D01*
X10121325Y-14158181D01*
X9356643Y-13393499D01*
X9323158Y-13332176D01*
X9320835Y-13317061D01*
X9319086Y-13297804D01*
X9268478Y-13135394D01*
X9180472Y-12989815D01*
X9180470Y-12989813D01*
X9180469Y-12989811D01*
X9060188Y-12869530D01*
X9015202Y-12842335D01*
X8914606Y-12781522D01*
X8752196Y-12730914D01*
X8752194Y-12730913D01*
X8752192Y-12730913D01*
X8702778Y-12726423D01*
X8681616Y-12724500D01*
X8168384Y-12724500D01*
X8149145Y-12726248D01*
X8097807Y-12730913D01*
X7935393Y-12781522D01*
X7789811Y-12869530D01*
X7789810Y-12869531D01*
X7687681Y-12971661D01*
X7626358Y-13005146D01*
X7556666Y-13000162D01*
X7512319Y-12971661D01*
X7410188Y-12869530D01*
X7365202Y-12842335D01*
X7264606Y-12781522D01*
X7102196Y-12730914D01*
X7102194Y-12730913D01*
X7102192Y-12730913D01*
X7052778Y-12726423D01*
X7031616Y-12724500D01*
X6518384Y-12724500D01*
X6499145Y-12726248D01*
X6447807Y-12730913D01*
X6285391Y-12781523D01*
X6243881Y-12806617D01*
X6179732Y-12824500D01*
X4961814Y-12824500D01*
X4894775Y-12804815D01*
X4849020Y-12752011D01*
X4838524Y-12713754D01*
X4837850Y-12707482D01*
X4834091Y-12672517D01*
X4783796Y-12537669D01*
X4783795Y-12537668D01*
X4783793Y-12537664D01*
X4697547Y-12422455D01*
X4697544Y-12422452D01*
X4582335Y-12336206D01*
X4582328Y-12336202D01*
X4447482Y-12285908D01*
X4447483Y-12285908D01*
X4387883Y-12279501D01*
X4387881Y-12279500D01*
X4387873Y-12279500D01*
X4387864Y-12279500D01*
X2492129Y-12279500D01*
X2492123Y-12279501D01*
X2432516Y-12285908D01*
X2297671Y-12336202D01*
X2297664Y-12336206D01*
X2182455Y-12422452D01*
X2182452Y-12422455D01*
X2096206Y-12537664D01*
X2096202Y-12537671D01*
X2045908Y-12672517D01*
X2039501Y-12732116D01*
X2039500Y-12732135D01*
X2039500Y-14627870D01*
X2039501Y-14627876D01*
X2045908Y-14687483D01*
X2096202Y-14822328D01*
X2096206Y-14822335D01*
X2182452Y-14937544D01*
X2182455Y-14937547D01*
X2297664Y-15023793D01*
X2297671Y-15023797D01*
X2432517Y-15074091D01*
X2432516Y-15074091D01*
X2439444Y-15074835D01*
X2492127Y-15080500D01*
X4387872Y-15080499D01*
X4447483Y-15074091D01*
X4582331Y-15023796D01*
X4697546Y-14937546D01*
X4783796Y-14822331D01*
X4834091Y-14687483D01*
X4834223Y-14686248D01*
X4834594Y-14685352D01*
X4835874Y-14679938D01*
X4836751Y-14680145D01*
X4860959Y-14621697D01*
X4918350Y-14581847D01*
X4957513Y-14575500D01*
X6179732Y-14575500D01*
X6243881Y-14593383D01*
X6275394Y-14612433D01*
X6285394Y-14618478D01*
X6447804Y-14669086D01*
X6518384Y-14675500D01*
X6518387Y-14675500D01*
X7031613Y-14675500D01*
X7031616Y-14675500D01*
X7102196Y-14669086D01*
X7264606Y-14618478D01*
X7410185Y-14530472D01*
X7435830Y-14504827D01*
X7512319Y-14428339D01*
X7573642Y-14394854D01*
X7643334Y-14399838D01*
X7687681Y-14428339D01*
X7789811Y-14530469D01*
X7789813Y-14530470D01*
X7789815Y-14530472D01*
X7935394Y-14618478D01*
X8097804Y-14669086D01*
X8117041Y-14670834D01*
X8182020Y-14696501D01*
X8193499Y-14706643D01*
X9114955Y-15628099D01*
X9182028Y-15695172D01*
X9236902Y-15750046D01*
X9380288Y-15845854D01*
X9380301Y-15845861D01*
X9539621Y-15911853D01*
X9539626Y-15911855D01*
X9708766Y-15945499D01*
X9708769Y-15945500D01*
X9708771Y-15945500D01*
X9881229Y-15945500D01*
X10774242Y-15945500D01*
X10841281Y-15965185D01*
X10861923Y-15981819D01*
X10980213Y-16100109D01*
X11152182Y-16225050D01*
X11160946Y-16229516D01*
X11211742Y-16277491D01*
X11228536Y-16345312D01*
X11205998Y-16411447D01*
X11160946Y-16450484D01*
X11152182Y-16454949D01*
X10980213Y-16579890D01*
X10980209Y-16579894D01*
X10871923Y-16688181D01*
X10810600Y-16721666D01*
X10784242Y-16724500D01*
X6860764Y-16724500D01*
X6793725Y-16704815D01*
X6747970Y-16652011D01*
X6744582Y-16643833D01*
X6693797Y-16507671D01*
X6693793Y-16507664D01*
X6607547Y-16392455D01*
X6607544Y-16392452D01*
X6492335Y-16306206D01*
X6492328Y-16306202D01*
X6357482Y-16255908D01*
X6357483Y-16255908D01*
X6297883Y-16249501D01*
X6297881Y-16249500D01*
X6297873Y-16249500D01*
X6297864Y-16249500D01*
X4502129Y-16249500D01*
X4502123Y-16249501D01*
X4442516Y-16255908D01*
X4307671Y-16306202D01*
X4307664Y-16306206D01*
X4192455Y-16392452D01*
X4192452Y-16392455D01*
X4106206Y-16507664D01*
X4106202Y-16507671D01*
X4064742Y-16618833D01*
X4022871Y-16674767D01*
X3957407Y-16699184D01*
X3948560Y-16699500D01*
X3085758Y-16699500D01*
X3018719Y-16679815D01*
X2998077Y-16663181D01*
X2871402Y-16536506D01*
X2871395Y-16536501D01*
X2838933Y-16513771D01*
X2754930Y-16454951D01*
X2677834Y-16400967D01*
X2677830Y-16400965D01*
X2659574Y-16392452D01*
X2463663Y-16301097D01*
X2463659Y-16301096D01*
X2463655Y-16301094D01*
X2235413Y-16239938D01*
X2235403Y-16239936D01*
X2000001Y-16219341D01*
X1999999Y-16219341D01*
X1764596Y-16239936D01*
X1764586Y-16239938D01*
X1536344Y-16301094D01*
X1536335Y-16301098D01*
X1322171Y-16400964D01*
X1322169Y-16400965D01*
X1128597Y-16536505D01*
X961505Y-16703597D01*
X825965Y-16897169D01*
X825964Y-16897171D01*
X736882Y-17088208D01*
X690709Y-17140647D01*
X623516Y-17159799D01*
X556635Y-17139583D01*
X511300Y-17086418D01*
X500500Y-17035803D01*
X500500Y-5330958D01*
X520185Y-5263919D01*
X572989Y-5218164D01*
X642147Y-5208220D01*
X705703Y-5237245D01*
G37*
%TD.AperFunction*%
%TD*%
M02*
