M48
; DRILL file {KiCad 8.0.5} date 2024-10-01T15:36:10-0300
; FORMAT={-:-/ absolute / inch / decimal}
; #@! TF.CreationDate,2024-10-01T15:36:10-03:00
; #@! TF.GenerationSoftware,Kicad,Pcbnew,8.0.5
; #@! TF.FileFunction,Plated,1,2,PTH
FMAT,2
INCH
; #@! TA.AperFunction,Plated,PTH,ViaDrill
T1C0.0295
; #@! TA.AperFunction,Plated,PTH,ComponentDrill
T2C0.0315
; #@! TA.AperFunction,Plated,PTH,ComponentDrill
T3C0.0354
; #@! TA.AperFunction,Plated,PTH,ComponentDrill
T4C0.0394
; #@! TA.AperFunction,Plated,PTH,ComponentDrill
T5C0.0472
; #@! TA.AperFunction,Plated,PTH,ComponentDrill
T6C0.0598
; #@! TA.AperFunction,Plated,PTH,ComponentDrill
T7C0.1063
%
G90
G05
T1
X0.0709Y-2.063
X0.2165Y-1.185
X0.252Y-0.3661
X0.2992Y-0.4567
X0.4291Y-1.2835
X0.4291Y-1.3425
X0.6732Y-0.3937
X0.7717Y-0.2953
X0.815Y-1.8346
X0.8189Y-1.4528
X0.9331Y-0.5945
X1.1535Y-0.0551
X1.4409Y-0.8465
X1.4409Y-0.9055
T2
X0.3307Y-1.185
X0.4291Y-1.185
X0.4324Y-1.461
X0.4324Y-1.561
X0.4324Y-1.661
X0.4324Y-1.761
X0.4324Y-1.861
X0.4324Y-1.961
X0.4324Y-2.061
X0.4324Y-2.161
X1.1424Y-1.461
X1.1424Y-1.561
X1.1424Y-1.661
X1.1424Y-1.761
X1.1424Y-1.861
X1.1424Y-1.961
X1.1424Y-2.061
X1.1424Y-2.161
X1.3425Y-0.3228
X1.4409Y-0.3228
X1.4409Y-0.4646
X1.4409Y-0.7646
T3
X0.1354Y-0.2836
X0.1354Y-0.3686
X0.1354Y-0.4536
X0.1354Y-0.5386
T4
X0.0787Y-0.6919
X0.0787Y-0.7919
X0.0787Y-0.8919
X0.0787Y-0.9919
X0.0787Y-1.0919
X0.0787Y-1.1919
X0.0787Y-1.2919
X0.0787Y-1.3919
X0.2126Y-0.6929
X0.2126Y-0.7929
X0.2126Y-0.8929
X0.2126Y-0.9929
X0.5437Y-0.2933
X0.5437Y-0.3933
X0.5437Y-0.4933
X0.5437Y-0.5933
X0.5437Y-0.6933
X0.5437Y-0.7933
X0.5437Y-0.8933
X1.1441Y-0.2933
X1.1441Y-0.3933
X1.1441Y-0.4933
X1.1441Y-0.5933
X1.1441Y-0.6933
X1.1441Y-0.7933
X1.1441Y-0.8933
X1.2835Y-1.4173
X1.3835Y-1.4173
X1.4835Y-1.4173
T5
X1.4173Y-1.063
X1.4173Y-1.213
T6
X0.1535Y-1.6638
X0.1535Y-1.8638
X1.4213Y-1.6638
X1.4213Y-1.8638
T7
X0.1181Y-0.1181
X0.1181Y-2.2441
X1.4567Y-0.1181
X1.4567Y-2.2441
M30
