%TF.GenerationSoftware,KiCad,Pcbnew,8.0.5*%
%TF.CreationDate,2024-10-01T15:35:57-03:00*%
%TF.ProjectId,hal9000mainboard,68616c39-3030-4306-9d61-696e626f6172,rev?*%
%TF.SameCoordinates,Original*%
%TF.FileFunction,Soldermask,Bot*%
%TF.FilePolarity,Negative*%
%FSLAX46Y46*%
G04 Gerber Fmt 4.6, Leading zero omitted, Abs format (unit mm)*
G04 Created by KiCad (PCBNEW 8.0.5) date 2024-10-01 15:35:57*
%MOMM*%
%LPD*%
G01*
G04 APERTURE LIST*
G04 Aperture macros list*
%AMRoundRect*
0 Rectangle with rounded corners*
0 $1 Rounding radius*
0 $2 $3 $4 $5 $6 $7 $8 $9 X,Y pos of 4 corners*
0 Add a 4 corners polygon primitive as box body*
4,1,4,$2,$3,$4,$5,$6,$7,$8,$9,$2,$3,0*
0 Add four circle primitives for the rounded corners*
1,1,$1+$1,$2,$3*
1,1,$1+$1,$4,$5*
1,1,$1+$1,$6,$7*
1,1,$1+$1,$8,$9*
0 Add four rect primitives between the rounded corners*
20,1,$1+$1,$2,$3,$4,$5,0*
20,1,$1+$1,$4,$5,$6,$7,0*
20,1,$1+$1,$6,$7,$8,$9,0*
20,1,$1+$1,$8,$9,$2,$3,0*%
G04 Aperture macros list end*
%ADD10C,1.600000*%
%ADD11RoundRect,0.250000X-1.550000X0.650000X-1.550000X-0.650000X1.550000X-0.650000X1.550000X0.650000X0*%
%ADD12O,3.600000X1.800000*%
%ADD13R,3.500000X1.700000*%
%ADD14O,3.600000X1.700000*%
%ADD15O,3.700000X1.700000*%
%ADD16R,3.000000X3.000000*%
%ADD17C,3.000000*%
%ADD18C,5.400000*%
%ADD19R,1.600000X1.600000*%
%ADD20O,1.600000X1.600000*%
%ADD21C,1.512000*%
%ADD22RoundRect,0.102000X-0.654000X-0.654000X0.654000X-0.654000X0.654000X0.654000X-0.654000X0.654000X0*%
%ADD23R,1.800000X1.800000*%
%ADD24C,1.800000*%
%ADD25R,1.700000X1.700000*%
%ADD26O,1.700000X1.700000*%
%ADD27RoundRect,0.200000X0.200000X0.275000X-0.200000X0.275000X-0.200000X-0.275000X0.200000X-0.275000X0*%
G04 APERTURE END LIST*
D10*
%TO.C,C1*%
X34100000Y-8200000D03*
X36600000Y-8200000D03*
%TD*%
D11*
%TO.C,J1001*%
X36000000Y-27000000D03*
D12*
X36000000Y-30810000D03*
%TD*%
D13*
%TO.C,U1002*%
X12810000Y-7450000D03*
D14*
X12810000Y-9990000D03*
X12810000Y-12530000D03*
X12810000Y-15070000D03*
X12810000Y-17610000D03*
X12810000Y-20150000D03*
X12810000Y-22690000D03*
X30060000Y-22690000D03*
X30060000Y-20150000D03*
X30060000Y-17610000D03*
D15*
X30060000Y-15070000D03*
X30060000Y-12530000D03*
X30060000Y-9990000D03*
X30060000Y-7450000D03*
%TD*%
D16*
%TO.C,J1004*%
X3900000Y-42260000D03*
D17*
X3900000Y-47340000D03*
%TD*%
D18*
%TO.C,REF\u002A\u002A*%
X37000000Y-3000000D03*
%TD*%
D19*
%TO.C,D1001*%
X36600000Y-11800000D03*
D20*
X36600000Y-19420000D03*
%TD*%
D21*
%TO.C,U1001*%
X29017000Y-37110000D03*
X29017000Y-39650000D03*
X29017000Y-42190000D03*
X29017000Y-44730000D03*
X29017000Y-47270000D03*
X29017000Y-49810000D03*
X29017000Y-52350000D03*
X29017000Y-54890000D03*
X10983000Y-54890000D03*
X10983000Y-52350000D03*
X10983000Y-49810000D03*
X10983000Y-47270000D03*
X10983000Y-44730000D03*
X10983000Y-42190000D03*
X10983000Y-39650000D03*
D22*
X10983000Y-37110000D03*
%TD*%
D23*
%TO.C,D1003*%
X3440000Y-13680000D03*
D24*
X3440000Y-11521000D03*
X3440000Y-9362000D03*
X3440000Y-7203000D03*
%TD*%
D18*
%TO.C,REF\u002A\u002A*%
X3000000Y-3000000D03*
%TD*%
%TO.C,REF\u002A\u002A*%
X3000000Y-57000000D03*
%TD*%
D10*
%TO.C,C1001*%
X10900000Y-30100000D03*
X8400000Y-30100000D03*
%TD*%
D16*
%TO.C,TP1001*%
X12900000Y-2700000D03*
%TD*%
D18*
%TO.C,REF\u002A\u002A*%
X37000000Y-57000000D03*
%TD*%
D16*
%TO.C,J1003*%
X36100000Y-47340000D03*
D17*
X36100000Y-42260000D03*
%TD*%
D25*
%TO.C,J1002*%
X5400000Y-17600000D03*
D26*
X5400000Y-20140000D03*
X5400000Y-22680000D03*
X5400000Y-25220000D03*
%TD*%
D25*
%TO.C,J1006*%
X2000000Y-35355000D03*
D26*
X2000000Y-32815000D03*
X2000000Y-30275000D03*
X2000000Y-27735000D03*
X2000000Y-25195000D03*
X2000000Y-22655000D03*
X2000000Y-20115000D03*
X2000000Y-17575000D03*
%TD*%
D25*
%TO.C,J1005*%
X37680000Y-36000000D03*
D26*
X35140000Y-36000000D03*
X32600000Y-36000000D03*
%TD*%
D16*
%TO.C,TP1004*%
X16700000Y-27600000D03*
%TD*%
D27*
%TO.C,R1003*%
X27125000Y-15100000D03*
X25475000Y-15100000D03*
%TD*%
D16*
%TO.C,TP1003*%
X25380000Y-27610000D03*
%TD*%
%TO.C,TP1002*%
X21140000Y-27600000D03*
%TD*%
D27*
%TO.C,R1001*%
X8425000Y-7200000D03*
X6775000Y-7200000D03*
%TD*%
%TO.C,R1002*%
X8425000Y-13700000D03*
X6775000Y-13700000D03*
%TD*%
M02*
