%TF.GenerationSoftware,KiCad,Pcbnew,8.0.5*%
%TF.CreationDate,2024-10-01T15:35:57-03:00*%
%TF.ProjectId,hal9000mainboard,68616c39-3030-4306-9d61-696e626f6172,rev?*%
%TF.SameCoordinates,Original*%
%TF.FileFunction,Copper,L1,Top*%
%TF.FilePolarity,Positive*%
%FSLAX46Y46*%
G04 Gerber Fmt 4.6, Leading zero omitted, Abs format (unit mm)*
G04 Created by KiCad (PCBNEW 8.0.5) date 2024-10-01 15:35:57*
%MOMM*%
%LPD*%
G01*
G04 APERTURE LIST*
G04 Aperture macros list*
%AMRoundRect*
0 Rectangle with rounded corners*
0 $1 Rounding radius*
0 $2 $3 $4 $5 $6 $7 $8 $9 X,Y pos of 4 corners*
0 Add a 4 corners polygon primitive as box body*
4,1,4,$2,$3,$4,$5,$6,$7,$8,$9,$2,$3,0*
0 Add four circle primitives for the rounded corners*
1,1,$1+$1,$2,$3*
1,1,$1+$1,$4,$5*
1,1,$1+$1,$6,$7*
1,1,$1+$1,$8,$9*
0 Add four rect primitives between the rounded corners*
20,1,$1+$1,$2,$3,$4,$5,0*
20,1,$1+$1,$4,$5,$6,$7,0*
20,1,$1+$1,$6,$7,$8,$9,0*
20,1,$1+$1,$8,$9,$2,$3,0*%
G04 Aperture macros list end*
%TA.AperFunction,ComponentPad*%
%ADD10C,1.600000*%
%TD*%
%TA.AperFunction,ComponentPad*%
%ADD11RoundRect,0.250000X-1.550000X0.650000X-1.550000X-0.650000X1.550000X-0.650000X1.550000X0.650000X0*%
%TD*%
%TA.AperFunction,ComponentPad*%
%ADD12O,3.600000X1.800000*%
%TD*%
%TA.AperFunction,ComponentPad*%
%ADD13R,3.500000X1.700000*%
%TD*%
%TA.AperFunction,ComponentPad*%
%ADD14O,3.600000X1.700000*%
%TD*%
%TA.AperFunction,ComponentPad*%
%ADD15O,3.700000X1.700000*%
%TD*%
%TA.AperFunction,ComponentPad*%
%ADD16R,3.000000X3.000000*%
%TD*%
%TA.AperFunction,ComponentPad*%
%ADD17C,3.000000*%
%TD*%
%TA.AperFunction,ComponentPad*%
%ADD18C,5.400000*%
%TD*%
%TA.AperFunction,ComponentPad*%
%ADD19R,1.600000X1.600000*%
%TD*%
%TA.AperFunction,ComponentPad*%
%ADD20O,1.600000X1.600000*%
%TD*%
%TA.AperFunction,ComponentPad*%
%ADD21C,1.308000*%
%TD*%
%TA.AperFunction,ComponentPad*%
%ADD22R,1.308000X1.308000*%
%TD*%
%TA.AperFunction,ComponentPad*%
%ADD23R,1.800000X1.800000*%
%TD*%
%TA.AperFunction,ComponentPad*%
%ADD24C,1.800000*%
%TD*%
%TA.AperFunction,ComponentPad*%
%ADD25R,1.700000X1.700000*%
%TD*%
%TA.AperFunction,ComponentPad*%
%ADD26O,1.700000X1.700000*%
%TD*%
%TA.AperFunction,ViaPad*%
%ADD27C,1.500000*%
%TD*%
%TA.AperFunction,Conductor*%
%ADD28C,0.750000*%
%TD*%
%TA.AperFunction,Conductor*%
%ADD29C,1.500000*%
%TD*%
G04 APERTURE END LIST*
D10*
%TO.P,C1,1*%
%TO.N,Net-(D1001-K)*%
X34100000Y-8200000D03*
%TO.P,C1,2*%
%TO.N,GND*%
X36600000Y-8200000D03*
%TD*%
D11*
%TO.P,J1001,1,Pin_1*%
%TO.N,+5V*%
X36000000Y-27000000D03*
D12*
%TO.P,J1001,2,Pin_2*%
%TO.N,GND*%
X36000000Y-30810000D03*
%TD*%
D13*
%TO.P,U1002,1,PA02_A0_D0*%
%TO.N,Net-(U1002-PA02_A0_D0)*%
X12810000Y-7450000D03*
D14*
%TO.P,U1002,2,PA4_A1_D1*%
%TO.N,BUSY*%
X12810000Y-9990000D03*
%TO.P,U1002,3,PA10_A2_D2*%
%TO.N,LED1*%
X12810000Y-12530000D03*
%TO.P,U1002,4,PA11_A3_D3*%
%TO.N,LED2*%
X12810000Y-15070000D03*
%TO.P,U1002,5,PA8_A4_D4_SDA*%
%TO.N,/scl*%
X12810000Y-17610000D03*
%TO.P,U1002,6,PA9_A5_D5_SCL*%
%TO.N,/sda*%
X12810000Y-20150000D03*
%TO.P,U1002,7,PB08_A6_D6_TX*%
%TO.N,UC_TX*%
X12810000Y-22690000D03*
%TO.P,U1002,8,PB09_A7_D7_RX*%
%TO.N,UC_RX*%
X30060000Y-22690000D03*
%TO.P,U1002,9,PA7_A8_D8_SCK*%
%TO.N,Net-(U1002-PA7_A8_D8_SCK)*%
X30060000Y-20150000D03*
%TO.P,U1002,10,PA5_A9_D9_MISO*%
%TO.N,Net-(U1002-PA5_A9_D9_MISO)*%
X30060000Y-17610000D03*
D15*
%TO.P,U1002,11,PA6_A10_D10_MOSI*%
%TO.N,LED3*%
X30060000Y-15070000D03*
%TO.P,U1002,12,3V3*%
%TO.N,Net-(U1002-3V3)*%
X30060000Y-12530000D03*
%TO.P,U1002,13,GND*%
%TO.N,GND*%
X30060000Y-9990000D03*
%TO.P,U1002,14,5V*%
%TO.N,Net-(D1001-K)*%
X30060000Y-7450000D03*
%TD*%
D16*
%TO.P,J1004,1,Pin_1*%
%TO.N,Net-(J1004-Pin_1)*%
X3900000Y-42260000D03*
D17*
%TO.P,J1004,2,Pin_2*%
%TO.N,Net-(J1004-Pin_2)*%
X3900000Y-47340000D03*
%TD*%
D18*
%TO.P,REF\u002A\u002A,1*%
%TO.N,N/C*%
X37000000Y-3000000D03*
%TD*%
D19*
%TO.P,D1001,1,K*%
%TO.N,Net-(D1001-K)*%
X36600000Y-11800000D03*
D20*
%TO.P,D1001,2,A*%
%TO.N,+5V*%
X36600000Y-19420000D03*
%TD*%
D21*
%TO.P,U1001,16,BUSY*%
%TO.N,BUSY*%
X29017000Y-37110000D03*
%TO.P,U1001,15,USB-*%
%TO.N,unconnected-(U1001-USB--Pad15)*%
X29017000Y-39650000D03*
%TO.P,U1001,14,USB+*%
%TO.N,unconnected-(U1001-USB+-Pad14)*%
X29017000Y-42190000D03*
%TO.P,U1001,13,ADKEY2*%
%TO.N,unconnected-(U1001-ADKEY2-Pad13)*%
X29017000Y-44730000D03*
%TO.P,U1001,12,ADKEY1*%
%TO.N,unconnected-(U1001-ADKEY1-Pad12)*%
X29017000Y-47270000D03*
%TO.P,U1001,11,IO2*%
%TO.N,unconnected-(U1001-IO2-Pad11)*%
X29017000Y-49810000D03*
%TO.P,U1001,10,GND*%
%TO.N,GND*%
X29017000Y-52350000D03*
%TO.P,U1001,9,IO1*%
%TO.N,unconnected-(U1001-IO1-Pad9)*%
X29017000Y-54890000D03*
%TO.P,U1001,8,SPK2*%
%TO.N,Net-(J1003-Pin_1)*%
X10983000Y-54890000D03*
%TO.P,U1001,7,GND*%
%TO.N,GND*%
X10983000Y-52350000D03*
%TO.P,U1001,6,SPK1*%
%TO.N,Net-(J1003-Pin_2)*%
X10983000Y-49810000D03*
%TO.P,U1001,5,DAC_L*%
%TO.N,Net-(J1004-Pin_2)*%
X10983000Y-47270000D03*
%TO.P,U1001,4,DAC_R*%
%TO.N,Net-(J1004-Pin_1)*%
X10983000Y-44730000D03*
%TO.P,U1001,3,TX*%
%TO.N,UC_RX*%
X10983000Y-42190000D03*
%TO.P,U1001,2,RX*%
%TO.N,UC_TX*%
X10983000Y-39650000D03*
D22*
%TO.P,U1001,1,VCC*%
%TO.N,+5V*%
X10983000Y-37110000D03*
%TD*%
D23*
%TO.P,D1003,1,GA*%
%TO.N,Net-(D1003-GA)*%
X3440000Y-13680000D03*
D24*
%TO.P,D1003,2,K*%
%TO.N,GND*%
X3440000Y-11521000D03*
%TO.P,D1003,3,BA*%
%TO.N,Net-(D1003-BA)*%
X3440000Y-9362000D03*
%TO.P,D1003,4,RA*%
%TO.N,Net-(D1003-RA)*%
X3440000Y-7203000D03*
%TD*%
D18*
%TO.P,REF\u002A\u002A,1*%
%TO.N,N/C*%
X3000000Y-3000000D03*
%TD*%
%TO.P,REF\u002A\u002A,1*%
%TO.N,N/C*%
X3000000Y-57000000D03*
%TD*%
D10*
%TO.P,C1001,1*%
%TO.N,+5V*%
X10900000Y-30100000D03*
%TO.P,C1001,2*%
%TO.N,GND*%
X8400000Y-30100000D03*
%TD*%
D18*
%TO.P,REF\u002A\u002A,1*%
%TO.N,N/C*%
X37000000Y-57000000D03*
%TD*%
D16*
%TO.P,J1003,1,Pin_1*%
%TO.N,Net-(J1003-Pin_1)*%
X36100000Y-47340000D03*
D17*
%TO.P,J1003,2,Pin_2*%
%TO.N,Net-(J1003-Pin_2)*%
X36100000Y-42260000D03*
%TD*%
D25*
%TO.P,J1002,1,Pin_1*%
%TO.N,/scl*%
X5400000Y-17600000D03*
D26*
%TO.P,J1002,2,Pin_2*%
%TO.N,/sda*%
X5400000Y-20140000D03*
%TO.P,J1002,3,Pin_3*%
%TO.N,+5V*%
X5400000Y-22680000D03*
%TO.P,J1002,4,Pin_4*%
%TO.N,GND*%
X5400000Y-25220000D03*
%TD*%
D25*
%TO.P,J1006,1,Pin_1*%
%TO.N,+5V*%
X2000000Y-35355000D03*
D26*
%TO.P,J1006,2,Pin_2*%
%TO.N,GND*%
X2000000Y-32815000D03*
%TO.P,J1006,3,Pin_3*%
%TO.N,unconnected-(J1006-Pin_3-Pad3)*%
X2000000Y-30275000D03*
%TO.P,J1006,4,Pin_4*%
%TO.N,unconnected-(J1006-Pin_4-Pad4)*%
X2000000Y-27735000D03*
%TO.P,J1006,5,Pin_5*%
%TO.N,unconnected-(J1006-Pin_5-Pad5)*%
X2000000Y-25195000D03*
%TO.P,J1006,6,Pin_6*%
%TO.N,unconnected-(J1006-Pin_6-Pad6)*%
X2000000Y-22655000D03*
%TO.P,J1006,7,Pin_7*%
%TO.N,/sda*%
X2000000Y-20115000D03*
%TO.P,J1006,8,Pin_8*%
%TO.N,/scl*%
X2000000Y-17575000D03*
%TD*%
D25*
%TO.P,J1005,1,Pin_1*%
%TO.N,GND*%
X37680000Y-36000000D03*
D26*
%TO.P,J1005,2,Pin_2*%
%TO.N,+5V*%
X35140000Y-36000000D03*
%TO.P,J1005,3,Pin_3*%
%TO.N,LED3*%
X32600000Y-36000000D03*
%TD*%
D27*
%TO.N,Net-(D1003-BA)*%
X23700000Y-15100000D03*
%TO.N,GND*%
X19600000Y-7500000D03*
X1800000Y-52400000D03*
X5500000Y-30100000D03*
X7600000Y-11600000D03*
X20700000Y-46600000D03*
X29300000Y-1400000D03*
%TO.N,+5V*%
X36600000Y-23000000D03*
X36600000Y-21500000D03*
%TO.N,BUSY*%
X20800000Y-36900000D03*
X17100000Y-10000000D03*
%TO.N,Net-(D1003-BA)*%
X6400000Y-9300000D03*
%TO.N,+5V*%
X10900000Y-34100000D03*
X10900000Y-32600000D03*
%TD*%
D28*
%TO.N,Net-(D1003-BA)*%
X10100000Y-4000000D02*
X6400000Y-7700000D01*
X19700000Y-4000000D02*
X10100000Y-4000000D01*
X22500000Y-6800000D02*
X19700000Y-4000000D01*
X22500000Y-14400000D02*
X22500000Y-6800000D01*
X23200000Y-15100000D02*
X22500000Y-14400000D01*
X6400000Y-7700000D02*
X6400000Y-9300000D01*
X23675000Y-15100000D02*
X23200000Y-15100000D01*
D29*
%TO.N,+5V*%
X35100000Y-23000000D02*
X36600000Y-23000000D01*
X18200000Y-39400000D02*
X23300000Y-39400000D01*
X25500000Y-32600000D02*
X35100000Y-23000000D01*
X12900000Y-34100000D02*
X18200000Y-39400000D01*
X23300000Y-39400000D02*
X25500000Y-37200000D01*
X25500000Y-37200000D02*
X25500000Y-32600000D01*
X10900000Y-34100000D02*
X12900000Y-34100000D01*
D28*
%TO.N,BUSY*%
X18900000Y-24600000D02*
X17100000Y-22800000D01*
X20800000Y-36900000D02*
X18900000Y-35000000D01*
X17100000Y-22800000D02*
X17100000Y-10000000D01*
X18900000Y-35000000D02*
X18900000Y-24600000D01*
D29*
%TO.N,+5V*%
X10900000Y-32600000D02*
X10900000Y-34100000D01*
%TD*%
%TA.AperFunction,Conductor*%
%TO.N,GND*%
G36*
X34736080Y-520185D02*
G01*
X34781835Y-572989D01*
X34791779Y-642147D01*
X34762754Y-705703D01*
X34751668Y-716959D01*
X34733343Y-733334D01*
X34493805Y-1001377D01*
X34285790Y-1294545D01*
X34111905Y-1609168D01*
X33974339Y-1941281D01*
X33874828Y-2286694D01*
X33874826Y-2286703D01*
X33814614Y-2641085D01*
X33814612Y-2641097D01*
X33794457Y-3000000D01*
X33814612Y-3358902D01*
X33814613Y-3358907D01*
X33874827Y-3713300D01*
X33974341Y-4058724D01*
X34111906Y-4390833D01*
X34285789Y-4705452D01*
X34493806Y-4998623D01*
X34733339Y-5266661D01*
X35001377Y-5506194D01*
X35294548Y-5714211D01*
X35609167Y-5888094D01*
X35941276Y-6025659D01*
X36286700Y-6125173D01*
X36641093Y-6185387D01*
X37000000Y-6205543D01*
X37358907Y-6185387D01*
X37713300Y-6125173D01*
X38058724Y-6025659D01*
X38390833Y-5888094D01*
X38705452Y-5714211D01*
X38998623Y-5506194D01*
X39266661Y-5266661D01*
X39283040Y-5248331D01*
X39342387Y-5211461D01*
X39412248Y-5212528D01*
X39470443Y-5251196D01*
X39498493Y-5315188D01*
X39499500Y-5330958D01*
X39499500Y-54669040D01*
X39479815Y-54736079D01*
X39427011Y-54781834D01*
X39357853Y-54791778D01*
X39294297Y-54762753D01*
X39283042Y-54751669D01*
X39266662Y-54733340D01*
X38998622Y-54493805D01*
X38705454Y-54285790D01*
X38390831Y-54111905D01*
X38304086Y-54075974D01*
X38058724Y-53974341D01*
X38058720Y-53974339D01*
X38058718Y-53974339D01*
X37713305Y-53874828D01*
X37713296Y-53874826D01*
X37358914Y-53814614D01*
X37358902Y-53814612D01*
X37000000Y-53794457D01*
X36641097Y-53814612D01*
X36641085Y-53814614D01*
X36286703Y-53874826D01*
X36286694Y-53874828D01*
X35941281Y-53974339D01*
X35609168Y-54111905D01*
X35294545Y-54285790D01*
X35001377Y-54493805D01*
X34733339Y-54733339D01*
X34493805Y-55001377D01*
X34285790Y-55294545D01*
X34111905Y-55609168D01*
X33989225Y-55905341D01*
X33979885Y-55927893D01*
X33974339Y-55941281D01*
X33874828Y-56286694D01*
X33874826Y-56286703D01*
X33814614Y-56641085D01*
X33814612Y-56641097D01*
X33794457Y-57000000D01*
X33814612Y-57358902D01*
X33814614Y-57358914D01*
X33874826Y-57713296D01*
X33874828Y-57713305D01*
X33974339Y-58058718D01*
X34111905Y-58390831D01*
X34285790Y-58705454D01*
X34493805Y-58998622D01*
X34733343Y-59266665D01*
X34751668Y-59283041D01*
X34788539Y-59342390D01*
X34787470Y-59412251D01*
X34748800Y-59470444D01*
X34684808Y-59498494D01*
X34669041Y-59499500D01*
X5330959Y-59499500D01*
X5263920Y-59479815D01*
X5218165Y-59427011D01*
X5208221Y-59357853D01*
X5237246Y-59294297D01*
X5248332Y-59283041D01*
X5253941Y-59278027D01*
X5266661Y-59266661D01*
X5506194Y-58998623D01*
X5714211Y-58705452D01*
X5888094Y-58390833D01*
X6025659Y-58058724D01*
X6125173Y-57713300D01*
X6185387Y-57358907D01*
X6205543Y-57000000D01*
X6185387Y-56641093D01*
X6125173Y-56286700D01*
X6025659Y-55941276D01*
X5888094Y-55609167D01*
X5714211Y-55294548D01*
X5506194Y-55001377D01*
X5406661Y-54889999D01*
X9823554Y-54889999D01*
X9823554Y-54890000D01*
X9843295Y-55103047D01*
X9843296Y-55103050D01*
X9901846Y-55308835D01*
X9901849Y-55308840D01*
X9997219Y-55500370D01*
X10126159Y-55671114D01*
X10284278Y-55815258D01*
X10284283Y-55815261D01*
X10284286Y-55815263D01*
X10466186Y-55927891D01*
X10466187Y-55927891D01*
X10466190Y-55927893D01*
X10665703Y-56005185D01*
X10876020Y-56044500D01*
X10876022Y-56044500D01*
X11089978Y-56044500D01*
X11089980Y-56044500D01*
X11300297Y-56005185D01*
X11499810Y-55927893D01*
X11681722Y-55815258D01*
X11839841Y-55671114D01*
X11968781Y-55500370D01*
X12064151Y-55308840D01*
X12064151Y-55308837D01*
X12064153Y-55308835D01*
X12122703Y-55103050D01*
X12122704Y-55103047D01*
X12142446Y-54890000D01*
X12142446Y-54889999D01*
X27857554Y-54889999D01*
X27857554Y-54890000D01*
X27877295Y-55103047D01*
X27877296Y-55103050D01*
X27935846Y-55308835D01*
X27935849Y-55308840D01*
X28031219Y-55500370D01*
X28160159Y-55671114D01*
X28318278Y-55815258D01*
X28318283Y-55815261D01*
X28318286Y-55815263D01*
X28500186Y-55927891D01*
X28500187Y-55927891D01*
X28500190Y-55927893D01*
X28699703Y-56005185D01*
X28910020Y-56044500D01*
X28910022Y-56044500D01*
X29123978Y-56044500D01*
X29123980Y-56044500D01*
X29334297Y-56005185D01*
X29533810Y-55927893D01*
X29715722Y-55815258D01*
X29873841Y-55671114D01*
X30002781Y-55500370D01*
X30098151Y-55308840D01*
X30098151Y-55308837D01*
X30098153Y-55308835D01*
X30156703Y-55103050D01*
X30156704Y-55103047D01*
X30176446Y-54890000D01*
X30176446Y-54889999D01*
X30156704Y-54676952D01*
X30156703Y-54676949D01*
X30098153Y-54471164D01*
X30098150Y-54471158D01*
X30005848Y-54285790D01*
X30002781Y-54279630D01*
X29873841Y-54108886D01*
X29715722Y-53964742D01*
X29715716Y-53964738D01*
X29715713Y-53964736D01*
X29533813Y-53852108D01*
X29533807Y-53852106D01*
X29334297Y-53774815D01*
X29123980Y-53735500D01*
X28910020Y-53735500D01*
X28699703Y-53774815D01*
X28596973Y-53814613D01*
X28500192Y-53852106D01*
X28500186Y-53852108D01*
X28318286Y-53964736D01*
X28318283Y-53964738D01*
X28318279Y-53964740D01*
X28318278Y-53964742D01*
X28160159Y-54108886D01*
X28160158Y-54108887D01*
X28031219Y-54279629D01*
X27935849Y-54471158D01*
X27935846Y-54471164D01*
X27877296Y-54676949D01*
X27877295Y-54676952D01*
X27857554Y-54889999D01*
X12142446Y-54889999D01*
X12122704Y-54676952D01*
X12122703Y-54676949D01*
X12064153Y-54471164D01*
X12064150Y-54471158D01*
X11971848Y-54285790D01*
X11968781Y-54279630D01*
X11839841Y-54108886D01*
X11681722Y-53964742D01*
X11681716Y-53964738D01*
X11681713Y-53964736D01*
X11499813Y-53852108D01*
X11499807Y-53852106D01*
X11300297Y-53774815D01*
X11089980Y-53735500D01*
X10876020Y-53735500D01*
X10665703Y-53774815D01*
X10562973Y-53814613D01*
X10466192Y-53852106D01*
X10466186Y-53852108D01*
X10284286Y-53964736D01*
X10284283Y-53964738D01*
X10284279Y-53964740D01*
X10284278Y-53964742D01*
X10126159Y-54108886D01*
X10126158Y-54108887D01*
X9997219Y-54279629D01*
X9901849Y-54471158D01*
X9901846Y-54471164D01*
X9843296Y-54676949D01*
X9843295Y-54676952D01*
X9823554Y-54889999D01*
X5406661Y-54889999D01*
X5266661Y-54733339D01*
X4998623Y-54493806D01*
X4998622Y-54493805D01*
X4705454Y-54285790D01*
X4390831Y-54111905D01*
X4304086Y-54075974D01*
X4058724Y-53974341D01*
X4058720Y-53974339D01*
X4058718Y-53974339D01*
X3713305Y-53874828D01*
X3713296Y-53874826D01*
X3358914Y-53814614D01*
X3358902Y-53814612D01*
X3000000Y-53794457D01*
X2641097Y-53814612D01*
X2641085Y-53814614D01*
X2286703Y-53874826D01*
X2286694Y-53874828D01*
X1941281Y-53974339D01*
X1609168Y-54111905D01*
X1294545Y-54285790D01*
X1001377Y-54493805D01*
X733337Y-54733340D01*
X716958Y-54751669D01*
X657607Y-54788539D01*
X587746Y-54787468D01*
X529554Y-54748797D01*
X501506Y-54684804D01*
X500500Y-54669040D01*
X500500Y-47339998D01*
X1894390Y-47339998D01*
X1894390Y-47340001D01*
X1914804Y-47625433D01*
X1975628Y-47905037D01*
X2075635Y-48173166D01*
X2212770Y-48424309D01*
X2212775Y-48424317D01*
X2384254Y-48653387D01*
X2384270Y-48653405D01*
X2586594Y-48855729D01*
X2586612Y-48855745D01*
X2815682Y-49027224D01*
X2815690Y-49027229D01*
X3066833Y-49164364D01*
X3066832Y-49164364D01*
X3066836Y-49164365D01*
X3066839Y-49164367D01*
X3334954Y-49264369D01*
X3334960Y-49264370D01*
X3334962Y-49264371D01*
X3614566Y-49325195D01*
X3614568Y-49325195D01*
X3614572Y-49325196D01*
X3868220Y-49343337D01*
X3899999Y-49345610D01*
X3900000Y-49345610D01*
X3900001Y-49345610D01*
X3928595Y-49343564D01*
X4185428Y-49325196D01*
X4375742Y-49283796D01*
X4465037Y-49264371D01*
X4465037Y-49264370D01*
X4465046Y-49264369D01*
X4733161Y-49164367D01*
X4984315Y-49027226D01*
X5213395Y-48855739D01*
X5415739Y-48653395D01*
X5587226Y-48424315D01*
X5724367Y-48173161D01*
X5824369Y-47905046D01*
X5885196Y-47625428D01*
X5905610Y-47340000D01*
X5885196Y-47054572D01*
X5840947Y-46851164D01*
X5824371Y-46774962D01*
X5824370Y-46774960D01*
X5824369Y-46774954D01*
X5724367Y-46506839D01*
X5714564Y-46488887D01*
X5587229Y-46255690D01*
X5587224Y-46255682D01*
X5415745Y-46026612D01*
X5415729Y-46026594D01*
X5213405Y-45824270D01*
X5213387Y-45824254D01*
X4984317Y-45652775D01*
X4984309Y-45652770D01*
X4733166Y-45515635D01*
X4733167Y-45515635D01*
X4625915Y-45475632D01*
X4465046Y-45415631D01*
X4465043Y-45415630D01*
X4465037Y-45415628D01*
X4185433Y-45354804D01*
X3900001Y-45334390D01*
X3899999Y-45334390D01*
X3614566Y-45354804D01*
X3334962Y-45415628D01*
X3066833Y-45515635D01*
X2815690Y-45652770D01*
X2815682Y-45652775D01*
X2586612Y-45824254D01*
X2586594Y-45824270D01*
X2384270Y-46026594D01*
X2384254Y-46026612D01*
X2212775Y-46255682D01*
X2212770Y-46255690D01*
X2075635Y-46506833D01*
X1975628Y-46774962D01*
X1914804Y-47054566D01*
X1894390Y-47339998D01*
X500500Y-47339998D01*
X500500Y-40712135D01*
X1899500Y-40712135D01*
X1899500Y-43807870D01*
X1899501Y-43807876D01*
X1905908Y-43867483D01*
X1956202Y-44002328D01*
X1956206Y-44002335D01*
X2042452Y-44117544D01*
X2042455Y-44117547D01*
X2157664Y-44203793D01*
X2157671Y-44203797D01*
X2292517Y-44254091D01*
X2292516Y-44254091D01*
X2299444Y-44254835D01*
X2352127Y-44260500D01*
X5447872Y-44260499D01*
X5507483Y-44254091D01*
X5642331Y-44203796D01*
X5757546Y-44117546D01*
X5843796Y-44002331D01*
X5894091Y-43867483D01*
X5900500Y-43807873D01*
X5900499Y-40712128D01*
X5894091Y-40652517D01*
X5881854Y-40619709D01*
X5843797Y-40517671D01*
X5843793Y-40517664D01*
X5757547Y-40402455D01*
X5757544Y-40402452D01*
X5642335Y-40316206D01*
X5642328Y-40316202D01*
X5507482Y-40265908D01*
X5507483Y-40265908D01*
X5447883Y-40259501D01*
X5447881Y-40259500D01*
X5447873Y-40259500D01*
X5447864Y-40259500D01*
X2352129Y-40259500D01*
X2352123Y-40259501D01*
X2292516Y-40265908D01*
X2157671Y-40316202D01*
X2157664Y-40316206D01*
X2042455Y-40402452D01*
X2042452Y-40402455D01*
X1956206Y-40517664D01*
X1956202Y-40517671D01*
X1905908Y-40652517D01*
X1899501Y-40712116D01*
X1899501Y-40712123D01*
X1899500Y-40712135D01*
X500500Y-40712135D01*
X500500Y-39649999D01*
X9823554Y-39649999D01*
X9823554Y-39650000D01*
X9843295Y-39863047D01*
X9843296Y-39863050D01*
X9901846Y-40068835D01*
X9901849Y-40068840D01*
X9997219Y-40260370D01*
X10126159Y-40431114D01*
X10284278Y-40575258D01*
X10284283Y-40575261D01*
X10284286Y-40575263D01*
X10466186Y-40687891D01*
X10466187Y-40687891D01*
X10466190Y-40687893D01*
X10665703Y-40765185D01*
X10841845Y-40798111D01*
X10904125Y-40829779D01*
X10939398Y-40890092D01*
X10936464Y-40959900D01*
X10896255Y-41017040D01*
X10841845Y-41041888D01*
X10665703Y-41074815D01*
X10539533Y-41123693D01*
X10466192Y-41152106D01*
X10466186Y-41152108D01*
X10284286Y-41264736D01*
X10284283Y-41264738D01*
X10284279Y-41264740D01*
X10284278Y-41264742D01*
X10126159Y-41408886D01*
X10126158Y-41408887D01*
X9997219Y-41579629D01*
X9901849Y-41771158D01*
X9901846Y-41771164D01*
X9843296Y-41976949D01*
X9843295Y-41976952D01*
X9823554Y-42189999D01*
X9823554Y-42190000D01*
X9843295Y-42403047D01*
X9843296Y-42403050D01*
X9901846Y-42608835D01*
X9901849Y-42608840D01*
X9997219Y-42800370D01*
X10126159Y-42971114D01*
X10284278Y-43115258D01*
X10284283Y-43115261D01*
X10284286Y-43115263D01*
X10466186Y-43227891D01*
X10466187Y-43227891D01*
X10466190Y-43227893D01*
X10665703Y-43305185D01*
X10841845Y-43338111D01*
X10904125Y-43369779D01*
X10939398Y-43430092D01*
X10936464Y-43499900D01*
X10896255Y-43557040D01*
X10841845Y-43581888D01*
X10665703Y-43614815D01*
X10539533Y-43663693D01*
X10466192Y-43692106D01*
X10466186Y-43692108D01*
X10284286Y-43804736D01*
X10284283Y-43804738D01*
X10284279Y-43804740D01*
X10284278Y-43804742D01*
X10127982Y-43947224D01*
X10126158Y-43948887D01*
X9997219Y-44119629D01*
X9901849Y-44311158D01*
X9901846Y-44311164D01*
X9843296Y-44516949D01*
X9843295Y-44516952D01*
X9823554Y-44729999D01*
X9823554Y-44730000D01*
X9843295Y-44943047D01*
X9843296Y-44943050D01*
X9901846Y-45148835D01*
X9901849Y-45148840D01*
X9997219Y-45340370D01*
X10126159Y-45511114D01*
X10284278Y-45655258D01*
X10284283Y-45655261D01*
X10284286Y-45655263D01*
X10466186Y-45767891D01*
X10466187Y-45767891D01*
X10466190Y-45767893D01*
X10665703Y-45845185D01*
X10841845Y-45878111D01*
X10904125Y-45909779D01*
X10939398Y-45970092D01*
X10936464Y-46039900D01*
X10896255Y-46097040D01*
X10841845Y-46121888D01*
X10665703Y-46154815D01*
X10539533Y-46203693D01*
X10466192Y-46232106D01*
X10466186Y-46232108D01*
X10284286Y-46344736D01*
X10284283Y-46344738D01*
X10284279Y-46344740D01*
X10284278Y-46344742D01*
X10126159Y-46488886D01*
X10126158Y-46488887D01*
X9997219Y-46659629D01*
X9901849Y-46851158D01*
X9901846Y-46851164D01*
X9843296Y-47056949D01*
X9843295Y-47056952D01*
X9823554Y-47269999D01*
X9823554Y-47270000D01*
X9843295Y-47483047D01*
X9843296Y-47483050D01*
X9901846Y-47688835D01*
X9901849Y-47688840D01*
X9997219Y-47880370D01*
X10126159Y-48051114D01*
X10284278Y-48195258D01*
X10284283Y-48195261D01*
X10284286Y-48195263D01*
X10466186Y-48307891D01*
X10466187Y-48307891D01*
X10466190Y-48307893D01*
X10665703Y-48385185D01*
X10841845Y-48418111D01*
X10904125Y-48449779D01*
X10939398Y-48510092D01*
X10936464Y-48579900D01*
X10896255Y-48637040D01*
X10841845Y-48661888D01*
X10665703Y-48694815D01*
X10539533Y-48743693D01*
X10466192Y-48772106D01*
X10466186Y-48772108D01*
X10284286Y-48884736D01*
X10284283Y-48884738D01*
X10284279Y-48884740D01*
X10284278Y-48884742D01*
X10127982Y-49027224D01*
X10126158Y-49028887D01*
X9997219Y-49199629D01*
X9901849Y-49391158D01*
X9901846Y-49391164D01*
X9843296Y-49596949D01*
X9843295Y-49596952D01*
X9823554Y-49809999D01*
X9823554Y-49810000D01*
X9843295Y-50023047D01*
X9843296Y-50023050D01*
X9901846Y-50228835D01*
X9901849Y-50228840D01*
X9997219Y-50420370D01*
X10126159Y-50591114D01*
X10284278Y-50735258D01*
X10284283Y-50735261D01*
X10284286Y-50735263D01*
X10466186Y-50847891D01*
X10466187Y-50847891D01*
X10466190Y-50847893D01*
X10665703Y-50925185D01*
X10876020Y-50964500D01*
X10876022Y-50964500D01*
X11089978Y-50964500D01*
X11089980Y-50964500D01*
X11300297Y-50925185D01*
X11499810Y-50847893D01*
X11681722Y-50735258D01*
X11839841Y-50591114D01*
X11968781Y-50420370D01*
X12064151Y-50228840D01*
X12064151Y-50228837D01*
X12064153Y-50228835D01*
X12122703Y-50023050D01*
X12122704Y-50023047D01*
X12142446Y-49810000D01*
X12142446Y-49809999D01*
X12122704Y-49596952D01*
X12122703Y-49596949D01*
X12064153Y-49391164D01*
X12064150Y-49391158D01*
X12031305Y-49325196D01*
X11968781Y-49199630D01*
X11839841Y-49028886D01*
X11681722Y-48884742D01*
X11681716Y-48884738D01*
X11681713Y-48884736D01*
X11499813Y-48772108D01*
X11499807Y-48772106D01*
X11300297Y-48694815D01*
X11124153Y-48661888D01*
X11061874Y-48630221D01*
X11026601Y-48569908D01*
X11029535Y-48500100D01*
X11069744Y-48442960D01*
X11124152Y-48418112D01*
X11300297Y-48385185D01*
X11499810Y-48307893D01*
X11681722Y-48195258D01*
X11839841Y-48051114D01*
X11968781Y-47880370D01*
X12064151Y-47688840D01*
X12064151Y-47688837D01*
X12064153Y-47688835D01*
X12122703Y-47483050D01*
X12122704Y-47483047D01*
X12142446Y-47270000D01*
X12142446Y-47269999D01*
X12122704Y-47056952D01*
X12122703Y-47056949D01*
X12064153Y-46851164D01*
X12064150Y-46851158D01*
X12026205Y-46774954D01*
X11968781Y-46659630D01*
X11839841Y-46488886D01*
X11681722Y-46344742D01*
X11681716Y-46344738D01*
X11681713Y-46344736D01*
X11499813Y-46232108D01*
X11499807Y-46232106D01*
X11300297Y-46154815D01*
X11124153Y-46121888D01*
X11061874Y-46090221D01*
X11026601Y-46029908D01*
X11029535Y-45960100D01*
X11069744Y-45902960D01*
X11124152Y-45878112D01*
X11300297Y-45845185D01*
X11499810Y-45767893D01*
X11681722Y-45655258D01*
X11839841Y-45511114D01*
X11968781Y-45340370D01*
X12064151Y-45148840D01*
X12064151Y-45148837D01*
X12064153Y-45148835D01*
X12122703Y-44943050D01*
X12122704Y-44943047D01*
X12142446Y-44730000D01*
X12142446Y-44729999D01*
X12122704Y-44516952D01*
X12122703Y-44516949D01*
X12064153Y-44311164D01*
X12064150Y-44311158D01*
X12031305Y-44245196D01*
X11968781Y-44119630D01*
X11839841Y-43948886D01*
X11681722Y-43804742D01*
X11681716Y-43804738D01*
X11681713Y-43804736D01*
X11499813Y-43692108D01*
X11499807Y-43692106D01*
X11300297Y-43614815D01*
X11124153Y-43581888D01*
X11061874Y-43550221D01*
X11026601Y-43489908D01*
X11029535Y-43420100D01*
X11069744Y-43362960D01*
X11124152Y-43338112D01*
X11300297Y-43305185D01*
X11499810Y-43227893D01*
X11681722Y-43115258D01*
X11839841Y-42971114D01*
X11968781Y-42800370D01*
X12064151Y-42608840D01*
X12064151Y-42608837D01*
X12064153Y-42608835D01*
X12122703Y-42403050D01*
X12122704Y-42403047D01*
X12142446Y-42190000D01*
X12142446Y-42189999D01*
X12122704Y-41976952D01*
X12122703Y-41976949D01*
X12064153Y-41771164D01*
X12064150Y-41771158D01*
X12026205Y-41694954D01*
X11968781Y-41579630D01*
X11839841Y-41408886D01*
X11681722Y-41264742D01*
X11681716Y-41264738D01*
X11681713Y-41264736D01*
X11499813Y-41152108D01*
X11499807Y-41152106D01*
X11300297Y-41074815D01*
X11124153Y-41041888D01*
X11061874Y-41010221D01*
X11026601Y-40949908D01*
X11029535Y-40880100D01*
X11069744Y-40822960D01*
X11124152Y-40798112D01*
X11300297Y-40765185D01*
X11499810Y-40687893D01*
X11681722Y-40575258D01*
X11839841Y-40431114D01*
X11968781Y-40260370D01*
X12064151Y-40068840D01*
X12064151Y-40068837D01*
X12064153Y-40068835D01*
X12122703Y-39863050D01*
X12122704Y-39863047D01*
X12142446Y-39650000D01*
X12142446Y-39649999D01*
X12122704Y-39436952D01*
X12122703Y-39436949D01*
X12064153Y-39231164D01*
X12064150Y-39231158D01*
X11968781Y-39039630D01*
X11839841Y-38868886D01*
X11681722Y-38724742D01*
X11681716Y-38724738D01*
X11681713Y-38724736D01*
X11499813Y-38612108D01*
X11499807Y-38612106D01*
X11300297Y-38534815D01*
X11169622Y-38510387D01*
X11107342Y-38478720D01*
X11072069Y-38418407D01*
X11075003Y-38348599D01*
X11115212Y-38291459D01*
X11179930Y-38265128D01*
X11192401Y-38264499D01*
X11684872Y-38264499D01*
X11744483Y-38258091D01*
X11879331Y-38207796D01*
X11994546Y-38121546D01*
X12080796Y-38006331D01*
X12131091Y-37871483D01*
X12137500Y-37811873D01*
X12137499Y-36408128D01*
X12131091Y-36348517D01*
X12123769Y-36328887D01*
X12080797Y-36213671D01*
X12080793Y-36213664D01*
X11994547Y-36098455D01*
X11994544Y-36098452D01*
X11879335Y-36012206D01*
X11879328Y-36012202D01*
X11744482Y-35961908D01*
X11744483Y-35961908D01*
X11684883Y-35955501D01*
X11684881Y-35955500D01*
X11684873Y-35955500D01*
X11684864Y-35955500D01*
X10281129Y-35955500D01*
X10281123Y-35955501D01*
X10221516Y-35961908D01*
X10086671Y-36012202D01*
X10086664Y-36012206D01*
X9971455Y-36098452D01*
X9971452Y-36098455D01*
X9885206Y-36213664D01*
X9885202Y-36213671D01*
X9834908Y-36348517D01*
X9828501Y-36408116D01*
X9828501Y-36408123D01*
X9828500Y-36408135D01*
X9828500Y-37811870D01*
X9828501Y-37811876D01*
X9834908Y-37871483D01*
X9885202Y-38006328D01*
X9885206Y-38006335D01*
X9971452Y-38121544D01*
X9971455Y-38121547D01*
X10086664Y-38207793D01*
X10086671Y-38207797D01*
X10221517Y-38258091D01*
X10221516Y-38258091D01*
X10228444Y-38258835D01*
X10281127Y-38264500D01*
X10773592Y-38264499D01*
X10840629Y-38284183D01*
X10886384Y-38336987D01*
X10896328Y-38406146D01*
X10867303Y-38469702D01*
X10808525Y-38507476D01*
X10796375Y-38510388D01*
X10665703Y-38534815D01*
X10539533Y-38583693D01*
X10466192Y-38612106D01*
X10466186Y-38612108D01*
X10284286Y-38724736D01*
X10284283Y-38724738D01*
X10284279Y-38724740D01*
X10284278Y-38724742D01*
X10126159Y-38868886D01*
X10126158Y-38868887D01*
X9997219Y-39039629D01*
X9901849Y-39231158D01*
X9901846Y-39231164D01*
X9843296Y-39436949D01*
X9843295Y-39436952D01*
X9823554Y-39649999D01*
X500500Y-39649999D01*
X500500Y-36545102D01*
X520185Y-36478063D01*
X572989Y-36432308D01*
X642147Y-36422364D01*
X705703Y-36451389D01*
X723762Y-36470786D01*
X792454Y-36562546D01*
X838643Y-36597123D01*
X907664Y-36648793D01*
X907671Y-36648797D01*
X1042517Y-36699091D01*
X1042516Y-36699091D01*
X1049444Y-36699835D01*
X1102127Y-36705500D01*
X2897872Y-36705499D01*
X2957483Y-36699091D01*
X3092331Y-36648796D01*
X3207546Y-36562546D01*
X3293796Y-36447331D01*
X3344091Y-36312483D01*
X3350500Y-36252873D01*
X3350499Y-34457128D01*
X3344091Y-34397517D01*
X3302521Y-34286063D01*
X3293797Y-34262671D01*
X3293793Y-34262664D01*
X3207547Y-34147455D01*
X3207544Y-34147452D01*
X3092335Y-34061206D01*
X3092328Y-34061202D01*
X2957482Y-34010908D01*
X2957483Y-34010908D01*
X2897883Y-34004501D01*
X2897881Y-34004500D01*
X2897873Y-34004500D01*
X2897864Y-34004500D01*
X1102129Y-34004500D01*
X1102123Y-34004501D01*
X1042516Y-34010908D01*
X907671Y-34061202D01*
X907664Y-34061206D01*
X792455Y-34147452D01*
X792452Y-34147455D01*
X723766Y-34239208D01*
X667832Y-34281079D01*
X598141Y-34286063D01*
X536818Y-34252577D01*
X503334Y-34191254D01*
X500500Y-34164897D01*
X500500Y-30814196D01*
X520185Y-30747157D01*
X572989Y-30701402D01*
X642147Y-30691458D01*
X705703Y-30720483D01*
X736882Y-30761791D01*
X825965Y-30952830D01*
X825967Y-30952834D01*
X934281Y-31107521D01*
X961505Y-31146401D01*
X1128599Y-31313495D01*
X1225384Y-31381265D01*
X1322165Y-31449032D01*
X1322167Y-31449033D01*
X1322170Y-31449035D01*
X1536337Y-31548903D01*
X1764592Y-31610063D01*
X1952918Y-31626539D01*
X1999999Y-31630659D01*
X2000000Y-31630659D01*
X2000001Y-31630659D01*
X2039234Y-31627226D01*
X2235408Y-31610063D01*
X2463663Y-31548903D01*
X2677830Y-31449035D01*
X2871401Y-31313495D01*
X3038495Y-31146401D01*
X3174035Y-30952830D01*
X3273903Y-30738663D01*
X3335063Y-30510408D01*
X3355659Y-30275000D01*
X3335063Y-30039592D01*
X3286888Y-29859799D01*
X3273905Y-29811344D01*
X3273904Y-29811343D01*
X3273903Y-29811337D01*
X3174035Y-29597171D01*
X3038495Y-29403599D01*
X3038494Y-29403597D01*
X2871402Y-29236506D01*
X2871396Y-29236501D01*
X2710728Y-29124000D01*
X9394500Y-29124000D01*
X9394500Y-34776000D01*
X9394501Y-34776009D01*
X9406052Y-34883450D01*
X9406054Y-34883462D01*
X9417260Y-34934972D01*
X9451383Y-35037497D01*
X9451386Y-35037503D01*
X9529171Y-35158537D01*
X9529179Y-35158548D01*
X9574923Y-35211340D01*
X9574926Y-35211343D01*
X9574930Y-35211347D01*
X9683664Y-35305567D01*
X9683667Y-35305568D01*
X9683668Y-35305569D01*
X9813750Y-35364977D01*
X9814541Y-35365338D01*
X9881580Y-35385023D01*
X9881584Y-35385024D01*
X10024000Y-35405500D01*
X10024003Y-35405500D01*
X11775990Y-35405500D01*
X11776000Y-35405500D01*
X11883456Y-35393947D01*
X11934967Y-35382741D01*
X12012768Y-35356845D01*
X12051928Y-35350500D01*
X12330664Y-35350500D01*
X12397703Y-35370185D01*
X12418345Y-35386819D01*
X17385354Y-40353828D01*
X17544595Y-40469524D01*
X17627454Y-40511742D01*
X17719969Y-40558882D01*
X17719971Y-40558882D01*
X17719974Y-40558884D01*
X17820318Y-40591487D01*
X17907173Y-40619709D01*
X18101578Y-40650500D01*
X18101583Y-40650500D01*
X23398422Y-40650500D01*
X23592826Y-40619709D01*
X23780026Y-40558884D01*
X23955405Y-40469524D01*
X24114646Y-40353828D01*
X26453828Y-38014646D01*
X26569524Y-37855405D01*
X26658884Y-37680026D01*
X26719709Y-37492826D01*
X26744696Y-37335063D01*
X26750500Y-37298421D01*
X26750500Y-37109999D01*
X27857554Y-37109999D01*
X27857554Y-37110000D01*
X27877295Y-37323047D01*
X27877296Y-37323050D01*
X27935846Y-37528835D01*
X27935849Y-37528840D01*
X28031219Y-37720370D01*
X28160159Y-37891114D01*
X28318278Y-38035258D01*
X28318283Y-38035261D01*
X28318286Y-38035263D01*
X28500186Y-38147891D01*
X28500187Y-38147891D01*
X28500190Y-38147893D01*
X28699703Y-38225185D01*
X28875845Y-38258111D01*
X28938125Y-38289779D01*
X28973398Y-38350092D01*
X28970464Y-38419900D01*
X28930255Y-38477040D01*
X28875845Y-38501888D01*
X28699703Y-38534815D01*
X28573533Y-38583693D01*
X28500192Y-38612106D01*
X28500186Y-38612108D01*
X28318286Y-38724736D01*
X28318283Y-38724738D01*
X28318279Y-38724740D01*
X28318278Y-38724742D01*
X28160159Y-38868886D01*
X28160158Y-38868887D01*
X28031219Y-39039629D01*
X27935849Y-39231158D01*
X27935846Y-39231164D01*
X27877296Y-39436949D01*
X27877295Y-39436952D01*
X27857554Y-39649999D01*
X27857554Y-39650000D01*
X27877295Y-39863047D01*
X27877296Y-39863050D01*
X27935846Y-40068835D01*
X27935849Y-40068840D01*
X28031219Y-40260370D01*
X28160159Y-40431114D01*
X28318278Y-40575258D01*
X28318283Y-40575261D01*
X28318286Y-40575263D01*
X28500186Y-40687891D01*
X28500187Y-40687891D01*
X28500190Y-40687893D01*
X28699703Y-40765185D01*
X28875845Y-40798111D01*
X28938125Y-40829779D01*
X28973398Y-40890092D01*
X28970464Y-40959900D01*
X28930255Y-41017040D01*
X28875845Y-41041888D01*
X28699703Y-41074815D01*
X28573533Y-41123693D01*
X28500192Y-41152106D01*
X28500186Y-41152108D01*
X28318286Y-41264736D01*
X28318283Y-41264738D01*
X28318279Y-41264740D01*
X28318278Y-41264742D01*
X28160159Y-41408886D01*
X28160158Y-41408887D01*
X28031219Y-41579629D01*
X27935849Y-41771158D01*
X27935846Y-41771164D01*
X27877296Y-41976949D01*
X27877295Y-41976952D01*
X27857554Y-42189999D01*
X27857554Y-42190000D01*
X27877295Y-42403047D01*
X27877296Y-42403050D01*
X27935846Y-42608835D01*
X27935849Y-42608840D01*
X28031219Y-42800370D01*
X28160159Y-42971114D01*
X28318278Y-43115258D01*
X28318283Y-43115261D01*
X28318286Y-43115263D01*
X28500186Y-43227891D01*
X28500187Y-43227891D01*
X28500190Y-43227893D01*
X28699703Y-43305185D01*
X28875845Y-43338111D01*
X28938125Y-43369779D01*
X28973398Y-43430092D01*
X28970464Y-43499900D01*
X28930255Y-43557040D01*
X28875845Y-43581888D01*
X28699703Y-43614815D01*
X28573533Y-43663693D01*
X28500192Y-43692106D01*
X28500186Y-43692108D01*
X28318286Y-43804736D01*
X28318283Y-43804738D01*
X28318279Y-43804740D01*
X28318278Y-43804742D01*
X28161982Y-43947224D01*
X28160158Y-43948887D01*
X28031219Y-44119629D01*
X27935849Y-44311158D01*
X27935846Y-44311164D01*
X27877296Y-44516949D01*
X27877295Y-44516952D01*
X27857554Y-44729999D01*
X27857554Y-44730000D01*
X27877295Y-44943047D01*
X27877296Y-44943050D01*
X27935846Y-45148835D01*
X27935849Y-45148840D01*
X28031219Y-45340370D01*
X28160159Y-45511114D01*
X28318278Y-45655258D01*
X28318283Y-45655261D01*
X28318286Y-45655263D01*
X28500186Y-45767891D01*
X28500187Y-45767891D01*
X28500190Y-45767893D01*
X28699703Y-45845185D01*
X28875845Y-45878111D01*
X28938125Y-45909779D01*
X28973398Y-45970092D01*
X28970464Y-46039900D01*
X28930255Y-46097040D01*
X28875845Y-46121888D01*
X28699703Y-46154815D01*
X28573533Y-46203693D01*
X28500192Y-46232106D01*
X28500186Y-46232108D01*
X28318286Y-46344736D01*
X28318283Y-46344738D01*
X28318279Y-46344740D01*
X28318278Y-46344742D01*
X28160159Y-46488886D01*
X28160158Y-46488887D01*
X28031219Y-46659629D01*
X27935849Y-46851158D01*
X27935846Y-46851164D01*
X27877296Y-47056949D01*
X27877295Y-47056952D01*
X27857554Y-47269999D01*
X27857554Y-47270000D01*
X27877295Y-47483047D01*
X27877296Y-47483050D01*
X27935846Y-47688835D01*
X27935849Y-47688840D01*
X28031219Y-47880370D01*
X28160159Y-48051114D01*
X28318278Y-48195258D01*
X28318283Y-48195261D01*
X28318286Y-48195263D01*
X28500186Y-48307891D01*
X28500187Y-48307891D01*
X28500190Y-48307893D01*
X28699703Y-48385185D01*
X28875845Y-48418111D01*
X28938125Y-48449779D01*
X28973398Y-48510092D01*
X28970464Y-48579900D01*
X28930255Y-48637040D01*
X28875845Y-48661888D01*
X28699703Y-48694815D01*
X28573533Y-48743693D01*
X28500192Y-48772106D01*
X28500186Y-48772108D01*
X28318286Y-48884736D01*
X28318283Y-48884738D01*
X28318279Y-48884740D01*
X28318278Y-48884742D01*
X28161982Y-49027224D01*
X28160158Y-49028887D01*
X28031219Y-49199629D01*
X27935849Y-49391158D01*
X27935846Y-49391164D01*
X27877296Y-49596949D01*
X27877295Y-49596952D01*
X27857554Y-49809999D01*
X27857554Y-49810000D01*
X27877295Y-50023047D01*
X27877296Y-50023050D01*
X27935846Y-50228835D01*
X27935849Y-50228840D01*
X28031219Y-50420370D01*
X28160159Y-50591114D01*
X28318278Y-50735258D01*
X28318283Y-50735261D01*
X28318286Y-50735263D01*
X28500186Y-50847891D01*
X28500187Y-50847891D01*
X28500190Y-50847893D01*
X28699703Y-50925185D01*
X28910020Y-50964500D01*
X28910022Y-50964500D01*
X29123978Y-50964500D01*
X29123980Y-50964500D01*
X29334297Y-50925185D01*
X29533810Y-50847893D01*
X29715722Y-50735258D01*
X29873841Y-50591114D01*
X30002781Y-50420370D01*
X30098151Y-50228840D01*
X30098151Y-50228837D01*
X30098153Y-50228835D01*
X30156703Y-50023050D01*
X30156704Y-50023047D01*
X30176446Y-49810000D01*
X30176446Y-49809999D01*
X30156704Y-49596952D01*
X30156703Y-49596949D01*
X30098153Y-49391164D01*
X30098150Y-49391158D01*
X30065305Y-49325196D01*
X30002781Y-49199630D01*
X29873841Y-49028886D01*
X29715722Y-48884742D01*
X29715716Y-48884738D01*
X29715713Y-48884736D01*
X29533813Y-48772108D01*
X29533807Y-48772106D01*
X29334297Y-48694815D01*
X29158153Y-48661888D01*
X29095874Y-48630221D01*
X29060601Y-48569908D01*
X29063535Y-48500100D01*
X29103744Y-48442960D01*
X29158152Y-48418112D01*
X29334297Y-48385185D01*
X29533810Y-48307893D01*
X29715722Y-48195258D01*
X29873841Y-48051114D01*
X30002781Y-47880370D01*
X30098151Y-47688840D01*
X30098151Y-47688837D01*
X30098153Y-47688835D01*
X30156703Y-47483050D01*
X30156704Y-47483047D01*
X30176446Y-47270000D01*
X30176446Y-47269999D01*
X30156704Y-47056952D01*
X30156703Y-47056949D01*
X30098153Y-46851164D01*
X30098150Y-46851158D01*
X30060205Y-46774954D01*
X30002781Y-46659630D01*
X29873841Y-46488886D01*
X29715722Y-46344742D01*
X29715716Y-46344738D01*
X29715713Y-46344736D01*
X29533813Y-46232108D01*
X29533807Y-46232106D01*
X29334297Y-46154815D01*
X29158153Y-46121888D01*
X29095874Y-46090221D01*
X29060601Y-46029908D01*
X29063535Y-45960100D01*
X29103744Y-45902960D01*
X29158152Y-45878112D01*
X29334297Y-45845185D01*
X29471234Y-45792135D01*
X34099500Y-45792135D01*
X34099500Y-48887870D01*
X34099501Y-48887876D01*
X34105908Y-48947483D01*
X34156202Y-49082328D01*
X34156206Y-49082335D01*
X34242452Y-49197544D01*
X34242455Y-49197547D01*
X34357664Y-49283793D01*
X34357671Y-49283797D01*
X34492517Y-49334091D01*
X34492516Y-49334091D01*
X34499444Y-49334835D01*
X34552127Y-49340500D01*
X37647872Y-49340499D01*
X37707483Y-49334091D01*
X37842331Y-49283796D01*
X37957546Y-49197546D01*
X38043796Y-49082331D01*
X38094091Y-48947483D01*
X38100500Y-48887873D01*
X38100499Y-45792128D01*
X38094091Y-45732517D01*
X38065276Y-45655261D01*
X38043797Y-45597671D01*
X38043793Y-45597664D01*
X37957547Y-45482455D01*
X37957544Y-45482452D01*
X37842335Y-45396206D01*
X37842328Y-45396202D01*
X37707482Y-45345908D01*
X37707483Y-45345908D01*
X37647883Y-45339501D01*
X37647881Y-45339500D01*
X37647873Y-45339500D01*
X37647864Y-45339500D01*
X34552129Y-45339500D01*
X34552123Y-45339501D01*
X34492516Y-45345908D01*
X34357671Y-45396202D01*
X34357664Y-45396206D01*
X34242455Y-45482452D01*
X34242452Y-45482455D01*
X34156206Y-45597664D01*
X34156202Y-45597671D01*
X34105908Y-45732517D01*
X34099501Y-45792116D01*
X34099501Y-45792123D01*
X34099500Y-45792135D01*
X29471234Y-45792135D01*
X29533810Y-45767893D01*
X29715722Y-45655258D01*
X29873841Y-45511114D01*
X30002781Y-45340370D01*
X30098151Y-45148840D01*
X30098151Y-45148837D01*
X30098153Y-45148835D01*
X30156703Y-44943050D01*
X30156704Y-44943047D01*
X30176446Y-44730000D01*
X30176446Y-44729999D01*
X30156704Y-44516952D01*
X30156703Y-44516949D01*
X30098153Y-44311164D01*
X30098150Y-44311158D01*
X30065305Y-44245196D01*
X30002781Y-44119630D01*
X29873841Y-43948886D01*
X29715722Y-43804742D01*
X29715716Y-43804738D01*
X29715713Y-43804736D01*
X29533813Y-43692108D01*
X29533807Y-43692106D01*
X29334297Y-43614815D01*
X29158153Y-43581888D01*
X29095874Y-43550221D01*
X29060601Y-43489908D01*
X29063535Y-43420100D01*
X29103744Y-43362960D01*
X29158152Y-43338112D01*
X29334297Y-43305185D01*
X29533810Y-43227893D01*
X29715722Y-43115258D01*
X29873841Y-42971114D01*
X30002781Y-42800370D01*
X30098151Y-42608840D01*
X30098151Y-42608837D01*
X30098153Y-42608835D01*
X30156703Y-42403050D01*
X30156704Y-42403047D01*
X30169960Y-42259998D01*
X34094390Y-42259998D01*
X34094390Y-42260001D01*
X34114804Y-42545433D01*
X34175628Y-42825037D01*
X34275635Y-43093166D01*
X34412770Y-43344309D01*
X34412775Y-43344317D01*
X34584254Y-43573387D01*
X34584270Y-43573405D01*
X34786594Y-43775729D01*
X34786612Y-43775745D01*
X35015682Y-43947224D01*
X35015690Y-43947229D01*
X35266833Y-44084364D01*
X35266832Y-44084364D01*
X35266836Y-44084365D01*
X35266839Y-44084367D01*
X35534954Y-44184369D01*
X35534960Y-44184370D01*
X35534962Y-44184371D01*
X35814566Y-44245195D01*
X35814568Y-44245195D01*
X35814572Y-44245196D01*
X36068220Y-44263337D01*
X36099999Y-44265610D01*
X36100000Y-44265610D01*
X36100001Y-44265610D01*
X36128595Y-44263564D01*
X36385428Y-44245196D01*
X36575742Y-44203796D01*
X36665037Y-44184371D01*
X36665037Y-44184370D01*
X36665046Y-44184369D01*
X36933161Y-44084367D01*
X37184315Y-43947226D01*
X37413395Y-43775739D01*
X37615739Y-43573395D01*
X37787226Y-43344315D01*
X37924367Y-43093161D01*
X38024369Y-42825046D01*
X38085196Y-42545428D01*
X38105610Y-42260000D01*
X38085196Y-41974572D01*
X38040947Y-41771164D01*
X38024371Y-41694962D01*
X38024370Y-41694960D01*
X38024369Y-41694954D01*
X37924367Y-41426839D01*
X37914564Y-41408887D01*
X37787229Y-41175690D01*
X37787224Y-41175682D01*
X37615745Y-40946612D01*
X37615729Y-40946594D01*
X37413405Y-40744270D01*
X37413387Y-40744254D01*
X37184317Y-40572775D01*
X37184309Y-40572770D01*
X36933166Y-40435635D01*
X36933167Y-40435635D01*
X36825915Y-40395632D01*
X36665046Y-40335631D01*
X36665043Y-40335630D01*
X36665037Y-40335628D01*
X36385433Y-40274804D01*
X36100001Y-40254390D01*
X36099999Y-40254390D01*
X35814566Y-40274804D01*
X35534962Y-40335628D01*
X35266833Y-40435635D01*
X35015690Y-40572770D01*
X35015682Y-40572775D01*
X34786612Y-40744254D01*
X34786594Y-40744270D01*
X34584270Y-40946594D01*
X34584254Y-40946612D01*
X34412775Y-41175682D01*
X34412770Y-41175690D01*
X34275635Y-41426833D01*
X34175628Y-41694962D01*
X34114804Y-41974566D01*
X34094390Y-42259998D01*
X30169960Y-42259998D01*
X30176446Y-42190000D01*
X30176446Y-42189999D01*
X30156704Y-41976952D01*
X30156703Y-41976949D01*
X30098153Y-41771164D01*
X30098150Y-41771158D01*
X30060205Y-41694954D01*
X30002781Y-41579630D01*
X29873841Y-41408886D01*
X29715722Y-41264742D01*
X29715716Y-41264738D01*
X29715713Y-41264736D01*
X29533813Y-41152108D01*
X29533807Y-41152106D01*
X29334297Y-41074815D01*
X29158153Y-41041888D01*
X29095874Y-41010221D01*
X29060601Y-40949908D01*
X29063535Y-40880100D01*
X29103744Y-40822960D01*
X29158152Y-40798112D01*
X29334297Y-40765185D01*
X29533810Y-40687893D01*
X29715722Y-40575258D01*
X29873841Y-40431114D01*
X30002781Y-40260370D01*
X30098151Y-40068840D01*
X30098151Y-40068837D01*
X30098153Y-40068835D01*
X30156703Y-39863050D01*
X30156704Y-39863047D01*
X30176446Y-39650000D01*
X30176446Y-39649999D01*
X30156704Y-39436952D01*
X30156703Y-39436949D01*
X30098153Y-39231164D01*
X30098150Y-39231158D01*
X30002781Y-39039630D01*
X29873841Y-38868886D01*
X29715722Y-38724742D01*
X29715716Y-38724738D01*
X29715713Y-38724736D01*
X29533813Y-38612108D01*
X29533807Y-38612106D01*
X29334297Y-38534815D01*
X29158153Y-38501888D01*
X29095874Y-38470221D01*
X29060601Y-38409908D01*
X29063535Y-38340100D01*
X29103744Y-38282960D01*
X29158152Y-38258112D01*
X29334297Y-38225185D01*
X29533810Y-38147893D01*
X29715722Y-38035258D01*
X29873841Y-37891114D01*
X30002781Y-37720370D01*
X30098151Y-37528840D01*
X30098151Y-37528837D01*
X30098153Y-37528835D01*
X30154916Y-37329331D01*
X30156704Y-37323048D01*
X30176446Y-37110000D01*
X30156704Y-36896952D01*
X30143149Y-36849310D01*
X30098153Y-36691164D01*
X30098150Y-36691158D01*
X30068028Y-36630664D01*
X30002781Y-36499630D01*
X29873841Y-36328886D01*
X29715722Y-36184742D01*
X29715716Y-36184738D01*
X29715713Y-36184736D01*
X29533813Y-36072108D01*
X29533807Y-36072106D01*
X29347678Y-35999999D01*
X31244341Y-35999999D01*
X31244341Y-36000000D01*
X31264936Y-36235403D01*
X31264938Y-36235413D01*
X31326094Y-36463655D01*
X31326096Y-36463659D01*
X31326097Y-36463663D01*
X31403971Y-36630664D01*
X31425965Y-36677830D01*
X31425967Y-36677834D01*
X31534281Y-36832521D01*
X31561505Y-36871401D01*
X31728599Y-37038495D01*
X31818698Y-37101583D01*
X31922165Y-37174032D01*
X31922167Y-37174033D01*
X31922170Y-37174035D01*
X32136337Y-37273903D01*
X32364592Y-37335063D01*
X32552918Y-37351539D01*
X32599999Y-37355659D01*
X32600000Y-37355659D01*
X32600001Y-37355659D01*
X32639234Y-37352226D01*
X32835408Y-37335063D01*
X33063663Y-37273903D01*
X33277830Y-37174035D01*
X33471401Y-37038495D01*
X33638495Y-36871401D01*
X33768425Y-36685842D01*
X33823002Y-36642217D01*
X33892500Y-36635023D01*
X33954855Y-36666546D01*
X33971575Y-36685842D01*
X34101500Y-36871395D01*
X34101505Y-36871401D01*
X34268599Y-37038495D01*
X34358698Y-37101583D01*
X34462165Y-37174032D01*
X34462167Y-37174033D01*
X34462170Y-37174035D01*
X34676337Y-37273903D01*
X34904592Y-37335063D01*
X35092918Y-37351539D01*
X35139999Y-37355659D01*
X35140000Y-37355659D01*
X35140001Y-37355659D01*
X35179234Y-37352226D01*
X35375408Y-37335063D01*
X35603663Y-37273903D01*
X35817830Y-37174035D01*
X36011401Y-37038495D01*
X36178495Y-36871401D01*
X36314035Y-36677830D01*
X36413903Y-36463663D01*
X36475063Y-36235408D01*
X36495659Y-36000000D01*
X36475063Y-35764592D01*
X36413903Y-35536337D01*
X36314035Y-35322171D01*
X36308425Y-35314158D01*
X36178494Y-35128597D01*
X36011402Y-34961506D01*
X36011395Y-34961501D01*
X35817834Y-34825967D01*
X35817830Y-34825965D01*
X35710699Y-34776009D01*
X35603663Y-34726097D01*
X35603659Y-34726096D01*
X35603655Y-34726094D01*
X35375413Y-34664938D01*
X35375403Y-34664936D01*
X35140001Y-34644341D01*
X35139999Y-34644341D01*
X34904596Y-34664936D01*
X34904586Y-34664938D01*
X34676344Y-34726094D01*
X34676335Y-34726098D01*
X34462171Y-34825964D01*
X34462169Y-34825965D01*
X34268597Y-34961505D01*
X34101505Y-35128597D01*
X33971575Y-35314158D01*
X33916998Y-35357783D01*
X33847500Y-35364977D01*
X33785145Y-35333454D01*
X33768425Y-35314158D01*
X33638494Y-35128597D01*
X33471402Y-34961506D01*
X33471395Y-34961501D01*
X33277834Y-34825967D01*
X33277830Y-34825965D01*
X33170699Y-34776009D01*
X33063663Y-34726097D01*
X33063659Y-34726096D01*
X33063655Y-34726094D01*
X32835413Y-34664938D01*
X32835403Y-34664936D01*
X32600001Y-34644341D01*
X32599999Y-34644341D01*
X32364596Y-34664936D01*
X32364586Y-34664938D01*
X32136344Y-34726094D01*
X32136335Y-34726098D01*
X31922171Y-34825964D01*
X31922169Y-34825965D01*
X31728597Y-34961505D01*
X31561505Y-35128597D01*
X31425965Y-35322169D01*
X31425964Y-35322171D01*
X31326098Y-35536335D01*
X31326094Y-35536344D01*
X31264938Y-35764586D01*
X31264936Y-35764596D01*
X31244341Y-35999999D01*
X29347678Y-35999999D01*
X29334297Y-35994815D01*
X29123980Y-35955500D01*
X28910020Y-35955500D01*
X28699703Y-35994815D01*
X28654812Y-36012206D01*
X28500192Y-36072106D01*
X28500186Y-36072108D01*
X28318286Y-36184736D01*
X28318283Y-36184738D01*
X28318279Y-36184740D01*
X28318278Y-36184742D01*
X28178152Y-36312483D01*
X28160158Y-36328887D01*
X28031219Y-36499629D01*
X27935849Y-36691158D01*
X27935846Y-36691164D01*
X27877296Y-36896949D01*
X27877295Y-36896952D01*
X27857554Y-37109999D01*
X26750500Y-37109999D01*
X26750500Y-33169335D01*
X26770185Y-33102296D01*
X26786814Y-33081659D01*
X33487821Y-26380651D01*
X33549142Y-26347168D01*
X33618834Y-26352152D01*
X33674767Y-26394024D01*
X33699184Y-26459488D01*
X33699500Y-26468334D01*
X33699500Y-27700001D01*
X33699501Y-27700018D01*
X33710000Y-27802796D01*
X33710001Y-27802799D01*
X33765185Y-27969331D01*
X33765187Y-27969336D01*
X33800069Y-28025888D01*
X33857288Y-28118656D01*
X33981344Y-28242712D01*
X34130666Y-28334814D01*
X34297203Y-28389999D01*
X34399991Y-28400500D01*
X37600008Y-28400499D01*
X37702797Y-28389999D01*
X37869334Y-28334814D01*
X38018656Y-28242712D01*
X38142712Y-28118656D01*
X38234814Y-27969334D01*
X38289999Y-27802797D01*
X38300500Y-27700009D01*
X38300499Y-26299992D01*
X38289999Y-26197203D01*
X38234814Y-26030666D01*
X38142712Y-25881344D01*
X38018656Y-25757288D01*
X37869334Y-25665186D01*
X37702797Y-25610001D01*
X37702795Y-25610000D01*
X37600016Y-25599500D01*
X34568334Y-25599500D01*
X34501295Y-25579815D01*
X34455540Y-25527011D01*
X34445596Y-25457853D01*
X34474621Y-25394297D01*
X34480639Y-25387833D01*
X35453701Y-24414771D01*
X35515022Y-24381288D01*
X35576324Y-24383480D01*
X35580231Y-24384626D01*
X35581580Y-24385023D01*
X35581584Y-24385024D01*
X35724000Y-24405500D01*
X35724003Y-24405500D01*
X37475990Y-24405500D01*
X37476000Y-24405500D01*
X37583456Y-24393947D01*
X37634967Y-24382741D01*
X37669197Y-24371347D01*
X37737497Y-24348616D01*
X37737501Y-24348613D01*
X37737504Y-24348613D01*
X37858543Y-24270825D01*
X37911347Y-24225070D01*
X38005567Y-24116336D01*
X38065338Y-23985459D01*
X38085023Y-23918420D01*
X38085024Y-23918416D01*
X38105500Y-23776000D01*
X38105500Y-18424000D01*
X38093947Y-18316544D01*
X38082741Y-18265033D01*
X38078681Y-18252834D01*
X38048616Y-18162502D01*
X38048613Y-18162496D01*
X37970825Y-18041457D01*
X37952651Y-18020483D01*
X37925076Y-17988659D01*
X37925072Y-17988656D01*
X37925070Y-17988653D01*
X37816336Y-17894433D01*
X37816333Y-17894431D01*
X37816331Y-17894430D01*
X37685465Y-17834664D01*
X37685460Y-17834662D01*
X37685459Y-17834662D01*
X37618420Y-17814977D01*
X37618422Y-17814977D01*
X37618417Y-17814976D01*
X37556347Y-17806052D01*
X37476000Y-17794500D01*
X35724000Y-17794500D01*
X35723991Y-17794500D01*
X35723990Y-17794501D01*
X35616549Y-17806052D01*
X35616537Y-17806054D01*
X35565027Y-17817260D01*
X35462502Y-17851383D01*
X35462496Y-17851386D01*
X35341462Y-17929171D01*
X35341451Y-17929179D01*
X35288659Y-17974923D01*
X35194433Y-18083664D01*
X35194430Y-18083668D01*
X35134664Y-18214534D01*
X35114976Y-18281582D01*
X35109949Y-18316549D01*
X35094502Y-18423990D01*
X35094500Y-18424001D01*
X35094500Y-21628876D01*
X35074815Y-21695915D01*
X35022011Y-21741670D01*
X34989899Y-21751349D01*
X34807172Y-21780291D01*
X34619969Y-21841117D01*
X34444594Y-21930476D01*
X34380328Y-21977169D01*
X34285354Y-22046172D01*
X34285352Y-22046174D01*
X34285351Y-22046174D01*
X24546174Y-31785351D01*
X24546174Y-31785352D01*
X24546172Y-31785354D01*
X24496485Y-31853741D01*
X24430476Y-31944594D01*
X24341117Y-32119969D01*
X24280290Y-32307173D01*
X24249500Y-32501577D01*
X24249500Y-36630664D01*
X24229815Y-36697703D01*
X24213181Y-36718345D01*
X22818345Y-38113181D01*
X22757022Y-38146666D01*
X22730664Y-38149500D01*
X21588988Y-38149500D01*
X21521949Y-38129815D01*
X21476194Y-38077011D01*
X21466250Y-38007853D01*
X21495275Y-37944297D01*
X21517864Y-37923926D01*
X21539770Y-37908586D01*
X21606877Y-37861598D01*
X21761598Y-37706877D01*
X21887102Y-37527639D01*
X21979575Y-37329330D01*
X22036207Y-37117977D01*
X22055277Y-36900000D01*
X22055010Y-36896952D01*
X22050842Y-36849310D01*
X22036207Y-36682023D01*
X21979940Y-36472032D01*
X21979577Y-36470677D01*
X21979576Y-36470676D01*
X21979575Y-36470670D01*
X21887102Y-36272362D01*
X21887100Y-36272359D01*
X21887099Y-36272357D01*
X21761599Y-36093124D01*
X21740581Y-36072106D01*
X21606877Y-35938402D01*
X21427639Y-35812898D01*
X21427640Y-35812898D01*
X21427638Y-35812897D01*
X21324034Y-35764586D01*
X21229330Y-35720425D01*
X21229326Y-35720424D01*
X21229322Y-35720422D01*
X21017977Y-35663793D01*
X20826183Y-35647013D01*
X20761115Y-35621560D01*
X20749310Y-35611166D01*
X19811819Y-34673675D01*
X19778334Y-34612352D01*
X19775500Y-34585994D01*
X19775500Y-24513768D01*
X19775499Y-24513766D01*
X19755808Y-24414773D01*
X19741855Y-24344626D01*
X19692336Y-24225076D01*
X19675861Y-24185301D01*
X19675854Y-24185288D01*
X19580046Y-24041902D01*
X19523603Y-23985459D01*
X19458099Y-23919955D01*
X18011819Y-22473675D01*
X17978334Y-22412352D01*
X17975500Y-22385994D01*
X17975500Y-10944337D01*
X17995185Y-10877298D01*
X18011819Y-10856656D01*
X18061598Y-10806877D01*
X18187102Y-10627639D01*
X18279575Y-10429330D01*
X18336207Y-10217977D01*
X18355277Y-10000000D01*
X18336207Y-9782023D01*
X18279575Y-9570670D01*
X18187102Y-9372362D01*
X18187100Y-9372359D01*
X18187099Y-9372357D01*
X18061599Y-9193124D01*
X17999166Y-9130691D01*
X17906877Y-9038402D01*
X17768978Y-8941844D01*
X17727638Y-8912897D01*
X17598617Y-8852734D01*
X17529330Y-8820425D01*
X17529326Y-8820424D01*
X17529322Y-8820422D01*
X17317977Y-8763793D01*
X17100002Y-8744723D01*
X17099998Y-8744723D01*
X16954682Y-8757436D01*
X16882023Y-8763793D01*
X16882020Y-8763793D01*
X16670677Y-8820422D01*
X16670668Y-8820426D01*
X16472361Y-8912898D01*
X16472357Y-8912900D01*
X16293121Y-9038402D01*
X16138402Y-9193121D01*
X16012900Y-9372357D01*
X16012898Y-9372361D01*
X15920426Y-9570668D01*
X15920422Y-9570677D01*
X15863793Y-9782020D01*
X15863793Y-9782024D01*
X15844723Y-9999997D01*
X15844723Y-10000002D01*
X15863793Y-10217975D01*
X15863793Y-10217979D01*
X15920422Y-10429322D01*
X15920424Y-10429326D01*
X15920425Y-10429330D01*
X15966661Y-10528484D01*
X16012897Y-10627638D01*
X16023272Y-10642455D01*
X16138402Y-10806877D01*
X16138406Y-10806881D01*
X16188181Y-10856656D01*
X16221666Y-10917979D01*
X16224500Y-10944337D01*
X16224500Y-22886233D01*
X16258143Y-23055366D01*
X16258146Y-23055378D01*
X16324138Y-23214698D01*
X16324145Y-23214711D01*
X16419954Y-23358098D01*
X16419957Y-23358102D01*
X17988181Y-24926325D01*
X18021666Y-24987648D01*
X18024500Y-25014006D01*
X18024500Y-35086233D01*
X18058143Y-35255366D01*
X18058146Y-35255378D01*
X18124138Y-35414698D01*
X18124145Y-35414711D01*
X18219954Y-35558098D01*
X18219957Y-35558102D01*
X19511166Y-36849310D01*
X19544651Y-36910633D01*
X19547013Y-36926183D01*
X19563793Y-37117976D01*
X19563793Y-37117979D01*
X19620422Y-37329322D01*
X19620424Y-37329326D01*
X19620425Y-37329330D01*
X19666661Y-37428484D01*
X19712897Y-37527638D01*
X19737998Y-37563486D01*
X19838402Y-37706877D01*
X19993123Y-37861598D01*
X20035273Y-37891112D01*
X20082136Y-37923926D01*
X20125761Y-37978503D01*
X20132953Y-38048001D01*
X20101431Y-38110356D01*
X20041201Y-38145769D01*
X20011012Y-38149500D01*
X18769336Y-38149500D01*
X18702297Y-38129815D01*
X18681655Y-38113181D01*
X13714648Y-33146174D01*
X13714646Y-33146172D01*
X13555405Y-33030476D01*
X13380030Y-32941117D01*
X13192826Y-32880290D01*
X12998422Y-32849500D01*
X12998417Y-32849500D01*
X12529500Y-32849500D01*
X12462461Y-32829815D01*
X12416706Y-32777011D01*
X12405500Y-32725500D01*
X12405500Y-29124010D01*
X12405500Y-29124000D01*
X12393947Y-29016544D01*
X12382741Y-28965033D01*
X12367801Y-28920145D01*
X12348616Y-28862502D01*
X12348613Y-28862496D01*
X12291415Y-28773495D01*
X12270825Y-28741457D01*
X12270820Y-28741451D01*
X12225076Y-28688659D01*
X12225072Y-28688656D01*
X12225070Y-28688653D01*
X12116336Y-28594433D01*
X12116333Y-28594431D01*
X12116331Y-28594430D01*
X11985465Y-28534664D01*
X11985460Y-28534662D01*
X11985459Y-28534662D01*
X11918420Y-28514977D01*
X11918422Y-28514977D01*
X11918417Y-28514976D01*
X11856347Y-28506052D01*
X11776000Y-28494500D01*
X10024000Y-28494500D01*
X10023991Y-28494500D01*
X10023990Y-28494501D01*
X9916549Y-28506052D01*
X9916537Y-28506054D01*
X9865027Y-28517260D01*
X9762502Y-28551383D01*
X9762496Y-28551386D01*
X9641462Y-28629171D01*
X9641451Y-28629179D01*
X9588659Y-28674923D01*
X9494433Y-28783664D01*
X9494430Y-28783668D01*
X9434664Y-28914534D01*
X9414976Y-28981582D01*
X9409949Y-29016549D01*
X9394500Y-29124000D01*
X2710728Y-29124000D01*
X2685842Y-29106575D01*
X2642217Y-29051998D01*
X2635023Y-28982500D01*
X2666546Y-28920145D01*
X2685842Y-28903425D01*
X2744286Y-28862502D01*
X2871401Y-28773495D01*
X3038495Y-28606401D01*
X3174035Y-28412830D01*
X3273903Y-28198663D01*
X3335063Y-27970408D01*
X3355659Y-27735000D01*
X3335063Y-27499592D01*
X3286888Y-27319799D01*
X3273905Y-27271344D01*
X3273904Y-27271343D01*
X3273903Y-27271337D01*
X3174035Y-27057171D01*
X3038495Y-26863599D01*
X3038494Y-26863597D01*
X2871402Y-26696506D01*
X2871396Y-26696501D01*
X2685842Y-26566575D01*
X2642217Y-26511998D01*
X2635023Y-26442500D01*
X2666546Y-26380145D01*
X2685842Y-26363425D01*
X2776425Y-26299998D01*
X2871401Y-26233495D01*
X3038495Y-26066401D01*
X3174035Y-25872830D01*
X3273903Y-25658663D01*
X3335063Y-25430408D01*
X3355659Y-25195000D01*
X3335063Y-24959592D01*
X3286888Y-24779799D01*
X3273905Y-24731344D01*
X3273904Y-24731343D01*
X3273903Y-24731337D01*
X3174035Y-24517171D01*
X3171655Y-24513771D01*
X3038494Y-24323597D01*
X2871402Y-24156506D01*
X2871396Y-24156501D01*
X2685842Y-24026575D01*
X2642217Y-23971998D01*
X2635023Y-23902500D01*
X2666546Y-23840145D01*
X2685842Y-23823425D01*
X2753572Y-23776000D01*
X2871401Y-23693495D01*
X3038495Y-23526401D01*
X3174035Y-23332830D01*
X3273903Y-23118663D01*
X3335063Y-22890408D01*
X3355659Y-22655000D01*
X3335063Y-22419592D01*
X3286888Y-22239799D01*
X3273905Y-22191344D01*
X3273904Y-22191343D01*
X3273903Y-22191337D01*
X3174035Y-21977171D01*
X3078770Y-21841117D01*
X3038494Y-21783597D01*
X2871402Y-21616506D01*
X2871396Y-21616501D01*
X2685842Y-21486575D01*
X2642217Y-21431998D01*
X2635023Y-21362500D01*
X2666546Y-21300145D01*
X2685842Y-21283425D01*
X2833399Y-21180104D01*
X2871401Y-21153495D01*
X3038495Y-20986401D01*
X3174035Y-20792830D01*
X3273903Y-20578663D01*
X3335063Y-20350408D01*
X3353472Y-20139999D01*
X4044341Y-20139999D01*
X4044341Y-20140000D01*
X4064936Y-20375403D01*
X4064938Y-20375413D01*
X4126094Y-20603655D01*
X4126096Y-20603659D01*
X4126097Y-20603663D01*
X4149661Y-20654196D01*
X4225965Y-20817830D01*
X4225967Y-20817834D01*
X4253966Y-20857820D01*
X4344000Y-20986402D01*
X4361501Y-21011395D01*
X4361506Y-21011402D01*
X4528597Y-21178493D01*
X4528603Y-21178498D01*
X4714158Y-21308425D01*
X4757783Y-21363002D01*
X4764977Y-21432500D01*
X4733454Y-21494855D01*
X4714158Y-21511575D01*
X4528597Y-21641505D01*
X4361505Y-21808597D01*
X4225965Y-22002169D01*
X4225964Y-22002171D01*
X4126098Y-22216335D01*
X4126094Y-22216344D01*
X4064938Y-22444586D01*
X4064936Y-22444596D01*
X4044341Y-22679999D01*
X4044341Y-22680000D01*
X4064936Y-22915403D01*
X4064938Y-22915413D01*
X4126094Y-23143655D01*
X4126096Y-23143659D01*
X4126097Y-23143663D01*
X4214307Y-23332830D01*
X4225965Y-23357830D01*
X4225967Y-23357834D01*
X4253966Y-23397820D01*
X4361505Y-23551401D01*
X4528599Y-23718495D01*
X4610720Y-23775997D01*
X4722165Y-23854032D01*
X4722167Y-23854033D01*
X4722170Y-23854035D01*
X4936337Y-23953903D01*
X5164592Y-24015063D01*
X5352918Y-24031539D01*
X5399999Y-24035659D01*
X5400000Y-24035659D01*
X5400001Y-24035659D01*
X5439234Y-24032226D01*
X5635408Y-24015063D01*
X5863663Y-23953903D01*
X6077830Y-23854035D01*
X6271401Y-23718495D01*
X6438495Y-23551401D01*
X6574035Y-23357830D01*
X6673903Y-23143663D01*
X6735063Y-22915408D01*
X6755659Y-22680000D01*
X6735063Y-22444592D01*
X6673903Y-22216337D01*
X6574035Y-22002171D01*
X6556529Y-21977169D01*
X6438494Y-21808597D01*
X6271402Y-21641506D01*
X6271396Y-21641501D01*
X6085842Y-21511575D01*
X6042217Y-21456998D01*
X6035023Y-21387500D01*
X6066546Y-21325145D01*
X6085842Y-21308425D01*
X6121546Y-21283425D01*
X6271401Y-21178495D01*
X6438495Y-21011401D01*
X6574035Y-20817830D01*
X6673903Y-20603663D01*
X6735063Y-20375408D01*
X6755659Y-20140000D01*
X6735063Y-19904592D01*
X6673903Y-19676337D01*
X6574035Y-19462171D01*
X6556528Y-19437169D01*
X6438496Y-19268600D01*
X6413493Y-19243597D01*
X6316567Y-19146671D01*
X6283084Y-19085351D01*
X6288068Y-19015659D01*
X6329939Y-18959725D01*
X6360915Y-18942810D01*
X6492331Y-18893796D01*
X6607546Y-18807546D01*
X6693796Y-18692331D01*
X6744091Y-18557483D01*
X6750500Y-18497873D01*
X6750499Y-16702128D01*
X6744091Y-16642517D01*
X6704551Y-16536506D01*
X6693797Y-16507671D01*
X6693793Y-16507664D01*
X6607547Y-16392455D01*
X6607544Y-16392452D01*
X6492335Y-16306206D01*
X6492328Y-16306202D01*
X6357482Y-16255908D01*
X6357483Y-16255908D01*
X6297883Y-16249501D01*
X6297881Y-16249500D01*
X6297873Y-16249500D01*
X6297864Y-16249500D01*
X4502129Y-16249500D01*
X4502123Y-16249501D01*
X4442516Y-16255908D01*
X4307671Y-16306202D01*
X4307664Y-16306206D01*
X4192455Y-16392452D01*
X4192452Y-16392455D01*
X4106206Y-16507664D01*
X4106202Y-16507671D01*
X4055908Y-16642517D01*
X4049501Y-16702116D01*
X4049501Y-16702123D01*
X4049500Y-16702135D01*
X4049500Y-18497870D01*
X4049501Y-18497876D01*
X4055908Y-18557483D01*
X4106202Y-18692328D01*
X4106206Y-18692335D01*
X4192452Y-18807544D01*
X4192455Y-18807547D01*
X4307664Y-18893793D01*
X4307671Y-18893797D01*
X4439081Y-18942810D01*
X4495015Y-18984681D01*
X4519432Y-19050145D01*
X4504580Y-19118418D01*
X4483430Y-19146673D01*
X4361503Y-19268600D01*
X4225965Y-19462169D01*
X4225964Y-19462171D01*
X4126098Y-19676335D01*
X4126094Y-19676344D01*
X4064938Y-19904586D01*
X4064936Y-19904596D01*
X4044341Y-20139999D01*
X3353472Y-20139999D01*
X3355659Y-20115000D01*
X3335063Y-19879592D01*
X3286888Y-19699799D01*
X3273905Y-19651344D01*
X3273904Y-19651343D01*
X3273903Y-19651337D01*
X3174035Y-19437171D01*
X3057131Y-19270213D01*
X3038494Y-19243597D01*
X2871402Y-19076506D01*
X2871396Y-19076501D01*
X2685842Y-18946575D01*
X2642217Y-18891998D01*
X2635023Y-18822500D01*
X2666546Y-18760145D01*
X2685842Y-18743425D01*
X2758806Y-18692335D01*
X2871401Y-18613495D01*
X3038495Y-18446401D01*
X3174035Y-18252830D01*
X3273903Y-18038663D01*
X3335063Y-17810408D01*
X3355659Y-17575000D01*
X3335063Y-17339592D01*
X3286888Y-17159799D01*
X3273905Y-17111344D01*
X3273904Y-17111343D01*
X3273903Y-17111337D01*
X3174035Y-16897171D01*
X3057131Y-16730213D01*
X3038494Y-16703597D01*
X2871402Y-16536506D01*
X2871395Y-16536501D01*
X2677834Y-16400967D01*
X2677830Y-16400965D01*
X2659574Y-16392452D01*
X2463663Y-16301097D01*
X2463659Y-16301096D01*
X2463655Y-16301094D01*
X2235413Y-16239938D01*
X2235403Y-16239936D01*
X2000001Y-16219341D01*
X1999999Y-16219341D01*
X1764596Y-16239936D01*
X1764586Y-16239938D01*
X1536344Y-16301094D01*
X1536335Y-16301098D01*
X1322171Y-16400964D01*
X1322169Y-16400965D01*
X1128597Y-16536505D01*
X961505Y-16703597D01*
X825965Y-16897169D01*
X825964Y-16897171D01*
X736882Y-17088208D01*
X690709Y-17140647D01*
X623516Y-17159799D01*
X556635Y-17139583D01*
X511300Y-17086418D01*
X500500Y-17035803D01*
X500500Y-12732135D01*
X2039500Y-12732135D01*
X2039500Y-14627870D01*
X2039501Y-14627876D01*
X2045908Y-14687483D01*
X2096202Y-14822328D01*
X2096206Y-14822335D01*
X2182452Y-14937544D01*
X2182455Y-14937547D01*
X2297664Y-15023793D01*
X2297671Y-15023797D01*
X2432517Y-15074091D01*
X2432516Y-15074091D01*
X2439444Y-15074835D01*
X2492127Y-15080500D01*
X4387872Y-15080499D01*
X4447483Y-15074091D01*
X4582331Y-15023796D01*
X4697546Y-14937546D01*
X4783796Y-14822331D01*
X4834091Y-14687483D01*
X4840500Y-14627873D01*
X4840499Y-12732128D01*
X4834091Y-12672517D01*
X4824899Y-12647873D01*
X4783797Y-12537671D01*
X4783793Y-12537664D01*
X4697547Y-12422455D01*
X4697544Y-12422452D01*
X4582335Y-12336206D01*
X4582328Y-12336202D01*
X4447482Y-12285908D01*
X4447483Y-12285908D01*
X4387883Y-12279501D01*
X4387881Y-12279500D01*
X4387873Y-12279500D01*
X4387864Y-12279500D01*
X2492129Y-12279500D01*
X2492123Y-12279501D01*
X2432516Y-12285908D01*
X2297671Y-12336202D01*
X2297664Y-12336206D01*
X2182455Y-12422452D01*
X2182452Y-12422455D01*
X2096206Y-12537664D01*
X2096202Y-12537671D01*
X2045908Y-12672517D01*
X2039501Y-12732116D01*
X2039501Y-12732123D01*
X2039500Y-12732135D01*
X500500Y-12732135D01*
X500500Y-5330958D01*
X520185Y-5263919D01*
X572989Y-5218164D01*
X642147Y-5208220D01*
X705703Y-5237245D01*
X716954Y-5248326D01*
X733339Y-5266661D01*
X1001377Y-5506194D01*
X1294548Y-5714211D01*
X1609167Y-5888094D01*
X1941276Y-6025659D01*
X2285151Y-6124726D01*
X2344120Y-6162200D01*
X2373469Y-6225607D01*
X2363879Y-6294815D01*
X2342056Y-6327859D01*
X2331019Y-6339849D01*
X2204075Y-6534151D01*
X2110842Y-6746699D01*
X2053866Y-6971691D01*
X2053864Y-6971702D01*
X2034700Y-7202993D01*
X2034700Y-7203006D01*
X2053864Y-7434297D01*
X2053866Y-7434308D01*
X2110842Y-7659300D01*
X2204075Y-7871848D01*
X2305000Y-8026325D01*
X2331021Y-8066153D01*
X2375073Y-8114006D01*
X2452870Y-8198518D01*
X2483792Y-8261173D01*
X2475931Y-8330599D01*
X2452870Y-8366482D01*
X2331019Y-8498849D01*
X2204075Y-8693151D01*
X2110842Y-8905699D01*
X2053866Y-9130691D01*
X2053864Y-9130702D01*
X2034700Y-9361993D01*
X2034700Y-9362006D01*
X2053864Y-9593297D01*
X2053866Y-9593308D01*
X2110842Y-9818300D01*
X2204075Y-10030848D01*
X2331016Y-10225147D01*
X2331019Y-10225151D01*
X2331021Y-10225153D01*
X2488216Y-10395913D01*
X2488219Y-10395915D01*
X2488222Y-10395918D01*
X2671365Y-10538464D01*
X2671371Y-10538468D01*
X2671374Y-10538470D01*
X2875497Y-10648936D01*
X2989487Y-10688068D01*
X3095015Y-10724297D01*
X3095017Y-10724297D01*
X3095019Y-10724298D01*
X3323951Y-10762500D01*
X3323952Y-10762500D01*
X3556048Y-10762500D01*
X3556049Y-10762500D01*
X3784981Y-10724298D01*
X4004503Y-10648936D01*
X4208626Y-10538470D01*
X4391784Y-10395913D01*
X4548979Y-10225153D01*
X4675924Y-10030849D01*
X4769157Y-9818300D01*
X4826134Y-9593305D01*
X4832376Y-9517975D01*
X4845300Y-9362006D01*
X4845300Y-9361993D01*
X4840163Y-9299997D01*
X5144723Y-9299997D01*
X5144723Y-9300002D01*
X5163793Y-9517975D01*
X5163793Y-9517979D01*
X5220422Y-9729322D01*
X5220424Y-9729326D01*
X5220425Y-9729330D01*
X5244995Y-9782020D01*
X5312897Y-9927638D01*
X5312898Y-9927639D01*
X5438402Y-10106877D01*
X5593123Y-10261598D01*
X5772361Y-10387102D01*
X5970670Y-10479575D01*
X6182023Y-10536207D01*
X6364926Y-10552208D01*
X6399998Y-10555277D01*
X6400000Y-10555277D01*
X6400002Y-10555277D01*
X6428254Y-10552805D01*
X6617977Y-10536207D01*
X6829330Y-10479575D01*
X7027639Y-10387102D01*
X7206877Y-10261598D01*
X7361598Y-10106877D01*
X7487102Y-9927639D01*
X7507585Y-9883713D01*
X10509500Y-9883713D01*
X10509500Y-10096286D01*
X10529910Y-10225153D01*
X10542754Y-10306243D01*
X10607629Y-10505908D01*
X10608444Y-10508414D01*
X10704951Y-10697820D01*
X10829890Y-10869786D01*
X10980213Y-11020109D01*
X11152182Y-11145050D01*
X11160946Y-11149516D01*
X11211742Y-11197491D01*
X11228536Y-11265312D01*
X11205998Y-11331447D01*
X11160946Y-11370484D01*
X11152182Y-11374949D01*
X10980213Y-11499890D01*
X10829890Y-11650213D01*
X10704951Y-11822179D01*
X10608444Y-12011585D01*
X10542753Y-12213760D01*
X10532341Y-12279500D01*
X10509500Y-12423713D01*
X10509500Y-12636287D01*
X10542754Y-12846243D01*
X10606943Y-13043797D01*
X10608444Y-13048414D01*
X10704951Y-13237820D01*
X10829890Y-13409786D01*
X10980213Y-13560109D01*
X11152182Y-13685050D01*
X11160946Y-13689516D01*
X11211742Y-13737491D01*
X11228536Y-13805312D01*
X11205998Y-13871447D01*
X11160946Y-13910484D01*
X11152182Y-13914949D01*
X10980213Y-14039890D01*
X10829890Y-14190213D01*
X10704951Y-14362179D01*
X10608444Y-14551585D01*
X10542753Y-14753760D01*
X10509500Y-14963713D01*
X10509500Y-15176286D01*
X10531941Y-15317977D01*
X10542754Y-15386243D01*
X10589246Y-15529331D01*
X10608444Y-15588414D01*
X10704951Y-15777820D01*
X10829890Y-15949786D01*
X10980213Y-16100109D01*
X11152182Y-16225050D01*
X11160946Y-16229516D01*
X11211742Y-16277491D01*
X11228536Y-16345312D01*
X11205998Y-16411447D01*
X11160946Y-16450484D01*
X11152182Y-16454949D01*
X10980213Y-16579890D01*
X10829890Y-16730213D01*
X10704951Y-16902179D01*
X10608444Y-17091585D01*
X10542753Y-17293760D01*
X10509500Y-17503713D01*
X10509500Y-17716286D01*
X10537715Y-17894433D01*
X10542754Y-17926243D01*
X10593903Y-18083664D01*
X10608444Y-18128414D01*
X10704951Y-18317820D01*
X10829890Y-18489786D01*
X10980213Y-18640109D01*
X11152182Y-18765050D01*
X11160946Y-18769516D01*
X11211742Y-18817491D01*
X11228536Y-18885312D01*
X11205998Y-18951447D01*
X11160946Y-18990484D01*
X11152182Y-18994949D01*
X10980213Y-19119890D01*
X10829890Y-19270213D01*
X10704951Y-19442179D01*
X10608444Y-19631585D01*
X10542753Y-19833760D01*
X10531534Y-19904596D01*
X10509500Y-20043713D01*
X10509500Y-20256287D01*
X10542754Y-20466243D01*
X10586796Y-20601791D01*
X10608444Y-20668414D01*
X10704951Y-20857820D01*
X10829890Y-21029786D01*
X10980213Y-21180109D01*
X11152182Y-21305050D01*
X11160946Y-21309516D01*
X11211742Y-21357491D01*
X11228536Y-21425312D01*
X11205998Y-21491447D01*
X11160946Y-21530484D01*
X11152182Y-21534949D01*
X10980213Y-21659890D01*
X10829890Y-21810213D01*
X10704951Y-21982179D01*
X10608444Y-22171585D01*
X10542753Y-22373760D01*
X10509500Y-22583713D01*
X10509500Y-22796286D01*
X10523745Y-22886229D01*
X10542754Y-23006243D01*
X10586796Y-23141791D01*
X10608444Y-23208414D01*
X10704951Y-23397820D01*
X10829890Y-23569786D01*
X10980213Y-23720109D01*
X11152179Y-23845048D01*
X11152181Y-23845049D01*
X11152184Y-23845051D01*
X11341588Y-23941557D01*
X11543757Y-24007246D01*
X11753713Y-24040500D01*
X11753714Y-24040500D01*
X13866286Y-24040500D01*
X13866287Y-24040500D01*
X14076243Y-24007246D01*
X14278412Y-23941557D01*
X14467816Y-23845051D01*
X14497582Y-23823425D01*
X14639786Y-23720109D01*
X14639788Y-23720106D01*
X14639792Y-23720104D01*
X14790104Y-23569792D01*
X14790106Y-23569788D01*
X14790109Y-23569786D01*
X14915048Y-23397820D01*
X14915047Y-23397820D01*
X14915051Y-23397816D01*
X15011557Y-23208412D01*
X15077246Y-23006243D01*
X15110500Y-22796287D01*
X15110500Y-22583713D01*
X15077246Y-22373757D01*
X15011557Y-22171588D01*
X14915051Y-21982184D01*
X14915049Y-21982181D01*
X14915048Y-21982179D01*
X14790109Y-21810213D01*
X14639786Y-21659890D01*
X14467820Y-21534951D01*
X14467115Y-21534591D01*
X14459054Y-21530485D01*
X14408259Y-21482512D01*
X14391463Y-21414692D01*
X14413999Y-21348556D01*
X14459054Y-21309515D01*
X14467816Y-21305051D01*
X14497582Y-21283425D01*
X14639786Y-21180109D01*
X14639788Y-21180106D01*
X14639792Y-21180104D01*
X14790104Y-21029792D01*
X14790106Y-21029788D01*
X14790109Y-21029786D01*
X14915048Y-20857820D01*
X14915047Y-20857820D01*
X14915051Y-20857816D01*
X15011557Y-20668412D01*
X15077246Y-20466243D01*
X15110500Y-20256287D01*
X15110500Y-20043713D01*
X15077246Y-19833757D01*
X15011557Y-19631588D01*
X14915051Y-19442184D01*
X14915049Y-19442181D01*
X14915048Y-19442179D01*
X14790109Y-19270213D01*
X14639786Y-19119890D01*
X14467820Y-18994951D01*
X14467115Y-18994591D01*
X14459054Y-18990485D01*
X14408259Y-18942512D01*
X14391463Y-18874692D01*
X14413999Y-18808556D01*
X14459054Y-18769515D01*
X14467816Y-18765051D01*
X14567902Y-18692335D01*
X14639786Y-18640109D01*
X14639788Y-18640106D01*
X14639792Y-18640104D01*
X14790104Y-18489792D01*
X14790106Y-18489788D01*
X14790109Y-18489786D01*
X14915048Y-18317820D01*
X14915047Y-18317820D01*
X14915051Y-18317816D01*
X15011557Y-18128412D01*
X15077246Y-17926243D01*
X15110500Y-17716287D01*
X15110500Y-17503713D01*
X15077246Y-17293757D01*
X15011557Y-17091588D01*
X14915051Y-16902184D01*
X14915049Y-16902181D01*
X14915048Y-16902179D01*
X14790109Y-16730213D01*
X14639786Y-16579890D01*
X14467820Y-16454951D01*
X14467115Y-16454591D01*
X14459054Y-16450485D01*
X14408259Y-16402512D01*
X14391463Y-16334692D01*
X14413999Y-16268556D01*
X14459054Y-16229515D01*
X14467816Y-16225051D01*
X14520049Y-16187102D01*
X14639786Y-16100109D01*
X14639788Y-16100106D01*
X14639792Y-16100104D01*
X14790104Y-15949792D01*
X14790106Y-15949788D01*
X14790109Y-15949786D01*
X14910623Y-15783911D01*
X14915051Y-15777816D01*
X15011557Y-15588412D01*
X15077246Y-15386243D01*
X15110500Y-15176287D01*
X15110500Y-14963713D01*
X15077246Y-14753757D01*
X15011557Y-14551588D01*
X14915051Y-14362184D01*
X14915049Y-14362181D01*
X14915048Y-14362179D01*
X14790109Y-14190213D01*
X14639786Y-14039890D01*
X14467820Y-13914951D01*
X14467115Y-13914591D01*
X14459054Y-13910485D01*
X14408259Y-13862512D01*
X14391463Y-13794692D01*
X14413999Y-13728556D01*
X14459054Y-13689515D01*
X14467816Y-13685051D01*
X14489789Y-13669086D01*
X14639786Y-13560109D01*
X14639788Y-13560106D01*
X14639792Y-13560104D01*
X14790104Y-13409792D01*
X14790106Y-13409788D01*
X14790109Y-13409786D01*
X14915048Y-13237820D01*
X14915047Y-13237820D01*
X14915051Y-13237816D01*
X15011557Y-13048412D01*
X15077246Y-12846243D01*
X15110500Y-12636287D01*
X15110500Y-12423713D01*
X15077246Y-12213757D01*
X15011557Y-12011588D01*
X14915051Y-11822184D01*
X14915049Y-11822181D01*
X14915048Y-11822179D01*
X14790109Y-11650213D01*
X14639786Y-11499890D01*
X14467820Y-11374951D01*
X14467115Y-11374591D01*
X14459054Y-11370485D01*
X14408259Y-11322512D01*
X14391463Y-11254692D01*
X14413999Y-11188556D01*
X14459054Y-11149515D01*
X14467816Y-11145051D01*
X14489789Y-11129086D01*
X14639786Y-11020109D01*
X14639788Y-11020106D01*
X14639792Y-11020104D01*
X14790104Y-10869792D01*
X14790106Y-10869788D01*
X14790109Y-10869786D01*
X14915048Y-10697820D01*
X14915047Y-10697820D01*
X14915051Y-10697816D01*
X15011557Y-10508412D01*
X15077246Y-10306243D01*
X15110500Y-10096287D01*
X15110500Y-9883713D01*
X15077246Y-9673757D01*
X15011557Y-9471588D01*
X14915051Y-9282184D01*
X14915049Y-9282181D01*
X14915048Y-9282179D01*
X14790109Y-9110213D01*
X14662986Y-8983090D01*
X14629501Y-8921767D01*
X14634485Y-8852075D01*
X14676357Y-8796142D01*
X14707335Y-8779227D01*
X14802326Y-8743798D01*
X14802326Y-8743797D01*
X14802331Y-8743796D01*
X14917546Y-8657546D01*
X15003796Y-8542331D01*
X15054091Y-8407483D01*
X15060500Y-8347873D01*
X15060499Y-6552128D01*
X15054091Y-6492517D01*
X15003796Y-6357669D01*
X15003795Y-6357668D01*
X15003793Y-6357664D01*
X14917547Y-6242455D01*
X14917544Y-6242452D01*
X14802335Y-6156206D01*
X14802328Y-6156202D01*
X14667482Y-6105908D01*
X14667483Y-6105908D01*
X14607883Y-6099501D01*
X14607881Y-6099500D01*
X14607873Y-6099500D01*
X14607864Y-6099500D01*
X11012129Y-6099500D01*
X11012123Y-6099501D01*
X10952516Y-6105908D01*
X10817671Y-6156202D01*
X10817664Y-6156206D01*
X10702455Y-6242452D01*
X10702452Y-6242455D01*
X10616206Y-6357664D01*
X10616202Y-6357671D01*
X10565908Y-6492517D01*
X10559501Y-6552116D01*
X10559501Y-6552123D01*
X10559500Y-6552135D01*
X10559500Y-8347870D01*
X10559501Y-8347876D01*
X10565908Y-8407483D01*
X10616202Y-8542328D01*
X10616206Y-8542335D01*
X10702452Y-8657544D01*
X10702455Y-8657547D01*
X10817664Y-8743793D01*
X10817673Y-8743798D01*
X10912664Y-8779227D01*
X10968598Y-8821098D01*
X10993016Y-8886562D01*
X10978165Y-8954835D01*
X10957014Y-8983090D01*
X10829889Y-9110215D01*
X10704951Y-9282179D01*
X10608444Y-9471585D01*
X10608443Y-9471587D01*
X10608443Y-9471588D01*
X10603879Y-9485635D01*
X10542753Y-9673760D01*
X10509500Y-9883713D01*
X7507585Y-9883713D01*
X7579575Y-9729330D01*
X7636207Y-9517977D01*
X7655277Y-9300000D01*
X7636207Y-9082023D01*
X7579575Y-8870670D01*
X7487102Y-8672362D01*
X7487100Y-8672359D01*
X7487099Y-8672357D01*
X7361597Y-8493121D01*
X7311819Y-8443343D01*
X7278334Y-8382020D01*
X7275500Y-8355662D01*
X7275500Y-8114006D01*
X7295185Y-8046967D01*
X7311819Y-8026325D01*
X10426325Y-4911819D01*
X10487648Y-4878334D01*
X10514006Y-4875500D01*
X19285994Y-4875500D01*
X19353033Y-4895185D01*
X19373675Y-4911819D01*
X21588181Y-7126325D01*
X21621666Y-7187648D01*
X21624500Y-7214006D01*
X21624500Y-14486233D01*
X21658143Y-14655366D01*
X21658146Y-14655378D01*
X21724138Y-14814698D01*
X21724145Y-14814711D01*
X21819954Y-14958098D01*
X21819957Y-14958102D01*
X22519955Y-15658099D01*
X22641899Y-15780043D01*
X22646612Y-15783911D01*
X22645572Y-15785177D01*
X22669699Y-15808759D01*
X22738400Y-15906875D01*
X22738401Y-15906876D01*
X22738402Y-15906877D01*
X22893123Y-16061598D01*
X23072361Y-16187102D01*
X23270670Y-16279575D01*
X23482023Y-16336207D01*
X23664926Y-16352208D01*
X23699998Y-16355277D01*
X23700000Y-16355277D01*
X23700002Y-16355277D01*
X23728254Y-16352805D01*
X23917977Y-16336207D01*
X24129330Y-16279575D01*
X24327639Y-16187102D01*
X24506877Y-16061598D01*
X24661598Y-15906877D01*
X24787102Y-15727639D01*
X24879575Y-15529330D01*
X24936207Y-15317977D01*
X24955277Y-15100000D01*
X24936207Y-14882023D01*
X24879575Y-14670670D01*
X24787102Y-14472362D01*
X24787100Y-14472359D01*
X24787099Y-14472357D01*
X24661599Y-14293124D01*
X24661598Y-14293123D01*
X24506877Y-14138402D01*
X24327639Y-14012898D01*
X24327640Y-14012898D01*
X24327638Y-14012897D01*
X24228484Y-13966661D01*
X24129330Y-13920425D01*
X24129326Y-13920424D01*
X24129322Y-13920422D01*
X23917977Y-13863793D01*
X23700002Y-13844723D01*
X23699998Y-13844723D01*
X23510307Y-13861318D01*
X23441807Y-13847551D01*
X23391624Y-13798936D01*
X23375500Y-13737790D01*
X23375500Y-12423713D01*
X27709500Y-12423713D01*
X27709500Y-12636287D01*
X27742754Y-12846243D01*
X27806943Y-13043797D01*
X27808444Y-13048414D01*
X27904951Y-13237820D01*
X28029890Y-13409786D01*
X28180213Y-13560109D01*
X28352182Y-13685050D01*
X28360946Y-13689516D01*
X28411742Y-13737491D01*
X28428536Y-13805312D01*
X28405998Y-13871447D01*
X28360946Y-13910484D01*
X28352182Y-13914949D01*
X28180213Y-14039890D01*
X28029890Y-14190213D01*
X27904951Y-14362179D01*
X27808444Y-14551585D01*
X27742753Y-14753760D01*
X27709500Y-14963713D01*
X27709500Y-15176286D01*
X27731941Y-15317977D01*
X27742754Y-15386243D01*
X27789246Y-15529331D01*
X27808444Y-15588414D01*
X27904951Y-15777820D01*
X28029890Y-15949786D01*
X28180213Y-16100109D01*
X28352182Y-16225050D01*
X28352184Y-16225051D01*
X28381401Y-16239938D01*
X28387268Y-16242927D01*
X28438064Y-16290900D01*
X28454860Y-16358721D01*
X28432323Y-16424856D01*
X28403859Y-16453730D01*
X28230214Y-16579890D01*
X28230209Y-16579894D01*
X28079890Y-16730213D01*
X27954951Y-16902179D01*
X27858444Y-17091585D01*
X27792753Y-17293760D01*
X27759500Y-17503713D01*
X27759500Y-17716286D01*
X27787715Y-17894433D01*
X27792754Y-17926243D01*
X27843903Y-18083664D01*
X27858444Y-18128414D01*
X27954951Y-18317820D01*
X28079890Y-18489786D01*
X28230213Y-18640109D01*
X28402182Y-18765050D01*
X28410946Y-18769516D01*
X28461742Y-18817491D01*
X28478536Y-18885312D01*
X28455998Y-18951447D01*
X28410946Y-18990484D01*
X28402182Y-18994949D01*
X28230213Y-19119890D01*
X28079890Y-19270213D01*
X27954951Y-19442179D01*
X27858444Y-19631585D01*
X27792753Y-19833760D01*
X27781534Y-19904596D01*
X27759500Y-20043713D01*
X27759500Y-20256287D01*
X27792754Y-20466243D01*
X27836796Y-20601791D01*
X27858444Y-20668414D01*
X27954951Y-20857820D01*
X28079890Y-21029786D01*
X28230213Y-21180109D01*
X28402182Y-21305050D01*
X28410946Y-21309516D01*
X28461742Y-21357491D01*
X28478536Y-21425312D01*
X28455998Y-21491447D01*
X28410946Y-21530484D01*
X28402182Y-21534949D01*
X28230213Y-21659890D01*
X28079890Y-21810213D01*
X27954951Y-21982179D01*
X27858444Y-22171585D01*
X27792753Y-22373760D01*
X27759500Y-22583713D01*
X27759500Y-22796286D01*
X27773745Y-22886229D01*
X27792754Y-23006243D01*
X27836796Y-23141791D01*
X27858444Y-23208414D01*
X27954951Y-23397820D01*
X28079890Y-23569786D01*
X28230213Y-23720109D01*
X28402179Y-23845048D01*
X28402181Y-23845049D01*
X28402184Y-23845051D01*
X28591588Y-23941557D01*
X28793757Y-24007246D01*
X29003713Y-24040500D01*
X29003714Y-24040500D01*
X31116286Y-24040500D01*
X31116287Y-24040500D01*
X31326243Y-24007246D01*
X31528412Y-23941557D01*
X31717816Y-23845051D01*
X31747582Y-23823425D01*
X31889786Y-23720109D01*
X31889788Y-23720106D01*
X31889792Y-23720104D01*
X32040104Y-23569792D01*
X32040106Y-23569788D01*
X32040109Y-23569786D01*
X32165048Y-23397820D01*
X32165047Y-23397820D01*
X32165051Y-23397816D01*
X32261557Y-23208412D01*
X32327246Y-23006243D01*
X32360500Y-22796287D01*
X32360500Y-22583713D01*
X32327246Y-22373757D01*
X32261557Y-22171588D01*
X32165051Y-21982184D01*
X32165049Y-21982181D01*
X32165048Y-21982179D01*
X32040109Y-21810213D01*
X31889786Y-21659890D01*
X31717820Y-21534951D01*
X31717115Y-21534591D01*
X31709054Y-21530485D01*
X31658259Y-21482512D01*
X31641463Y-21414692D01*
X31663999Y-21348556D01*
X31709054Y-21309515D01*
X31717816Y-21305051D01*
X31747582Y-21283425D01*
X31889786Y-21180109D01*
X31889788Y-21180106D01*
X31889792Y-21180104D01*
X32040104Y-21029792D01*
X32040106Y-21029788D01*
X32040109Y-21029786D01*
X32165048Y-20857820D01*
X32165047Y-20857820D01*
X32165051Y-20857816D01*
X32261557Y-20668412D01*
X32327246Y-20466243D01*
X32360500Y-20256287D01*
X32360500Y-20043713D01*
X32327246Y-19833757D01*
X32261557Y-19631588D01*
X32165051Y-19442184D01*
X32165049Y-19442181D01*
X32165048Y-19442179D01*
X32040109Y-19270213D01*
X31889786Y-19119890D01*
X31717820Y-18994951D01*
X31717115Y-18994591D01*
X31709054Y-18990485D01*
X31658259Y-18942512D01*
X31641463Y-18874692D01*
X31663999Y-18808556D01*
X31709054Y-18769515D01*
X31717816Y-18765051D01*
X31817902Y-18692335D01*
X31889786Y-18640109D01*
X31889788Y-18640106D01*
X31889792Y-18640104D01*
X32040104Y-18489792D01*
X32040106Y-18489788D01*
X32040109Y-18489786D01*
X32165048Y-18317820D01*
X32165047Y-18317820D01*
X32165051Y-18317816D01*
X32261557Y-18128412D01*
X32327246Y-17926243D01*
X32360500Y-17716287D01*
X32360500Y-17503713D01*
X32327246Y-17293757D01*
X32261557Y-17091588D01*
X32165051Y-16902184D01*
X32165049Y-16902181D01*
X32165048Y-16902179D01*
X32040109Y-16730213D01*
X31889790Y-16579894D01*
X31889785Y-16579890D01*
X31716140Y-16453730D01*
X31673474Y-16398400D01*
X31667495Y-16328787D01*
X31700100Y-16266992D01*
X31732732Y-16242927D01*
X31767816Y-16225051D01*
X31767815Y-16225051D01*
X31767818Y-16225050D01*
X31939786Y-16100109D01*
X31939788Y-16100106D01*
X31939792Y-16100104D01*
X32090104Y-15949792D01*
X32090106Y-15949788D01*
X32090109Y-15949786D01*
X32210623Y-15783911D01*
X32215051Y-15777816D01*
X32311557Y-15588412D01*
X32377246Y-15386243D01*
X32410500Y-15176287D01*
X32410500Y-14963713D01*
X32377246Y-14753757D01*
X32311557Y-14551588D01*
X32215051Y-14362184D01*
X32215049Y-14362181D01*
X32215048Y-14362179D01*
X32090109Y-14190213D01*
X31939786Y-14039890D01*
X31767820Y-13914951D01*
X31767115Y-13914591D01*
X31759054Y-13910485D01*
X31708259Y-13862512D01*
X31691463Y-13794692D01*
X31713999Y-13728556D01*
X31759054Y-13689515D01*
X31767816Y-13685051D01*
X31789789Y-13669086D01*
X31939786Y-13560109D01*
X31939788Y-13560106D01*
X31939792Y-13560104D01*
X32090104Y-13409792D01*
X32090106Y-13409788D01*
X32090109Y-13409786D01*
X32215048Y-13237820D01*
X32215047Y-13237820D01*
X32215051Y-13237816D01*
X32311557Y-13048412D01*
X32377246Y-12846243D01*
X32410500Y-12636287D01*
X32410500Y-12423713D01*
X32377246Y-12213757D01*
X32311557Y-12011588D01*
X32215051Y-11822184D01*
X32215049Y-11822181D01*
X32215048Y-11822179D01*
X32090109Y-11650213D01*
X31939786Y-11499890D01*
X31767820Y-11374951D01*
X31578414Y-11278444D01*
X31578413Y-11278443D01*
X31578412Y-11278443D01*
X31376243Y-11212754D01*
X31376241Y-11212753D01*
X31376240Y-11212753D01*
X31214957Y-11187208D01*
X31166287Y-11179500D01*
X28953713Y-11179500D01*
X28905042Y-11187208D01*
X28743760Y-11212753D01*
X28541585Y-11278444D01*
X28352179Y-11374951D01*
X28180213Y-11499890D01*
X28029890Y-11650213D01*
X27904951Y-11822179D01*
X27808444Y-12011585D01*
X27742753Y-12213760D01*
X27732341Y-12279500D01*
X27709500Y-12423713D01*
X23375500Y-12423713D01*
X23375500Y-10952135D01*
X35299500Y-10952135D01*
X35299500Y-12647870D01*
X35299501Y-12647876D01*
X35305908Y-12707483D01*
X35356202Y-12842328D01*
X35356206Y-12842335D01*
X35442452Y-12957544D01*
X35442455Y-12957547D01*
X35557664Y-13043793D01*
X35557671Y-13043797D01*
X35692517Y-13094091D01*
X35692516Y-13094091D01*
X35699444Y-13094835D01*
X35752127Y-13100500D01*
X37447872Y-13100499D01*
X37507483Y-13094091D01*
X37642331Y-13043796D01*
X37757546Y-12957546D01*
X37843796Y-12842331D01*
X37894091Y-12707483D01*
X37900500Y-12647873D01*
X37900499Y-10952128D01*
X37894091Y-10892517D01*
X37862149Y-10806877D01*
X37843797Y-10757671D01*
X37843793Y-10757664D01*
X37757547Y-10642455D01*
X37757544Y-10642452D01*
X37642335Y-10556206D01*
X37642328Y-10556202D01*
X37507482Y-10505908D01*
X37507483Y-10505908D01*
X37447883Y-10499501D01*
X37447881Y-10499500D01*
X37447873Y-10499500D01*
X37447864Y-10499500D01*
X35752129Y-10499500D01*
X35752123Y-10499501D01*
X35692516Y-10505908D01*
X35557671Y-10556202D01*
X35557664Y-10556206D01*
X35442455Y-10642452D01*
X35442452Y-10642455D01*
X35356206Y-10757664D01*
X35356202Y-10757671D01*
X35305908Y-10892517D01*
X35299501Y-10952116D01*
X35299501Y-10952123D01*
X35299500Y-10952135D01*
X23375500Y-10952135D01*
X23375500Y-7343713D01*
X27709500Y-7343713D01*
X27709500Y-7556287D01*
X27742754Y-7766243D01*
X27777067Y-7871848D01*
X27808444Y-7968414D01*
X27904951Y-8157820D01*
X28029890Y-8329786D01*
X28180213Y-8480109D01*
X28352179Y-8605048D01*
X28352181Y-8605049D01*
X28352184Y-8605051D01*
X28541588Y-8701557D01*
X28743757Y-8767246D01*
X28953713Y-8800500D01*
X28953714Y-8800500D01*
X31166286Y-8800500D01*
X31166287Y-8800500D01*
X31376243Y-8767246D01*
X31578412Y-8701557D01*
X31767816Y-8605051D01*
X31854138Y-8542335D01*
X31939786Y-8480109D01*
X31939788Y-8480106D01*
X31939792Y-8480104D01*
X32090104Y-8329792D01*
X32090106Y-8329788D01*
X32090109Y-8329786D01*
X32184404Y-8199998D01*
X32794532Y-8199998D01*
X32794532Y-8200001D01*
X32814364Y-8426686D01*
X32814366Y-8426697D01*
X32873258Y-8646488D01*
X32873261Y-8646497D01*
X32969431Y-8852732D01*
X32969432Y-8852734D01*
X33099954Y-9039141D01*
X33260858Y-9200045D01*
X33260861Y-9200047D01*
X33447266Y-9330568D01*
X33653504Y-9426739D01*
X33873308Y-9485635D01*
X34035230Y-9499801D01*
X34099998Y-9505468D01*
X34100000Y-9505468D01*
X34100002Y-9505468D01*
X34156673Y-9500509D01*
X34326692Y-9485635D01*
X34546496Y-9426739D01*
X34752734Y-9330568D01*
X34939139Y-9200047D01*
X35100047Y-9039139D01*
X35230568Y-8852734D01*
X35326739Y-8646496D01*
X35385635Y-8426692D01*
X35405468Y-8200000D01*
X35405338Y-8198518D01*
X35393758Y-8066153D01*
X35385635Y-7973308D01*
X35326739Y-7753504D01*
X35230568Y-7547266D01*
X35100047Y-7360861D01*
X35100045Y-7360858D01*
X34939141Y-7199954D01*
X34752734Y-7069432D01*
X34752732Y-7069431D01*
X34546497Y-6973261D01*
X34546488Y-6973258D01*
X34326697Y-6914366D01*
X34326693Y-6914365D01*
X34326692Y-6914365D01*
X34326691Y-6914364D01*
X34326686Y-6914364D01*
X34100002Y-6894532D01*
X34099998Y-6894532D01*
X33873313Y-6914364D01*
X33873302Y-6914366D01*
X33653511Y-6973258D01*
X33653502Y-6973261D01*
X33447267Y-7069431D01*
X33447265Y-7069432D01*
X33260858Y-7199954D01*
X33099954Y-7360858D01*
X32969432Y-7547265D01*
X32969431Y-7547267D01*
X32873261Y-7753502D01*
X32873258Y-7753511D01*
X32814366Y-7973302D01*
X32814364Y-7973313D01*
X32794532Y-8199998D01*
X32184404Y-8199998D01*
X32215048Y-8157820D01*
X32215047Y-8157820D01*
X32215051Y-8157816D01*
X32311557Y-7968412D01*
X32377246Y-7766243D01*
X32410500Y-7556287D01*
X32410500Y-7343713D01*
X32377246Y-7133757D01*
X32311557Y-6931588D01*
X32215051Y-6742184D01*
X32215049Y-6742181D01*
X32215048Y-6742179D01*
X32090109Y-6570213D01*
X31939786Y-6419890D01*
X31767820Y-6294951D01*
X31578414Y-6198444D01*
X31578413Y-6198443D01*
X31578412Y-6198443D01*
X31376243Y-6132754D01*
X31376241Y-6132753D01*
X31376240Y-6132753D01*
X31214957Y-6107208D01*
X31166287Y-6099500D01*
X28953713Y-6099500D01*
X28905042Y-6107208D01*
X28743760Y-6132753D01*
X28541585Y-6198444D01*
X28352179Y-6294951D01*
X28180213Y-6419890D01*
X28029890Y-6570213D01*
X27904951Y-6742179D01*
X27808444Y-6931585D01*
X27742753Y-7133760D01*
X27709500Y-7343713D01*
X23375500Y-7343713D01*
X23375500Y-6713768D01*
X23375499Y-6713766D01*
X23341855Y-6544626D01*
X23320271Y-6492517D01*
X23275861Y-6385301D01*
X23275854Y-6385288D01*
X23180046Y-6241902D01*
X23123529Y-6185385D01*
X23058099Y-6119955D01*
X21813644Y-4875500D01*
X20258102Y-3319957D01*
X20258098Y-3319954D01*
X20114711Y-3224145D01*
X20114698Y-3224138D01*
X19955378Y-3158146D01*
X19955366Y-3158143D01*
X19786232Y-3124500D01*
X19786229Y-3124500D01*
X10186229Y-3124500D01*
X10013771Y-3124500D01*
X10013768Y-3124500D01*
X9844633Y-3158143D01*
X9844621Y-3158146D01*
X9685301Y-3224138D01*
X9685288Y-3224145D01*
X9541901Y-3319954D01*
X9541897Y-3319957D01*
X6762356Y-6099500D01*
X5841901Y-7019955D01*
X5792425Y-7069431D01*
X5719953Y-7141902D01*
X5624145Y-7285288D01*
X5624138Y-7285301D01*
X5558146Y-7444621D01*
X5558143Y-7444633D01*
X5524500Y-7613766D01*
X5524500Y-8355662D01*
X5504815Y-8422701D01*
X5488181Y-8443343D01*
X5438402Y-8493121D01*
X5312900Y-8672357D01*
X5312898Y-8672361D01*
X5220426Y-8870668D01*
X5220422Y-8870677D01*
X5163793Y-9082020D01*
X5163793Y-9082024D01*
X5144723Y-9299997D01*
X4840163Y-9299997D01*
X4826135Y-9130702D01*
X4826133Y-9130691D01*
X4769157Y-8905699D01*
X4675924Y-8693151D01*
X4548983Y-8498852D01*
X4548980Y-8498849D01*
X4548979Y-8498847D01*
X4427128Y-8366480D01*
X4396207Y-8303828D01*
X4404067Y-8234402D01*
X4427127Y-8198520D01*
X4548979Y-8066153D01*
X4675924Y-7871849D01*
X4769157Y-7659300D01*
X4826134Y-7434305D01*
X4832220Y-7360858D01*
X4845300Y-7203006D01*
X4845300Y-7202993D01*
X4826135Y-6971702D01*
X4826133Y-6971691D01*
X4769157Y-6746699D01*
X4675924Y-6534151D01*
X4548983Y-6339852D01*
X4548980Y-6339849D01*
X4548979Y-6339847D01*
X4391784Y-6169087D01*
X4335363Y-6125173D01*
X4323975Y-6116309D01*
X4283162Y-6059599D01*
X4279488Y-5989826D01*
X4314120Y-5929143D01*
X4352684Y-5903895D01*
X4390833Y-5888094D01*
X4705452Y-5714211D01*
X4998623Y-5506194D01*
X5266661Y-5266661D01*
X5506194Y-4998623D01*
X5714211Y-4705452D01*
X5888094Y-4390833D01*
X6025659Y-4058724D01*
X6125173Y-3713300D01*
X6185387Y-3358907D01*
X6205543Y-3000000D01*
X6185387Y-2641093D01*
X6125173Y-2286700D01*
X6025659Y-1941276D01*
X5888094Y-1609167D01*
X5714211Y-1294548D01*
X5506194Y-1001377D01*
X5266661Y-733339D01*
X5266658Y-733336D01*
X5266656Y-733334D01*
X5248332Y-716959D01*
X5211461Y-657610D01*
X5212530Y-587749D01*
X5251200Y-529556D01*
X5315192Y-501506D01*
X5330959Y-500500D01*
X34669041Y-500500D01*
X34736080Y-520185D01*
G37*
%TD.AperFunction*%
%TD*%
%TA.AperFunction,Conductor*%
%TO.N,+5V*%
G36*
X37543039Y-18319685D02*
G01*
X37588794Y-18372489D01*
X37600000Y-18424000D01*
X37600000Y-23776000D01*
X37580315Y-23843039D01*
X37527511Y-23888794D01*
X37476000Y-23900000D01*
X35724000Y-23900000D01*
X35656961Y-23880315D01*
X35611206Y-23827511D01*
X35600000Y-23776000D01*
X35600000Y-18424000D01*
X35619685Y-18356961D01*
X35672489Y-18311206D01*
X35724000Y-18300000D01*
X37476000Y-18300000D01*
X37543039Y-18319685D01*
G37*
%TD.AperFunction*%
%TD*%
%TA.AperFunction,Conductor*%
%TO.N,+5V*%
G36*
X11843039Y-29019685D02*
G01*
X11888794Y-29072489D01*
X11900000Y-29124000D01*
X11900000Y-34776000D01*
X11880315Y-34843039D01*
X11827511Y-34888794D01*
X11776000Y-34900000D01*
X10024000Y-34900000D01*
X9956961Y-34880315D01*
X9911206Y-34827511D01*
X9900000Y-34776000D01*
X9900000Y-29124000D01*
X9919685Y-29056961D01*
X9972489Y-29011206D01*
X10024000Y-29000000D01*
X11776000Y-29000000D01*
X11843039Y-29019685D01*
G37*
%TD.AperFunction*%
%TD*%
M02*
